/* XPM */
static char *_5c682487f8e4f6bc46afd58cf211d494W3EnNWygWcrvMeB[] = {
/* columns rows colors chars-per-pixel */
"64 64 234 2 ",
"   c #050300",
".  c #0B0200",
"X  c #090A00",
"o  c #140300",
"O  c #1B0100",
"+  c #120A00",
"@  c #191800",
"#  c #270800",
"$  c #261D00",
"%  c #301C00",
"&  c #1C240D",
"*  c #2B2700",
"=  c #322700",
"-  c #393705",
";  c #393218",
":  c #202014",
">  c #333325",
",  c #581800",
"<  c #6A0F00",
"1  c #462D00",
"2  c #463906",
"3  c #463B18",
"4  c #502E02",
"5  c #473A28",
"6  c #433F33",
"7  c #3D4132",
"8  c #4D4504",
"9  c #5A5605",
"0  c #554D10",
"q  c #68511D",
"w  c #786E00",
"e  c #5A492A",
"r  c #4E4A38",
"t  c #644D2A",
"y  c #695326",
"u  c #6A553A",
"i  c #775C39",
"p  c #694D2F",
"a  c #786A38",
"s  c #79742E",
"d  c #6A5B49",
"f  c #655B56",
"g  c #725D40",
"h  c #6A6445",
"j  c #766446",
"k  c #6B6458",
"l  c #796A54",
"z  c #6E6B65",
"x  c #73726A",
"c  c #6F7269",
"v  c #9B0F03",
"b  c #9C1C02",
"n  c #9B1706",
"m  c #9F1812",
"M  c #A81608",
"N  c #A51619",
"B  c #B3171E",
"V  c #9A2100",
"C  c #9D3D01",
"Z  c #BA371D",
"A  c #B0310C",
"S  c #B71721",
"D  c #BF1A38",
"F  c #BE2C27",
"G  c #C6172C",
"H  c #D01C37",
"J  c #C52229",
"K  c #CC282E",
"L  c #C82634",
"P  c #D4223B",
"I  c #D5253A",
"U  c #C7342A",
"Y  c #9D581D",
"T  c #B3460D",
"R  c #AD4114",
"E  c #B65517",
"W  c #AF4710",
"Q  c #827509",
"!  c #857B14",
"~  c #B4630D",
"^  c #BB6913",
"/  c #B7502D",
"(  c #847928",
")  c #936B38",
"_  c #87753B",
"`  c #9C753A",
"'  c #9B7C3D",
"]  c #977639",
"[  c #94712F",
"{  c #A47B3C",
"}  c #A57A38",
"|  c #C05715",
" . c #C16912",
".. c #C44B2E",
"X. c #CC772E",
"o. c #D72643",
"O. c #DA2751",
"+. c #856847",
"@. c #8A784D",
"#. c #9C7C44",
"$. c #967946",
"%. c #8F7556",
"&. c #A37A44",
"*. c #B17340",
"=. c #C87146",
"-. c #DC7342",
";. c #CE6A52",
":. c #E57E44",
">. c #9F8A34",
",. c #A78238",
"<. c #A29C3E",
"1. c #BAB12D",
"2. c #ADA237",
"3. c #AFA62F",
"4. c #98921A",
"5. c #C3821A",
"6. c #CBB518",
"7. c #D4BC1C",
"8. c #C4B012",
"9. c #DB973A",
"0. c #D4912A",
"q. c #CBBA2A",
"w. c #D4BC2A",
"e. c #DBA734",
"r. c #C9BA37",
"t. c #D5B935",
"y. c #DFAC2D",
"u. c #E3BC2E",
"i. c #E7BB36",
"p. c #F2B83F",
"a. c #E2A33C",
"s. c #D5C21C",
"d. c #E2C21F",
"f. c #D5C325",
"g. c #DCC324",
"h. c #DCC52A",
"j. c #D5CB2B",
"k. c #DCCA2B",
"l. c #D7C829",
"z. c #D9C634",
"x. c #D5CD35",
"c. c #E3C72B",
"v. c #E3C535",
"b. c #E4CB33",
"n. c #E9C73A",
"m. c #F2C23C",
"M. c #978842",
"N. c #998359",
"B. c #8F8746",
"V. c #A8864B",
"C. c #B39C4E",
"Z. c #A58557",
"A. c #B4955B",
"S. c #B9965D",
"D. c #B1914E",
"F. c #B7A647",
"G. c #B5A654",
"H. c #B5AB41",
"J. c #998968",
"K. c #84837A",
"L. c #928E73",
"P. c #B69965",
"I. c #A08D6F",
"U. c #BCA976",
"Y. c #ACAB72",
"T. c #DE9749",
"R. c #CD9443",
"E. c #E69856",
"W. c #F5904C",
"Q. c #C8BC47",
"!. c #D6BC47",
"~. c #D4BC58",
"^. c #CCB558",
"/. c #F4BC48",
"(. c #F7BA53",
"). c #EEB155",
"_. c #C7B667",
"`. c #CDAC6E",
"'. c #F0B56A",
"]. c #F59E73",
"[. c #DDC748",
"{. c #DDD64E",
"}. c #D7CA54",
"|. c #EAC845",
" X c #F9C44A",
".X c #EECA55",
"XX c #D6D270",
"oX c #EBDE66",
"OX c #F0DA78",
"+X c #ECE47C",
"@X c #868883",
"#X c #928F8B",
"$X c #94918D",
"%X c #9A9692",
"&X c #9B9793",
"*X c #8D9182",
"=X c #A19C98",
"-X c #AEA993",
";X c #AEADA7",
":X c #B2B3AD",
">X c #B6B2A6",
",X c #B2B2B2",
"<X c #BEBEBE",
"1X c #BDB9B3",
"2X c #B2ADB1",
"3X c #FBB383",
"4X c #C0BFBD",
"5X c #BEC0BB",
"6X c #BFC1B6",
"7X c #D9CB80",
"8X c #FAF088",
"9X c #FBE797",
"0X c #F4ED8C",
"qX c #FFE8A6",
"wX c #BDBFC5",
"eX c #BCBFC8",
"rX c #C1BEC2",
"tX c #BCC0C2",
"yX c #C4C4C4",
"uX c #C8C8C8",
"iX c #CACAC6",
"pX c #D6CDCD",
"aX c #D8DBD8",
"sX c #ECEAE7",
"dX c #F5F6EA",
"fX c #F6F6F6",
"gX c #F9F6F6",
"hX c #F6FAF4",
"jX c #FCFCF5",
"kX c #F6F6FA",
"lX c #FBF6FD",
"zX c #F6FBFB",
"xX c #FEFEFE",
"cX c #EDF6F5",
/* pixels */
"<X<XyX<XyX<XyX<X<X<X<X<X<X<X<X<X<X<X<X<X<X<X<X<X<X<X<X<X<X<X<X<X<X<X<X<X<X<X<X<X<X<X<X<X<X<X<X<X<X<X<X<X<X<X<X<X<XyX<XyX<XyX<X<X",
"yXyX<X<X<X<XyX<X<X<X<X<X<X<X<X<X<X<X<X<X<X<X<X<X<X<X<X<X<X<X<X<X<X<X<X<X<X<X<X<X<X<X<X<X<X<X<X<X<X<X<X<X<X<X<X<X<XyX<X<X<X<X<X<X",
"<X<X<XuXuXuXyXyXuXuXuXuXuXuXuXuXuXuXuXuXuXuXuXuXuXuXuXuXuXuXuXuXuXuXuXuXuXuXuXuXuXuXuXuXuXuXuXuXuXuXuXuXuXuXuXuXyXuXuXuXuX<X<X<X",
"<X<XuXgXxXxXxXxXxXxXxXxXxXxXxXxXxXxXxXxXxXxXxXxXxXxXxXxXxXxXxXxXxXxXxXxXxXxXxXxXxXxXxXxXxXxXxXxXxXxXxXxXxXxXxXxXxXxXxXxXgXuX<X<X",
"<X<XuXxXxXxXfXxXxXxXxXxXxXxXxXxXxXxXxXxXxXxXxXxXxXxXxXxXxXxXxXxXxXxXxXxXxXxXxXxXxXxXxXxXxXxXxXxXxXxXxXxXxXxXxXxXxXgXxXxXxXuX<X<X",
"<XyXuXxXxXxXxXxXxXxXxXxXxXxXxXxXxXxXxXxXxXxXxXxXxXxXxXxXxXxXxXxXxXxXxXxXxXxXxXxXxXxXxXxXxXxXxXxXxXxXxXxXxXxXxXxXxXxXxXxXxXuX<X<X",
"<XwXuXxXxXxXxXxXxXxXxXxXxXxXxXxXxXxXxXxXxXxXxXxXxXxXxXxXxXxXxXxXxXxXxXxXxXxXxXxXxXxXxXxXxXxXxXxXxXxXxXxXxXxXxXxXxXxXxXgXxXuX<X<X",
"<X<XuXxXxXxXxXxXxXxXxXxXxXxXxXxXxXxXxXxXxXxXxXxXxXxXxXxXxXxXxXxXxXxXxXxXxXxXxXxXxXxXxXxXxXxXxXxXxXxXxXxXxXxXxXxXxXxXxXxXxXuX<X<X",
"<X<XuXxXxXxXxXxXxXxXxXxXxXxXxXxXxXxXxXxXxXxXxXxXxXxXxXxXxXxXxXxXxXxXxXxXxXxXxXxXxXxXxXxXxXxXxXxXxXxXxXxXxXxXxXxXxXxXxXxXxXuX<X<X",
"<X<XuXxXxXxXxXxXxXxXxXxXxXxXxXxXxXxXxXxXxXxXxXxXxXgXxXxXxXxXxXxXxXxXxXxXxXxXgXxXxXxXxXxXxXxXxXxXxXxXxXxXxXxXxXxXxXxXxXxXxXuX<X<X",
"<X<XuXxXxXxXxXxXxXxXxXxXxXxXxXxXxXxXxXxXxXxXxXxXxXxXxXxXgXxXxXxXxXxXxXgXxXxXxXxXxXxXxXxXxXxXxXxXxXxXxXxXxXxXxXxXxXxXxXxXxXuX<X<X",
"<X<XuXxXxXxXxXxXxXxXxXxXxXxXxXxXxXxXxXxXxXxXxXxXgXxXxXxXxXxXxXxXxXxXxXxXxXxXxXgXxXxXxXxXxXxXxXxXxXxXxXxXxXxXxXxXxXxXxXxXxXuX<X<X",
"<X<XuXxXxXxXxXxXxXxXxXxXxXxXxXxXxXxXxXxXxXxXxXxXxXxXgXxXxXxXxXxXxXxXxXxXxXgXxXxXxXxXxXxXxXxXxXxXxXxXxXxXxXxXxXxXxXxXxXxXxXuX<X<X",
"<X<XuXxXxXxXxXxXxXxXxXxXxXxXxXxXxXxXxXxXxXxXxXxXgXxXgXgXgXgXgXgXgXlXgXgXgXgXxXgXxXxXxXxXxXxXxXxXxXxXxXxXxXxXxXxXxXxXxXxXxXuX<X<X",
"<X<XuXxXxXxXxXxXxXxXxXxXxXxXxXxXxXxXxXxXxXxXxXxXxXfXxXxXxXxXxXxXxXxXxXxXxXxXfXxXxXxXxXxXxXxXxXxXxXxXxXxXxXxXxXxXxXxXxXxXxXuX<X<X",
"<X<XuXxXxXxXxXxXxXxXxXxXxXxXxXxXxXxXxXxXxXxXxXxXaX%X%X%X$X&X#X&X&X#X&X$X%X%X%XaXxXxXxXxXxXxXxXxXxXxXxXxXxXxXxXxXxXxXxXxXxXuX<X<X",
"<X<XuXxXxXxXxXxXxXxXxXxXxXgXxXxXzXzXxXxXxXxXxXlX1X. . . . .   .     .     . . >XxXxXxXxXxXxXxXxXxXxXgXxXxXxXxXxXxXxXxXxXxXuX<X<X",
"<X<XuXxXxXxXxXxXxXxXxXxXxXxXxXxXzXzXxXxXjXx k z k d p j i u j i u j u i j p d j l f x hXxXxXxXxXxXxXxXxXxXxXxXxXxXxXxXxXxXuX<X<X",
"<X<XuXxXxXxXxXxXxXxXxXxXxXxXxXxXzXxXxXxXjX+   . % U.P.S.P.A.S.A.A.S.A.P.A.P.U.% o . + jXxXzXxXxXxXxXxXxXxXxXxXxXxXxXxXxXxXuX<X<X",
"<X<XuXxXxXxXxXxXxXxXxXxXxXlXxXxXxX@X> 6 5 l %.@.$.' } ,.` ` #.] ] &.` } ,.' #.$.@.%.l > 7 > @XxXxXxXxXxXxXxXxXxXxXxXxXxXxXuX<X<X",
"<X<XuXxXxXxXxXxXxXxXxXxXxXxXxXdXjXk   . O %.P.A.V.' ,.} ) +.+.l +.+.) ) { { &.V.A.P.N.o .   k xXsXxXxXxXxXxXxXxXxXxXxXxXxXuX<X<X",
"<X<XuXxXxXxXxXxXxXxXxXxXfXgXfX;X. h J.J.Z.&.&.{ #.$.[ ' 4 O o o o o o 1 $.) #.&.,.M.$.N.N.I.d . ;XfXxXgXxXxXxXxXxXxXxXxXxXuX<X<X",
"<X<XuXxXxXxXxXxXxXxXxXxXxXxXxX&X. u P.V.A.{ ` ` $.i i +.2 = * * * = = 2 j a i ] ] [ { D.V.P.u . &XxXxXxXxXxXxXgXxXxXxXxXxXuX<X<X",
"<X<XuXxXxXxXxXxXxXxXxXxXxXfXxX=X. p V.{ { ` $.#.y O o o M.0XXX+X+XOX9XM.. . o q #.` ` } } V.p o =XxXfXxXxXxXxXxXxXxXxXxXxXuX<X<X",
"<X<XuXxXxXxXxXxXxXxXxXxXxXgXxX=X. t #.] ] y e y q 8 9 8 2.oX{.{.{.{.oX2.8 9 8 q y t y $.` #.t . =XxXgXxXxXxXxXxXxXxXxXxXxXuX<X<X",
"<X<XuXxXxXxXxXxXxXxXxXgXxXxXgX%X. 5 Z._ _ o o . 2 0X+X8X[.z.x.j.l.j.z..X9X9XqX4 o . . @._ N.e   %XgXxXxXgXxXxXxXxXxXxXxXxXuX<X<X",
"<X<XuXxXxXxXxXxXxXxXxXxXxXxXxXiX%.f 3 3 8 s s ( >.}.[.v.c.c.7.f.b.g.b.e.=.;.=.} ( s a 3 3 ; k K.iXxXxXxXxXxXxXxXxXxXxXxXxXuX<X<X",
"<X<XuXxXxXxXxXxXxXxXxXxXxXxXxXxXxXx   . o XX8X+XOX(././.c.d.7.8.g.c. X0.n N n ].9X9XXX. .   c xXxXxXxXxXxXxXxXxXxXxXxXxXxXuX<X<X",
"<X<XuXxXxXxXxXxXxXxXxXxXxXxXxXxXxXc   j F.!.|.|.9.E ..E 0.b.g.7.c.y.| U J L D ../ ).~.H._ . z zXxXxXxXxXxXxXxXxXxXxXxXxXxXuX<X<X",
"<X<XuXxXxXxXxXxXxXxXxXxXxXxXgXfXzXc X Y.8X[.t.(.W.n B v X. Xu.c.b.0.v G I o.o.B b E..X8XU.o x zXkXgXxXxXxXxXxXxXxXxXxXxXxXuX<X<X",
"<X<XuXxXxXxXxXxXxXxXxXxXxXxXxXxXxXsXaXr $ F.T.T Z L I K F C e.v.v.a.M G o.H o.S V E.F.* e pXsXxXxXxXxXxXxXxXxXxXxXxXxXxXxXuX<X<X",
"<X<XuXxXxXxXxXxXxXxXxXxXxXxXxXxXxXxXxX7 . C.T.V S o.P I G n 9.n.b.e.A J I I L Z C R.C.. 5 lXlXxXxXxXxXxXxXxXxXxXxXxXxXxXxXuX<X<X",
"<X<XuXxXxXxXxXxXxXxXxXxXxXxXxXxXxXxXxX> . G.E.V S o.P I G n 9.n.c.u.(.-.N S M :./.!.G.. 5 lXlXxXxXxXxXxXxXxXxXxXxXxXxXxXxXuX<X<X",
"<X<XuXxXxXxXxXxXxXxXxXxXxXxXxXxXgXxXxXz 0 $.*.R U K G J U W e.n.c.g.n.0.R Z W 9.[.4._ 3 x xXlXxXxXxXxXxXxXxXxXxXxXxXxXxXxXuX<X<X",
"<X<XuXxXxXxXxXxXxXxXxXxXxXxXxXxXlXlXlXgXxX@ # '.-.b M b 0. Xv.w.h.g.8.q.m. Xp.t.1.@ @ jXxXzXzXzXxXxXxXxXxXxXxXxXxXxXxXxXxXuX<X<X",
"<X<XuXxXxXxXxXxXxXxXxXxXxXxXxXxXlXlXxXxXkX: $ _.9.^ X.^ 0.w.h.b.h.v.7.f.k.s.k.q.H.@ & cXzXzXzXzXxXxXxXxXxXxXxXxXxXxXxXxXxXuX<X<X",
"<X<XuXxXxXxXxXxXxXxXxXxXxXxXxXxXxXxXxXzXkXX o _.!.|.|.|.g.8.s.h.n.m.|.n.f.k.b.r._.@   lXxXxXgXxXxXxXxXxXxXxXxXxXxXxXxXxXxXuX<X<X",
"<X<XuXxXxXxXxXxXxXxXxXxXxXxXxXxXxXgXxXxXhX;XJ.0 Q q.l.j.s.7.c.i.^  .~ 5.n.w.r.w 8 J.;XxXlXlXxXxXxXxXxXxXxXxXxXxXxXxXxXxXxXuX<X<X",
"<X<XuXxXxXxXxXxXxXxXxXxXxXxXxXxXxXxXjXjXzXhXsX. 1 Q.q.g.g.b. X).M M v ...Xe.r.-   sXdXxXxXlXxXxXxXxXxXxXxXxXxXxXxXxXxXxXxXuX<X<X",
"<X<XuXxXxXxXxXxXxXxXxXxXxXxXxXxXlXxXjXjXhXzXaX  2 ^.t.h.c.i.~ R K P o.L R X.~.-   aXjXjXxXxXxXxXxXxXxXxXxXxXxXxXxXxXxXxXxXuX<X<X",
"<X<XuXxXxXxXxXxXxXxXxXxXxXxXxXxXxXgXxXxXxXxXaXX 3 _.r.k.h.p.T M L o.O.D m / `.2 X aXxXlXxXxXhXxXxXxXxXxXxXxXxXxXxXxXxXxXxXuX<X<X",
"<X<XuXxXxXxXxXxXxXxXxXxXxXxXxXxXxXxXxXxXxXgXhXdX-X. w q.f. XA M I P o.o.N < # -XdXzXlXxXzXxXxXxXxXxXxXxXxXxXxXxXxXxXxXxXxXuX<X<X",
"<X<XuXxXxXxXxXxXxXxXxXxXxXxXxXxXxXxXxXxXxXxXhXjX1X  9 r.w.i. .A K P L F / , O 1XjXhXxXxXxXxXzXzXxXxXxXxXxXxXxXxXxXxXxXxXxXuX<X<X",
"<X<XuXxXxXxXxXxXxXxXxXxXxXxXxXxXzXxXxXxXzXzXxXxX,X  0 }.z.n./.W.M M M / 3Xy . 2XxXxXxXjXxXxXzXzXxXxXxXxXxXxXxXxXxXxXxXxXxXuX<X<X",
"<X<XuXxXxXxXxXxXxXxXxXxXxXxXxXxXzXzXkXxXxXzXgXxXpXr h s 3.z.i./.~ E E Y $.j r pXxXgXzXzXjXdXxXxXxXxXxXxXxXxXxXxXxXxXxXxXxXuX<X<X",
"<X<XuXxXxXxXxXxXxXxXxXxXxXxXxXxXzXzXxXxXlXxXxXxXxXxXL.. ! q.w.t. X(.).[ o L.jXxXxXxXzXzXjXjXxXxXxXxXxXxXxXxXxXxXxXxXxXxXxXuX<X<X",
"<X<XuXxXxXxXxXxXxXxXxXxXxXxXxXxXxXxXxXjXxXxXxXxXxXxXK.X ! f.l.k.z.w.t.!   *XxXgXxXzXzXzXlXxXxXxXxXxXxXxXxXxXxXxXxXxXxXxXxXuX<X<X",
"<X<XuXxXxXxXxXxXxXxXxXxXxXxXxXxXjXjXjXxXxXxXxXxXxXxX@X  ( }.f.j.j.z.}.(   @XxXzXxXxXxXxXxXlXxXlXxXxXxXxXxXxXxXxXxXxXxXxXxXuX<X<X",
"<X<XuXxXxXxXxXxXxXxXxXxXxXxXxXxXxXxXxXxXxXxXxXxXzXzXaX>Xi 2 1.j.j.1.2 h >XaXzXzXxXxXxXjXxXxXxXxXxXxXxXxXxXxXxXxXxXxXxXxXxXuX<X<X",
"<X<XuXxXxXxXxXxXxXxXxXxXxXxXxXxXxXxXxXxXxXxXxXxXzXzXxXxXf . 2.x.x.3.. f xXzXzXzXxXxXxXjXxXxXxXxXxXxXxXxXxXxXxXxXxXxXxXxXxXuX<X<X",
"<X<XuXxXxXxXxXxXxXxXxXxXxXxXxXxXxXxXxXxXxXxXxXxXzXzXzXxXf . M.Q.Q.<.. f xXxXzXzXxXxXxXjXxXxXxXxXxXxXxXxXxXxXxXxXxXxXxXxXxXuX<X<X",
"<X<XuXxXxXxXxXxXxXxXxXxXxXxXxXxXxXxXxXxXxXxXxXxXxXhXjXxXz + B.G.G.B.+ z xXxXzXxXxXxXxXxXxXxXxXxXxXxXxXxXxXxXxXxXxXxXxXxXxXuX<X<X",
"<X<XuXxXxXxXxXxXxXxXxXxXxXxXxXxXxXxXxXxXxXxXxXxXxXjXjXxXfXjX; . . - jXfXxXxXjXxXxXxXxXxXxXxXxXxXxXxXxXxXxXxXxXxXxXxXxXxXxXuX<X<X",
"<X<XuXxXxXxXxXxXxXxXxXxXxXxXxXxXxXxXxXxXxXxXxXxXxXxXjXxXxXlXk ; ; k xXxXxXxXxXxXxXxXxXxXxXxXxXxXxXxXxXxXxXxXxXxXxXxXxXxXxXuX<X<X",
"<X<XuXxXxXxXxXxXxXxXxXxXxXxXxXxXxXxXxXxXxXxXxXxXxXxXjXxXlXlXxXxXxXxXxXlXxXhXxXxXxXxXxXxXxXxXxXxXxXxXxXxXxXxXxXxXxXxXxXxXxXuX<X<X",
"<X<XuXxXxXxXxXxXxXxXxXxXxXxXxXxXxXxXxXxXxXxXxXxXxXxXxXxXxXxXxXlXlXlXxXxXxXxXzXxXxXxXxXxXxXxXxXxXxXxXxXxXxXxXxXxXxXxXxXxXxXuX<X<X",
"yX<XuXxXxXxXxXxXxXxXxXxXxXxXxXxXxXxXxXxXxXxXxXxXxXxXxXxXxXxXxXxXxXxXxXxXxXxXxXxXxXxXxXxXxXxXxXxXxXxXxXxXxXxXxXxXxXxXxXxXxXyX<XyX",
"<X<XuXxXxXxXxXxXxXxXxXxXxXxXxXxXxXxXxXxXxXxXxXxXxXxXxXxXxXxXxXxXxXxXxXxXxXxXxXxXxXxXxXxXxXxXxXxXxXxXxXxXxXxXxXxXxXxXxXxXxXyX<X<X",
"<X<XyXxXxXxXxXxXxXxXxXxXxXxXxXxXxXxXxXxXxXxXxXxXxXxXxXxXxXxXxXxXxXxXxXxXxXxXxXxXxXxXxXxXxXxXxXxXxXxXxXxXxXxXxXxXxXgXxXxXxXyX<X<X",
"yX<XuXxXxXxXxXxXxXxXxXxXxXxXxXxXxXxXxXxXxXxXxXxXxXxXxXxXxXxXxXxXxXxXxXxXxXxXxXxXxXxXxXxXxXxXxXxXxXxXxXxXxXxXxXxXxXxXxXxXxXuX<XyX",
"<X<XuXfXfXgXfXfXfXfXfXfXfXfXfXfXkXkXfXfXfXfXfXfXkXkXlXkXkXfXhXhXhXhXfXfXgXgXfXfXfXfXfXfXfXhXgXgXfXfXfXfXfXfXfXfXfXfXgXgXfXuX<X<X",
"yXyX,X,X2X,X,X,X,X,X,X,X,X,X,X,X,X,X,X,X,X,X,X,X,X,X,X,X,X,X:X:X:X,X,X,X,X,X:X:X:X,X,X,X,X:X:X:X,X,X,X,X,X,X,X,X,X,X,X2X,X,XyXyX",
"<X<XyX<X<X<XtX<X<X<X<X<X<X<X<X<X4X4X<X<XwXtX5X5X5X5X4XrXrXrX4X4X4XrXrXrX4X4X5X5X5XtXwXwX<X5X4X4X<X<X<X<X<X<X<X<X<XyX<XyX<XyXtX<X",
"yX<XyX<XyX<XyXyX<X<X<X<X<X<X<X<X4X4X4X5XwXwX5X5X6X5X4XrXrXrX4X4X4XrXrXrX4X4X6X6X5XtXwXwX<X5X4X4X4X<X<X<X<X<X<X<XyXyX<XyX<X<X<XyX"
};
