/* XPM */
static char *_3bbfc06182c4752dc40622d169325efmMkR2rsVzuF3NTAU[] = {
/* columns rows colors chars-per-pixel */
"64 64 256 2 ",
"   c #330C05",
".  c #4C2809",
"X  c #5C2418",
"o  c #7D5B52",
"O  c #8A2500",
"+  c #DE3904",
"@  c #E23B07",
"#  c #994100",
"$  c #DC4800",
"%  c #FD4903",
"&  c #E95B03",
"*  c #FD5903",
"=  c #E24903",
"-  c #E56802",
";  c #FB6505",
":  c #FD7501",
">  c #FD7C01",
",  c #FB7808",
"<  c #F1700C",
"1  c #F87133",
"2  c #E86811",
"3  c #F47547",
"4  c #C37648",
"5  c #3ABA07",
"6  c #3ABB13",
"7  c #2AAC04",
"8  c #109B03",
"9  c #47BA07",
"0  c #53BB09",
"q  c #45BA14",
"w  c #44A90B",
"e  c #6ABB07",
"r  c #73B709",
"t  c #54BC26",
"y  c #699F03",
"u  c #3CD03C",
"i  c #31C30A",
"p  c #58C50B",
"a  c #59C414",
"s  c #4DC510",
"d  c #68C90B",
"f  c #77C808",
"g  c #68C915",
"h  c #76CB17",
"j  c #77D217",
"k  c #6CD20E",
"l  c #54CB2F",
"z  c #6ACA24",
"x  c #7AD723",
"c  c #76CF32",
"v  c #00BF60",
"b  c #17CC5C",
"n  c #1AD256",
"m  c #04CA69",
"M  c #0DCB6B",
"N  c #37D254",
"B  c #45CF4C",
"V  c #71CA48",
"C  c #7AD860",
"Z  c #6AB050",
"A  c #9AB006",
"S  c #A5AD08",
"D  c #DE9204",
"F  c #FD8201",
"G  c #FA8904",
"H  c #FE9403",
"J  c #FE9C01",
"K  c #F79806",
"L  c #F58E10",
"P  c #D5B201",
"I  c #E8AA06",
"U  c #FEA402",
"Y  c #FEAC02",
"T  c #FCA707",
"R  c #FDBC02",
"E  c #FBB805",
"W  c #FDAA16",
"Q  c #FDB617",
"!  c #EBBC0B",
"~  c #FB8F36",
"^  c #FBA435",
"/  c #86C605",
"(  c #93CF10",
")  c #A6CA01",
"_  c #B6C903",
"`  c #B6D204",
"'  c #B2D214",
"]  c #89D629",
"[  c #98D72B",
"{  c #88D735",
"}  c #8ECB25",
"|  c #B6D622",
" . c #85E231",
".. c #C6C905",
"X. c #D1D60F",
"o. c #E6CB04",
"O. c #FDC301",
"+. c #FDCB01",
"@. c #F9C705",
"#. c #FED401",
"$. c #FEDB01",
"%. c #F7D606",
"&. c #F7D615",
"*. c #FEDC3C",
"=. c #FED62A",
"-. c #ECE530",
";. c #88BD47",
":. c #FC8F4D",
">. c #FBB572",
",. c #E98E60",
"<. c #94D552",
"1. c #98E151",
"2. c #91D86C",
"3. c #A8DB6B",
"4. c #AFD97D",
"5. c #B5E579",
"6. c #ADE26D",
"7. c #9EE165",
"8. c #F6DB4E",
"9. c #FCE559",
"0. c #F2E249",
"q. c #FAEB6A",
"w. c #D6DE6E",
"e. c #743EE8",
"r. c #633EDB",
"t. c #6C48DC",
"y. c #714DDC",
"u. c #6C49E5",
"i. c #7748E6",
"p. c #765AE9",
"a. c #6F58E9",
"s. c #5473EE",
"d. c #697AFC",
"f. c #7676FB",
"g. c #7266F0",
"h. c #5A57E1",
"j. c #943CF3",
"k. c #AB33FE",
"l. c #A83BFA",
"z. c #B436FF",
"x. c #AA2EF9",
"c. c #C836FD",
"v. c #D536FB",
"b. c #CE33F0",
"n. c #EB3DED",
"m. c #8942EE",
"M. c #826AFD",
"N. c #8373FD",
"B. c #8F6CE5",
"V. c #B77AFA",
"C. c #B66CF3",
"Z. c #AE41F2",
"A. c #FB4AD9",
"S. c #FC56D6",
"D. c #F853CA",
"F. c #F576D1",
"G. c #D449F8",
"H. c #F94AE6",
"J. c #E948FB",
"K. c #EF4EEC",
"L. c #CF6FF5",
"P. c #F76FE5",
"I. c #DF5EDC",
"U. c #35B496",
"Y. c #2FB4A4",
"T. c #13CA8E",
"R. c #22CA96",
"E. c #7CE2B6",
"W. c #5EDD84",
"Q. c #1B9CFB",
"!. c #179DE9",
"~. c #3B8CFD",
"^. c #239AFC",
"/. c #2A96FC",
"(. c #3295FD",
"). c #2D8FFE",
"_. c #19A8F7",
"`. c #0CB1F6",
"'. c #16B5F5",
"]. c #10B2EE",
"[. c #34A7F8",
"{. c #28B8F7",
"}. c #35B6F7",
"|. c #2DAEF0",
" X c #2DBCCD",
".X c #478BFD",
"XX c #5386FB",
"oX c #4E8FED",
"OX c #49BAFD",
"+X c #48B2F5",
"@X c #71B9FF",
"#X c #37C6CF",
"$X c #37C4F9",
"%X c #4BC4F9",
"&X c #57C6F9",
"*X c #51CBED",
"=X c #5AD2CD",
"-X c #928285",
";X c #FAB99A",
":X c #F9B88B",
">X c #DBB8A0",
",X c #B8E889",
"<X c #AEE48E",
"1X c #A3E394",
"2X c #C3ED95",
"3X c #C1EA89",
"4X c #FFF49B",
"5X c #FCCBB2",
"6X c #CDF1B4",
"7X c #FDEDAD",
"8X c #FCC991",
"9X c #9A94FF",
"0X c #B78EFC",
"qX c #A9A7F1",
"wX c #FF89D1",
"eX c #C597FF",
"rX c #CF8DFA",
"tX c #FD9EEF",
"yX c #D1B1FB",
"uX c #F4ACF6",
"iX c #87E8C5",
"pX c #8EDBF4",
"aX c #B1D8FA",
"sX c #B2E7FC",
"dX c #FDDCD0",
"fX c #DCF5D4",
"gX c #FDE8D5",
"hX c #E7F7D7",
"jX c #FBF4D8",
"kX c #F5F3CC",
"lX c #D6C7FB",
"zX c #D9D6FE",
"xX c #C7D8FF",
"cX c #FCC7F7",
"vX c #E5D8FB",
"bX c #FAD7FE",
"nX c #EDCCF7",
"mX c #CEEFFC",
"MX c #EAF8E5",
"NX c #FEFDEC",
"BX c #F7F8E8",
"VX c #EAE4FA",
"CX c #F7E7FC",
"ZX c #EAFCFB",
"AX c #F4FEF3",
"SX c #FDFEF5",
"DX c #FEF5FE",
"FX c #F5FEFD",
"GX c #FFFFFD",
"HX c #FFFDFF",
"JX c white",
"KX c #FEFEFF",
"LX c #FDFEFE",
"PX c #FEFEFE",
"IX c #F6F5F9",
"UX c #F7ECE5",
/* pixels */
"JXJXJXJXJXJXJXJXJXJXJXJXJXJXJXJXJXJXJXJXJXJXJXJXJXJXJXJXJXJXJXJXGXJXGXJXJXGXJXGXJXJXSXGXHXJXJXJXJXJXJXJXJXJXJXJXJXJXJXJXJXJXJXJX",
"JXJXJXJXJXJXJXJXJXJXJXJXJXJXJXJXJXJXJXJXJXJXJXJXJXJXJXJXJXJXJXJXJXJXJXJXJXJXJXJXJXJXFXJXJXGXGXSXJXJXJXJXJXJXJXJXJXJXJXJXJXJXJXJX",
"JXJXJXJXJXJXJXJXJXJXJXJXJXJXJXJXJXJXJXJXJXJXJXJXJXJXJXJXJXJXJXJXSXSXSXGXGXSXGXGXGXJXJXFXJXGXGXDXJXJXJXJXJXJXJXJXJXJXJXJXJXJXJXJX",
"JXJXJXJXJXJXJXJXJXJXJXJXJXJXJXJXJXJXJXJXJXJXJXJXJXJXJXJXJXJXJXJXJXJXJXJXJXJXJXJXJXJXJXJXGXJXJXJXJXJXJXJXJXJXJXJXJXJXJXJXJXJXJXJX",
"JXJXJXJXJXJXJXJXJXJXJXJXJXJXJXJXJXJXJXJXJXJXJXJXJXJXJXJXJXJXJXJXHXJXJXJXJXJXJXJXJXJXJXGXJXJXJXJXJXJXJXJXJXJXJXJXJXJXJXJXJXJXJXJX",
"JXJXJXJXJXJXJXJXJXJXJXJXJXJXJXJXJXJXJXJXJXJXJXJXJXJXJXJXJXJXJXJXJXJXJXFXFXJXJXJXGXAXJXHXJXJXGXGXJXJXJXJXJXJXJXJXJXJXJXJXJXJXJXJX",
"JXJXJXJXJXJXJXJXJXJXJXJXJXJXJXJXJXJXJXJXJXJXJXJXJXJXJXJXJXJXGXSX2X,X<X4.<X,X,X3X2X6XGXHXJXSXSXJXJXJXJXJXJXJXJXJXJXJXJXJXJXJXJXJX",
"JXJXJXJXJXJXJXJXJXJXJXJXJXJXJXJXJXJXJXJXJXJXJXJXJXJXJXJXJXJXGXSX{ g 0 9 0 g j j ] 5.AXHXJXSXJXHXJXJXJXJXJXJXJXJXJXJXJXJXJXJXJXJX",
"JXJXJXJXJXJXJXJXJXJXJXJXJXJXJXJXSXJXJXJXFXJXGXSXJXhXBXMXfXMXUXfX{ j p 6 p g z j { 7.hXMXSXJXJXHXJXJXJXJXJXJXJXJXJXJXJXJXJXJXJXJX",
"JXJXJXJXJXJXJXJXJXJXJXJXJXJXJXJXJXJXGXJXSXHXDXDXhX<.x z a g { ] j h g h d q s f h g l V fXJXSXJXJXJXJXJXJXJXJXJXJXJXJXJXJXJXJXJX",
"JXJXJXJXJXJXJXJXJXJXJXJXJXJXJXJXJXJXHXJXAXFXJXJXhXc k 0 9 0 h g h h k j d 9 5 d k g 5 t fXGXNXJXGXGXJXJXJXJXJXJXJXJXJXJXJXJXJXJX",
"JXJXJXJXJXJXJXJXJXJXJXJXJXJXJXJXGXSXJXAX,X7.7.3.7.a p p p p p p a p d k g 9 9 g k g q s <.3.6XFXJXJXJXJXJXJXJXJXJXJXJXJXJXJXJXJX",
"JXJXJXJXJXJXJXJXJXJXJXJXJXJXJXJXDXJXJXMX} f k j g 9 9 g x a 9 5 5 5 a / g 6 q g j d 9 5 p h ,XGXJXJXJXJXJXJXJXGXJXJXJXJXJXJXJXJX",
"JXJXJXJXJXJXJXJXJXJXJXJXJXJXJXJXSXGXSXBX3.7.{ f g p 0 g g a 0 0 p a a g g d d a a g e e a g <XSXJXJXJXJXJXJXJXGXJXJXJXJXJXJXJXJX",
"JXJXJXJXJXJXJXJXJXJXJXJXJXJXJXJXSXJXSXJXSXFX,Xh h g g p 5 p g g h h p 5 p ) ) a 5 g ) ) p 9 <XSXNXNXSXGXJXJXJXJXJXJXJXJXJXJXJXJX",
"JXJXJXJXJXJXJXJXJXJXJXJXJXJXJXJXGXJXFXSXGXFX,Xj j h h 0 9 a g h k g g 0 d _ _ f e r _ _ d e 4.jXjXjXBXNXGXJXJXJXJXJXJXJXJXJXJXJX",
"JXJXJXJXJXJXJXJXJXJXJXJXJXJXJXJXJXJXJXJXJXSXMXfX6X9 5 9 9 6 5 7 9 s f ) ) ` ..o.&.o.O.R R ! W E Q Q O.7XFXJXFXJXFXSXGXJXJXJXJXGX",
"JXJXJXJXJXJXJXJXJXJXJXJXJXJXJXJXGXDXHXJXGXGXHXHXfXw 8 9 9 5 7 7 6 q f _ _ ` ..&.#.+.R Q R O.Y K U E @.7XJXJXFXHXJXJXGXAXGXGXSXGX",
"JXJXJXJXJXJXJXJXJXJXJXJXJXJXJXJXSXGXJXFXFXGXSXAXMX2.C t 7 0 r r / ( ..o.X.-.0.9.q.9.8.*.+.%.K < - H H ^ >.8XJXJXDXHXHXHXJXJXJXFX",
"JXJXJXJXJXJXJXJXJXJXJXJXJXJXJXJXJXHXHXFXFXJXJXSXJXGXHXZ 8 y R R #.$.$.#.=.q.q.4X7X4Xq.q.&.$.G + = : : : : >.JXNXFXFXFXFXLXDXGXAX",
"JXJXJXJXJXJXJXJXJXJXJXJXJXJXJXJXFXHXGXGXFXFXJXJXJXJXSX;.w r ..X.=.=.&.+.%.*.0.q.q.9.8.*.W K G - < L L G G ^ 5X5XNXSXGXFXGXGXGXHX",
"JXJXJXJXJXJXJXJXJXJXJXJXJXJXJXJXSXGXFXHXDXGXJXFXSXFXFX8.%...] { q.q.=.R O.%.$.%.%.$.$.+.- $ - U U Y Y U U J > ~ UXGXJXAXGXJXLXFX",
"JXJXJXJXJXJXJXJXJXJXJXJXJXJXJXJXDXGXMXBXZXZXFXDXFXNXjX8.#.X.[ [ 9.9.=.O.O.#.#.#.#.#.%.%.& @ < Y J K D W Q K > L dXgXDXJXJXGXGXGX",
"JXJXJXJXJXJXJXJXJXJXJXJXJXJXJXJXJX6X1.C N R.iXSXkX*.=.| [ ' o.! R &.+.#.#.O.R #.$.+.O.R * % F U D X . >XjX:X> : ; 1 ;XDXFXFXJXDX",
"JXJXJXJXJXJXJXJXSXHXFXFXHXFXSXGXJX6X] x b m iXGXjX&.#.| c | R R R R +.$.#.R R +.#.+.O.Y ; % > Y D     >XLX8X> : * % ;XSXJXJXSXSX",
"JXJXJXJXJXJXJXJXGXHXGXJXFXpXpXpXsXE.B N B B W.E.1X| ' ` X.X.' ..@.+.+.O.+.+.+.O.+.E J J F > F H - .   o -X4 * ; ; ; :.>.;XAXJXHX",
"JXJXJXJXJXJXJXJXFXLXFXSXIX}.`.$X&X#Xm m c ] B m M c ] X.$.X.c [ %.#.+.R O.#.#.O.O.U > F J U G > 2 .       O % * > > ; @ 1 BXJXFX",
"JXJXJXJXJXJXJXJXSXJXZXmXmX%X'.|.%X#Xb n l c u b N x ( X.o.X.[ ' %.#.+.R O.#.#.O.O.T > > U U H G - X X . . # * * : > * % 1 NXDXJX",
"JXJXJXJXJXJXJXJXFXDXpX'.}.OX&X[.^.U.g p n M u g h ) ) ( } ' o.O.O.O.+.#.+.O.O.+.#.Y > > U Y U U ^ F.F.~ K H , : > , & + 1 IXJXGX",
"JXJXJXJXJXJXJXJXGXGXpX`.{.%X&X[./.U.z g b m l f j ) _ ] ] ' R R R R +.$.#.R R +.$.Y > F J U T Y ^ wXwX:.U H , > > : & @ 3 BXJXDX",
"JXJXJXJXJXJXJXJXJXHXaXXXoX[.[.+X+X}.Y.U.B l 2.6X2X[ } d a / Y W +.O.+.+.+.+.+.+.+.R Y J - - G U T ~ ~ L G F , : & & ,.5X5XZXFXHX",
"JXJXJXJXJXJXJXJXFXJXyXM.d.Q._.OX&X$X].].z f 3XJXhX .x a 6 r Y U #.#.+.R O.$.#.O.R R O.E $ $ < U U T U G > : > : = + ;XSXJXJXGXSX",
"JXSXGXFXFXGXAXIXzXlXqXd.XXoX~.+X#X#X{. XB l 1XHXhX5.6.<.V [ P I R +.O.E R #.%.R Q Y R R < - , G G J J > ; , > , 3 ,.5XSXSXGXJXDX",
"FXGXGXJXJXHXJXIXB.y.s.(.).f.f.U.m R.*X*XT.m iXGXSXFXLXDXFX6Xr f P Y Y E R R R Y U Y R R U U > % * , > * % ; > L jXNXFXFXFXJXJXJX",
"HXDXGXJXJXHXCXCXB.u.s.^.~.d.d.Y.m R.&X*XT.m E.ZXMXFXFXSXGX6Xc c I Q Y O.@.! ! I I E R R U J > % * , : < 1 < L ~ UXJXHXDXHXHXJXFX",
"FXFXFXFXHXcXF.F.Z.k.i.h.s..X).|.!._.'.'.*X=X+X+X@XIXLXHXHXSXhXhXgXkX8...) e g r e A T Y G F F > , 1 :.;XdXgXgXjXNXSXGXGXGXGXJXFX",
"HXHXFXFXJXcXS.A.z.k.m.u.h.^.Q.Q.(._.`.].%X&X}.Q.+XFXGXJXGXHXFXJXJXHXw...) 9 i 9 6 A U U F : > , , 1 3 5XFXGXFXHXJXIXFXFXFXGXJXJX",
"JXJXFXJXJXcXJ.n.b.c.l.j.i..X.X_._._.{.}.}.OX[.!.}.aXsXZXAXJXFXJXFXFX6./ / p a r e / A S >.>.>.:X:X;X;XgXGXGXGXHXHXHXJXJXJXJXJXGX",
"FXJXGXHXJXnXv.b.v.c.z.k.z.N.f.[.'.{.*X*X].`.`.].'.OX&XmXAXJXGXHXGXFX2.9 9 k } ( ` / 9 t fXFXJXBXJXJXFXJXJXFXJXJXFXGXGXGXJXJXJXJX",
"JXJXGXDXIXuXv.c.v.b.c.k.l.N.f./.`.}.OXOX{.'.]._.].&X%XmXGXHXSXGXGXFX2.q s j h / ) } l V hXFXHXSXGXHXJXGXJXJXSXFXJXJXJXJXJXJXJXJX",
"FXDXHXyXeXL.c.v.H.A.J.c.G.N.f..XQ.^.^.^.%X&X}.`.].'.'.sXDXGXJXJXJXJX3.d g 0 s d f 3.MXBXSXGXJXJXJXJXJXJXJXJXJXJXJXJXJXJXJXJXJXJX",
"FXJXHXyX0XL.v.v.A.A.n.c.G.M.d.(././././.%X%X}.`.].`.`.sXJXGXFXGXGXSX4.k a q 5 g h 4.AXJXJXJXJXGXJXJXJXJXJXJXJXJXJXJXJXJXJXJXJXJX",
"HXGXGXVXzXuXK.K.D.A.P.uXyXg.p.d.XX~./.Q.{.{.'.].]._.^.sXHXJXJXSX2X5.{ p p d g 5.2XfXJXJXGXJXJXGXJXJXJXJXJXJXJXJXJXJXJXJXJXJXJXJX",
"HXGXSXJXJXcXS.A.A.A.tXGXvXa.e.g.N.XX/.Q._.].].].`./.(.sXFXJXGXAX1.] p 5 9 k } fXGXFXJXSXSXJXJXGXJXJXJXJXJXJXJXJXJXJXJXJXJXJXJXJX",
"FXJXGXJXHXcXI.I.H.A.tXHXvXp.i.g.g.s..X~._._.`.`.`.^./.sXFXFXJXAX,X6.2.2.<.7.3.hXSXJXJXJXJXJXJXJXJXJXJXJXJXJXJXJXJXJXJXJXJXJXJXJX",
"FXJXJXJXJXvXV.V.H.D.tXJXVXy.r.u.i.p.f.d./.Q._._._._._.sXHXJXJXGXFXJXSXSXGXFXAXFXJXJXJXGXJXJXJXJXJXJXJXJXJXJXJXJXJXJXJXJXJXJXJXJX",
"GXJXSXGXFXvXV.V.H.A.tXGXVXB.B.u.t.p.f.f.(./._.`._.(.(.xXJXFXFXFXFXSXNXJXHXJXJXJXHXJXJXGXSXSXGXFXJXJXJXJXJXJXJXJXJXJXJXJXJXJXJXJX",
"JXJXJXJXGXcXH.H.D.A.tXJXFXVXVXB.u.u.y.i.d.f..XQ./.d.d.zXJXJXHXJXSXGXGXJXFXAXJXHXSXGXJXJXJXHXJXJXJXJXJXJXJXJXJXJXJXJXJXJXJXJXJXJX",
"GXFXJXJXJXcXD.A.A.A.tXJXJXDXFXB.u.u.y.t.M.f..X^.~.f.N.xXGXSXJXJXJXJXJXJXJXJXJXJXJXJXJXJXJXJXJXJXJXJXJXJXJXJXJXJXJXJXJXJXJXJXJXJX",
"GXJXJXnXlXyXL.L.tXuXcXFXJXJXLXC.j.m.y.t.p.p.s.XXXXf.N.zXJXHXJXSXJXJXJXJXJXJXJXJXJXJXJXJXJXJXJXJXJXJXJXJXJXJXJXJXJXJXJXJXJXJXJXJX",
"SXJXHXyXeXrXV.0XCXJXSXFXAXGXHXC.x.j.u.u.u.y.a.f.d.g.f.zXJXJXFXDXJXJXJXJXJXJXJXJXJXJXJXJXJXJXJXJXJXJXJXJXJXJXJXJXJXJXJXJXJXJXJXJX",
"JXFXFXlXyXeXeXqXIXSXIXCXCXbXbXL.z.j.i.i.u.t.g.f.M.9X9XzXHXGXJXJXJXJXJXJXJXJXJXJXJXJXJXJXJXJXJXJXJXJXJXJXJXJXJXJXJXJXJXJXJXJXJXJX",
"JXLXGXLXDXDXDXDXFXJXnXeXrXP.S.b.v.c.l.l.m.y.u.e.B.VXZXJXGXGXJXJXJXJXJXJXJXJXJXJXJXJXJXJXJXJXJXJXJXJXJXJXJXJXJXJXJXJXJXJXJXJXJXJX",
"JXHXGXJXDXSXFXJXJXDXnXeXrXH.H.J.c.c.l.j.i.t.y.y.B.IXGXJXJXGXJXJXJXJXJXJXJXJXJXJXJXJXJXJXJXJXJXJXJXJXJXJXJXJXJXJXJXJXJXJXJXJXJXJX",
"GXHXGXJXHXJXFXLXFXLXIXVXnXS.H.b.v.c.k.l.j.m.0XlXlXGXHXDXJXSXGXJXJXJXJXJXJXJXJXJXJXJXJXJXJXJXJXJXJXJXJXJXJXJXJXJXJXJXJXJXJXJXJXJX",
"JXJXAXFXJXSXJXSXSXJXJXDXCXS.A.v.c.c.k.k.k.x.rXJXJXFXHXSXFXFXSXGXJXJXJXJXJXJXJXJXJXJXJXJXJXJXJXJXJXJXJXJXJXJXJXJXJXJXJXJXJXJXJXJX",
"JXJXJXJXJXJXJXJXJXFXCXuXtXI.H.G.n.b.z.z.V.rXuXDXJXJXJXJXJXJXJXJXJXJXJXJXJXJXJXJXJXJXJXJXJXJXJXJXJXJXJXJXJXJXJXJXJXJXJXJXJXJXJXJX",
"JXJXJXJXJXJXJXJXGXGXuXJ.J.G.J.H.D.n.v.G.CXAXFXFXJXJXJXJXJXJXJXJXJXJXJXJXJXJXJXJXJXJXJXJXJXJXJXJXJXJXJXJXJXJXJXJXJXJXJXJXJXJXJXJX",
"JXJXJXJXJXJXJXJXJXGXuXJ.K.G.J.A.D.K.G.G.CXSXJXJXJXJXJXJXJXJXJXJXJXJXJXJXJXJXJXJXJXJXJXJXJXJXJXJXJXJXJXJXJXJXJXJXJXJXJXJXJXJXJXJX",
"JXJXJXJXJXJXJXJXSXSXDXbXCXbXbXCXbXbXbXbXJXDXGXAXJXJXJXJXJXJXJXJXJXJXJXJXJXJXJXJXJXJXJXJXJXJXJXJXJXJXJXJXJXJXJXJXJXJXJXJXJXJXJXJX",
"JXJXJXJXJXJXJXJXJXFXFXGXHXHXGXFXJXSXGXJXJXJXHXJXJXJXJXJXJXJXJXJXJXJXJXJXJXJXJXJXJXJXJXJXJXJXJXJXJXJXJXJXJXJXJXJXJXJXJXJXJXJXJXJX",
"JXJXJXJXJXJXJXJXGXGXJXJXJXJXGXSXJXSXSXGXJXGXJXJXJXJXJXJXJXJXJXJXJXJXJXJXJXJXJXJXJXJXJXJXJXJXJXJXJXJXJXJXJXJXJXJXJXJXJXJXJXJXJXJX",
"JXJXJXJXJXJXJXJXFXHXHXFXFXFXDXHXHXJXGXFXJXJXGXJXJXJXJXJXJXJXJXJXJXJXJXJXJXJXJXJXJXJXJXJXJXJXJXJXJXJXJXJXJXJXJXJXJXJXJXJXJXJXJXJX",
"JXJXJXJXJXJXJXJXJXJXJXJXHXJXJXJXJXGXGXJXHXGXSXJXJXJXJXJXJXJXJXJXJXJXJXJXJXJXJXJXJXJXJXJXJXJXJXJXJXJXJXJXJXJXJXJXJXJXJXJXJXJXJXJX"
};
