/* XPM */
static char *_ba5608f09544b09bbbeab065ff7ac33CFXqPhUw7zAB8bUe[] = {
/* columns rows colors chars-per-pixel */
"64 64 234 2 ",
"   c #000101",
".  c #000E01",
"X  c #080208",
"o  c #1A0002",
"O  c #150106",
"+  c #001201",
"@  c #001903",
"#  c #081616",
"$  c #280000",
"%  c #39060F",
"&  c #002F0F",
"*  c #0C3733",
"=  c #11362F",
"-  c #2F2C34",
";  c #4F000E",
":  c #680000",
">  c #750000",
",  c #711428",
"<  c #6E2232",
"1  c #44242F",
"2  c #0D4C26",
"3  c #0D4A2C",
"4  c #114C28",
"5  c #1C5939",
"6  c #14562E",
"7  c #25513E",
"8  c #234C3C",
"9  c #17793B",
"0  c #116D37",
"q  c #1E3D42",
"w  c #573945",
"e  c #6E3948",
"r  c #2F4D4D",
"t  c #147743",
"y  c #286747",
"u  c #287547",
"i  c #1A5841",
"p  c #714C53",
"a  c #4D5E64",
"s  c #6C5564",
"d  c #486364",
"f  c #4C7468",
"g  c #547371",
"h  c #63636F",
"j  c #535851",
"k  c #890002",
"l  c #940111",
"z  c #A70216",
"x  c #B20019",
"c  c #971C2F",
"v  c #BA0627",
"b  c #B81C3B",
"n  c #AF152D",
"m  c #AD233C",
"M  c #C50929",
"N  c #D70A2C",
"B  c #D80D33",
"V  c #C91A37",
"C  c #DA1639",
"Z  c #CA0C30",
"A  c #E4062D",
"S  c #EB0C35",
"D  c #EC0D39",
"F  c #E50C34",
"G  c #F40D3A",
"H  c #F40C35",
"J  c #E41134",
"K  c #E3133B",
"L  c #EC133B",
"P  c #E41C3C",
"I  c #EC1639",
"U  c #F2133B",
"Y  c #F41135",
"T  c #C6213B",
"R  c #933E4B",
"E  c #AD3950",
"W  c #D51D40",
"Q  c #E71B42",
"!  c #F41443",
"~  c #D2304F",
"^  c #E82A4C",
"/  c #F13155",
"(  c #FC3E64",
")  c #8A4652",
"_  c #AF566A",
"`  c #AB5966",
"'  c #D7405F",
"]  c #D14C67",
"[  c #E85470",
"{  c #FD5879",
"}  c #E94666",
"|  c #CD6478",
" . c #F2617B",
".. c #0E823B",
"X. c #1B8647",
"o. c #1D9B55",
"O. c #158E4C",
"+. c #258449",
"@. c #298655",
"#. c #239A55",
"$. c #299D5A",
"%. c #279E5A",
"&. c #2D9054",
"*. c #1AA456",
"=. c #1CA34D",
"-. c #25A55A",
";. c #25B15B",
":. c #3A9A65",
">. c #2B9F62",
",. c #2BA863",
"<. c #39A865",
"1. c #449C68",
"2. c #519C70",
"3. c #46A96B",
"4. c #4DAB74",
"5. c #62AD78",
"6. c #80997B",
"7. c #CC7585",
"8. c #F96986",
"9. c #EB728F",
"0. c #F67488",
"q. c #F27B93",
"w. c #79989B",
"e. c #6D9694",
"r. c #76B393",
"t. c #7B9EA1",
"y. c #7BA0A0",
"u. c #73C187",
"i. c #8C8E95",
"p. c #86AD88",
"a. c #9DB2B7",
"s. c #8BACB2",
"d. c #A2B3B6",
"f. c #A4B2BA",
"g. c #ACB5BA",
"h. c #B5BDBE",
"j. c #BEBFBD",
"k. c #B2B1B9",
"l. c #ACB5AB",
"z. c #9598A7",
"x. c #FF8197",
"c. c #EB8B8D",
"v. c #FF9BA8",
"b. c #C1BEBE",
"n. c #C9BCBA",
"m. c #D3B6A4",
"M. c #FFADB6",
"N. c #F3ABAC",
"B. c #D19894",
"V. c #BEC1BD",
"C. c #B7C0BF",
"Z. c #ACCDB2",
"A. c #9EE1AE",
"S. c #8EC59D",
"D. c #C2C1BD",
"F. c #A6BBC5",
"G. c #B3BDC2",
"H. c #BDBEC1",
"J. c #BABAC5",
"K. c #96BFC5",
"L. c #C1BEC2",
"P. c #C0BECB",
"I. c #A9C1C7",
"U. c #B4C2C4",
"Y. c #BCC2C4",
"T. c #B1C3CA",
"R. c #BAC4CA",
"E. c #B9CED5",
"W. c #B6CDD7",
"Q. c #B6D0D6",
"!. c #B8D5DB",
"~. c #ADCDDA",
"^. c #BFD7E1",
"/. c #BDD9E1",
"(. c #BEDFF0",
"). c #BBE6F3",
"_. c #BEEBF5",
"`. c #BCE7FA",
"'. c #BEEDFD",
"]. c #BCF1FD",
"[. c #99C0C7",
"{. c #C1C1C3",
"}. c #C0C5CB",
"|. c #C2D6DD",
" X c #FFCBD4",
".X c #FFD6D9",
"XX c #F0D5CB",
"oX c #C5F8D1",
"OX c #FCF1DD",
"+X c #C2D6E2",
"@X c #C5DCE6",
"#X c #CCE9EE",
"$X c #C7E6EB",
"%X c #C2E4F4",
"&X c #CDE7F2",
"*X c #C3ECF6",
"=X c #CBE9F4",
"-X c #CCE8F4",
";X c #CAEBF6",
":X c #C3E6F9",
">X c #C1EAFB",
",X c #C6EBFB",
"<X c #C5EBF9",
"1X c #C5ECFB",
"2X c #C1EBFE",
"3X c #C5EBFE",
"4X c #C1ECFD",
"5X c #C3EDFD",
"6X c #C0EDFF",
"7X c #C2EDFF",
"8X c #C1EEFF",
"9X c #C3EEFF",
"0X c #C3EEFE",
"qX c #C1EEFD",
"wX c #C5EDFE",
"eX c #C2EDFE",
"rX c #CAEDFB",
"tX c #CFE4F9",
"yX c #D2EEFB",
"uX c #D1EAF1",
"iX c #C6F0FF",
"pX c #C5F1FF",
"aX c #CCF1FD",
"sX c #CCF5FA",
"dX c #D3F5FD",
"fX c #DAF4FF",
"gX c #D4FBFF",
"hX c #DAFCFF",
"jX c #D0F3F7",
"kX c #DDF1E7",
"lX c #E5FFE7",
"zX c #F8FCE7",
"xX c #E7FBFE",
"cX c #FFF9F4",
/* pixels */
"n.n.L.H.H.H.L.b.b.V.j.j.L.H.L.H.L.b.b.b.b.b.b.b.V.V.V.V.V.V.j.j.j.j.j.j.j.j.j.j.j.j.j.j.j.j.j.j.L.L.b.b.b.n.b.b.b.G.Y.Y.b.n.L.  ",
"n.b.H.J.R.R.{.{.V.V.Y.Y.H.H.Y.Y.H.Y.H.Y.Y.Y.Y.V.Y.Y.Y.Y.Y.Y.Y.Y.Y.Y.Y.Y.Y.Y.Y.Y.Y.Y.Y.Y.Y.Y.Y.Y.Y.Y.V.V.H.H.H.V.Y.U.U.Y.b.n.L.  ",
"D.j.U.T.T.G.G.G.U.U.T.T.T.T.T.T.T.T.T.T.T.T.T.T.T.T.T.T.T.T.T.T.T.T.T.T.T.T.T.T.T.T.T.T.T.T.T.T.T.T.T.T.T.T.U.U.T.T.I.R.j.D.Y.  ",
"V.Y.E.$X-X-X&XuX#X#X#X=X&X&X&X&X-X-X-X-X-X-X&X=X&X=X&X=X&X=X&X=X-X;X-X;X-X;X-X;X-X=X-X=X-X;X-X;X;X;X#X#X&X&X&X#XuX&X&X$XR.j.j.  ",
"Y.U.Q.rXrXrX<X<X*X*X*X*X<X1X*X*X<X3X3X<X<X<X<X1X<X1X<X1X3XwX3XwX<X1X<X1X<X1X<X1X<X1X<X1X<X1X<XwX3XwX*X1X3X3X<X*X*X;X<X=XR.j.V.  ",
"C.h.Q.1X4X9X9XwX9XpX9X9X9XwX9X9X9X9X9X9X9X9X9X9X9X9X9X9X9X9X9X9X9X9X9X9X9X9X9X9X9X9X9X9X9X9X9X9X9X9XpX9X9XwXwXwXwXwXwX;XR.H.j.  ",
"{.U.Q.rX>X9X4X9X'.'.'.'.4X4X9X'.'.'.'.'.'.'.'.'.9X9X9X9X9X9X9X9X9X9X9X9X9X9X9X9X9X9X9X9X9X9X9X9X4X'.'.'.4X4X4X9XwX4X9X-XR.L.j.  ",
"D.G.W.rX>XwX4X9X9X9X9X9XwXwX9X9X9X9X9X9X9X9X9X9X9X9X9X9XwX9XwX9X9X9X9X9X9X9X9X9X9X9X9X9X9X9X9X9XwX9X9X9X9XwX9X9X9X9XwXtXR.L.H.  ",
"D.j.E.;X<X4X9X9X'.'.9X9X3X3X9X9X9X*X9X9X9X9X9X9XiX9XwXwX>X>XwX9X>XwXwXwX9X>X>XwX9X9X9X9X9X9X9X9X3XwX*X9X9X9X9X9X9X9X9X;XR.L.j.  ",
"n.j.E.;X<X9X9X9X9X'.9X9X3X3X9X9X9X9X9X9X9X9X9X9X`.9XwX9XwXiXwX9X9X>X`.`.4XiXwX>X4X9X4X9X9X9X9X9XwX1X*X*X9X9X9X9X9X9X9X;XR.H.j.  ",
"D.j.E.;X*X'.9X9X9X9X9X9X9X9X*X*X9X9X9X9X9X'.9X9X9XiX4X`.9X9X4X9XiX9XiXiX9X`.4X9X9X9X9X9X9X9X9X9X1X*X*X*X9X9X'.'.'.9X'.*XR.Y.Y.  ",
"D.j.E.;X*X'.9X9X9X9X9X9X9X9X'.'.'.9X9X'.'.'.9X9X9X9X9XiXiX9X`.9X9X'.'.4X'.4X9XwX9X9X9X9X9X9X9X9X*X*X*X*X9X9X'.'.'.].'.*XR.Y.Y.  ",
"D.h.E.;X'.'.9X9X9X9X9X9X9X9X'.'.'.'.'.'.'.'.9X9X9X'.9X9X`.>XiXwX`.pXiXpX'.9X9X`.9X9X9X9X9X9X9X9X9X*X*X'.9X9X'.'.9XpX'.*XR.Y.Y.  ",
"{.h.Q.*X'.'.9X9X9X9X9X9X9X9X'.'.'.'.9X'.9X9X9X9X4X9XiX9X`.*X>X).4X'.`.'.wX9X>XpX9X9X9X9X9X9X9X9X9X9X*X9X9X9X'.'.9X9X*X;XR.Y.G.  ",
"{.G.Q.<X'.'.9X9X9X9X3X3X3X9X'.'.9X9X9X'.9X9X9X9XwXwX_._.aXsXsXgXsXaX9X`.iXwX`.9X9X9X9X9X9X9X9XwX9X9X'.9X9X9X9X9XwXwX*X-XR.H.H.  ",
"{.G.Q.<X9X'.9X9X9X9X3X3X3X9X9X'.9X9X9X9X9X9X9X9X`.iX>X1X;XF.w.w.w.~.aX*X*XwX*X9X9X9X9X9X9X*X*XwX9X9X'.9X4X4X9X9X3XwXwX-XR.L.H.  ",
"{.G.Q.<X4X9X4X9X9X9X9X9X3X4X9X9XwXwX9X9X3XwX9X9X9X'.9X%XxXi.      G.xX=X*XwXwX4X3X9X'.'.].'.1X3X4X9X9X9X9X9X9X9X9X9X9X;XR.H.H.  ",
"{.h.Q.<X3X4X3X4X9X9X9X9X9X4X9X9X4X9X9X9XwXwXwXwX'.'.aXW.h p ) ) p s h $X*X*X>X3X9X9X'.'.].9X3X3X4X9X9X9X9X9X*X*X9X9X9X;XR.j.H.  ",
"{.h.Q.<X3X4X3X9X9X9X9X9X9X9X9X9X9X'.].].*X*X*X*X9X%XfXJ.o < 0.8.9.; O kXdX*X4XaX9X'.'.9X9X3X3X3X3X9X9X9X9X9X9X*X9X9X9X;XR.j.H.  ",
"{.h.Q.<X3X4X3X9X9X'.9X9X9X9X9X9XwX9X].].'.'.*X*XiX$Xr w ` E ^ Q ~ ] ` - a dX<X4X9X9X9X*X<X3X3X3X9X9X9X9X9X9X9X9X9X9X9X;XR.j.H.  ",
"{.h.E.<X4X9X3X9X9X'.'.9X9X9X9X9XwX9X'.'.].].9X'.pX!.  % q./ K D C [ 7.o - yX;XrX3X1X*X*X1X9X'.'.'.9X9X9X9X9X*X9X9X9X9X;XR.j.H.  ",
"{.h.Q.<X4X9X3X9X9X'.'.9X9X9X9X9XwX3X9X9X'.'.>X*XsX$XO ; 8.( K K F { | $ - xXyX%X<X1X*X*X1X9X].].'.9X9X9X9X9X9X9X9X9X9X;XR.j.H.  ",
"{.h.Q.<X3X9X3X9X9X9X'.9X4X4X9X9X9XwX9X9X4X3X3XtXQ.k.% , { / v V J ( } ; w P.W.aX<X9X'.'.3XwX'.].9X9X9X9X9X9X*X*X9X9X9X;XR.j.H.  ",
"{.h.Q.<X3X9X3X9X9X9X9X9X4X4X9X9X9X9X9X'.4X3XyXxX- o 7. .W x > z K F W 8._ o h xX1X'.'.9X3X3X9X'.9X9X9X9X9X9X*X*X9X9X9X;XR.j.H.  ",
"{.h.Q.<X3X9X3X9X9X'.'.9X9X9X9X9X9XpX'.].'.aXF.i.e , } / C M k M I S K } ~ , s z.~.9X9XwX3XrXwX9X9X9X'.9X9X9X*X*X9X9X'.;XR.j.H.  ",
"{.h.Q.<X3X9X3X9X9X'.9X9X9X9X9X9XiX`.].].).gXr O _  .C F I P P C K I P Z ~ 9.e X w.gX`.9XrX3X:XwX9X9X'.9X9X9X*X*X9X9X'.;XR.j.H.  ",
"{.h.E.<X3X9X3XwX9X'.'.9X9X9X9X9XwX3X9XpX_.jXa o _ { Q D F L S K C z z V T 8.R O w.gX`.wX`.wX3XiX9X9X'.9X9X9X*X*X9X9X'.;XR.j.H.  ",
"{.h.E.<X3X9X3XwX9X'.'.9X9X9X9X9X<XaX>X_.*XxXs $ ] { F S U K L K C k > V ^ { E $ z.dX*X>XwXiX>XwX9X9X'.9X9X9X*X*X9X9X9X;XR.j.H.  ",
"{.h.Q.<X3X9X3X9X9X9X9X9X9X4X9X9XwX4X9XdXs.- ) ] ~ ^ ! S L v > n C N M J J ^ ~ _ p - W.dX).pX9X4X9X9X9X9X9X9X9X9X9X9X9X;XR.j.H.  ",
"{.h.Q.<X3X9X3X9X9X9X9X9X9X9X9X9X'.aX).dXi.$ E { Q A G G L x : z Q H Y Y H F ^ 8., $ k.&X*X*X9XiX9X9X9X9X9X9X9X9X9X9X9X;XR.j.H.  ",
"{.h.W.<X3X9X3X9X9X9X9X9X4X9X9X9X>XaXI.# w | ~ P U Y Y H Y A B B S H H H Y Y U C ' | 1 - /.1X9X9X9X9X9X9X4X4X9X9X9X9X9X;XR.j.H.  ",
"{.h.E.<X9X9X9X9X9X9X9X9X9X9X9X*X>XdXa.X < 0.^ A H Y N N Y G U L S U J N B L S D ( 0.% X /.1XwX'.9X9X9X9X4X4X*X*X9X9X9X;XR.j.H.  ",
"D.h.E.;X9X'.'.'.9X`.9XiX9X>XrX<X%XhXG.O < 0./ S G B : : Q G G D L Q V : k W A S ( 0.$   #XdX<X3X9XwX9X9X9X4XwX9X4X9X9X;XY.j.j.  ",
"D.h.E.;X9X'.'.'.4X9XiX`.4XsX%X1X).s.i.w ) [ ^ K ! B > l C G L N M Z V k l C Q J / ] p j w.K.%X:XwX9X'.9X9X4XwX9X4X9X9X;XY.j.j.  ",
"D.h.E.;X9X'.'.9XiX`.9XiX4X>X1XgX;X. = cXN.c n Z C P Q C L S P k : n Q ! D K B M v c .XxX. = dXhXwX>X'.9X9X4X9X9X9X9X9X;XY.j.j.  ",
"D.h.E.;X9X'.'.9X9X9X`.iX4X3XrXe.g 7 y Z.B.B.c.0.~ B K L H S C x l n J G ! C ' x.q.B.l.S.5 y g s.aX>X'.9X4X9X9X9X9X9X9X;XY.j.j.  ",
"V.h.E.;X9X'.9X9X9XiX4X4X3XwX<X* + 2.3.+.S.zXzXzX` n v N D G J P I K P v M c 7.cXcXzX5.&.4.@.. d dX>X9X9X4X9X*X9X9X9X9X;XY.j.j.  ",
"V.h.E.;X9X'.9X9X9X*XwX>XwX*X<X* @ &.-.-.3.5.u.p.m.N.M.x.Z K B N B C T v.M.N.l.p.r.r.<.%.,.@.. a gX`.9X9X4XwX*X9X9X9X9X;XY.j.j.  ",
"V.h.E.rX9X'.9X9X>X<XrX:XwXwXaX* @ 1.-.,.#.#.%.&.oXzXzXXXm b b b b m R cXzXzXA.+.#.#.-.-.<.@.. g gX`.'.9X4XwX9X9X9X9X'.;XY.j.j.  ",
"V.h.E.rX9X'.9X9XwX<X3XwX3X>XaX* + u X...o.,.-.-.3.5.2.p..X X X X X.XXX6.5.4.<.-.;.-.X.X.+.y . d gX).'.wX4XwX9X9X9X9X'.;XY.j.j.  ",
"Y.h.E.rX9X'.9X9X*XwX>X`.aX<XrXr & y y 0 X.o.-.-.#.$.$.4.lXlXlXlXlXlXoX1.%.*.=.=.=.-.9 5 y i # g sXiX'.9XwXwX9X9X9X9X9X;XY.j.j.  ",
"Y.h.E.rX9X'.9X9XwX>XaXwXwX>X*X$XQ.@ + + & @.X...-.-.-.%.3.:.1.:.:.:.4.>.*.,.-.....X.@ + + * $X$XiX9X'.9XwXwX9X9X9X9X9X;XY.j.j.  ",
"Y.h.E.rX9X'.'.9X>XwXwXwX4XiX<XdX@Xr r 8 i 5 6 0 O.*.o.o.o.#.#.#.o.o.o.o.*.o.+.6 6 5 8 r q g sX_.*X9X'.9XwXwX9X9X9X9X9X;XY.j.j.  ",
"Y.h.E.<X*X'.9X9XwX9X`.iX9X`.aX(.tXfXdXhXe.. . + 0 X.9 9 X.X.9 X.....t X.X.X.2 + + . I.fXhXrX'.].'.*X'.9XwX9X9X9X9X9X9X;XY.j.j.  ",
"Y.h.E.rX9X'.9X9X9X9XiX'.9X'.9XiX3X3X`.sXs.f f f 5 2 4 4 2 2 2 4 2 2 4 3 3 3 7 g g d !.sX`.9X'.pX9X9X9X9X4X4X9X9X9X9X'.;XY.j.j.  ",
"Y.h.E.rX9X'.9X9X9X9XiX'.'.pX'.'.'.'.pX9XsXhXhXhX= . . . . . + . + . . . + . d xXfXhXwXpX`.pX'.`.9XwX9X9X4X9X9X9X9X9X9X;XY.j.j.  ",
"Y.h.E.rX9X'.9X'.iX`.4XiX'.'.9XiXwX`.'.pX:X%XrX%Xs.t.t.w.y.w.w.y.y.w.y.w.w.w.[.1X>X`.iX`.wX`.iXpX9X9X9X9X4XwXwX9X9X9X9X;XY.j.j.  ",
"Y.G.E.<X4X'.9X9XiX>XaX'.'.pX'.9XwX9X'.'.rXrX:XrXdXaXgXdXdXgXdXgXdXhXdXgXgXdXsX`.'.9X9X>XiXwX`.9X9X9X9X'.9XwX9X9X9X9X9X;XR.j.j.  ",
"{.G.W.<X'.'.9X9XwX3X3X3X9X9X9X9X4X4X9X9X9X3X3X3X>X>X>X>X>X*X>X>X>X>X>X>X>X*X>X`.9X9X9X9X9X9X4X9X9X9X'.'.9X9X9X9X9X9X9X;XR.H.H.  ",
"{.G.W.<X'.'.9X9X3X3X3X3X9X9X9X9X9X9X9X9X9X9X9X9X9X9X9X9X9X9X4X9X9X9X9X9X9X9X9X9X9X9X9X9X9X9X4X9X9X'.'.'.9X9X9X9X9XwX*X;XR.H.H.  ",
"{.h.E.;X9X'.9X9X3X3X3X3X9X9X9X9X9X9X9X9X9X9X9X'.9X9X9X9X9X9X9X9X9X9X9X9X9X9X9X9X9X9X9X9X9X9X9X9X9X9X9X9X9X9X9X9X9XwX*X;XR.H.H.  ",
"D.h.E.;X*X'.9X9X1X3X3X3X9X9X9X*X9X9X9X9X9X9X9X'.'.'.'.'.'.'.'.'.'.'.'.'.'.'.'.'.9X9X9X9X'.9X9X9X3X3X9X9X9X4X9X9X9X9X*X;XR.H.j.  ",
"D.j.E.;X*X'.'.9X*XwX3X9X9X9X*X*X9X9X9X9X9X9X9X9X9X9X9X9X9X9X9X9X9X9X9X9X9X9X9X9X9X9X9X9X9X9X9X9X3X3XwX9X3X4X9X9X9XwX*X;XR.H.j.  ",
"D.j.E.;X*X'.'.9X9X9X9X9X9X9X*X1X9X9X9X9X9X9X9X9X9X9X9X9X9X9X9X9X9X9X9X9X9X9X9X9X9X9X9X9X9X9X9X9X3X3X9X9X4X4X9X9X9X9X9X;XR.V.j.  ",
"D.h.E.;X*X'.'.'.9X'.9X9X9X9X9X*X4X4X4X4X9X9X9X9X4X4X4X4X4X4X4X4X4X4X4X4X4X4X4X4X9X9X4X4X4X4X9X9X3X9X9X9X4X4X'.'.9X9X9X;XR.V.j.  ",
"D.h.E.;X9X'.'.'.9X9X'.'.'.9X9X9X9X4X4X4X9X9X9X9X9X9X9X4X4X4X9X9X4X4X9X9X9X9X9X9X9X4X4X4X4X4X9X9X9X9X9X'.4X'.'.'.9X9X9X;XR.H.j.  ",
"V.U.E.;X`.pX'.'.9X9X'.'.'.9X9X9X9X9X4X4X9X9X9X9X9X9X9X9X9X9X9X9X4X4X4X4X9X9X9X9X9X9X9X9X9X9X9X9X9X'.'.'.9X9X9X'.9X9X9X;XR.H.j.  ",
"V.h.E.dXwX9X'.'.9X9X9X9X9X9XwXwX9X9X9X9X9X9X9X9X9X9X9X9X9X9X9X9X9X9X9X9X9X9X9X9X9X9X9X9X9X9X9X9X9X9X'.'.9X9X9X9XwX9X4X;XR.H.j.  ",
"}.G.W.yX3X4X>XrX<X<X>X4X4X>X<X<X>X>X>X>X>X>X>X>X>X>X>X>X>X>X>X>X>X>X>X>X>X>X>X>X>X>X>X>X>X>X>X>X>X*X*X*X>X4X<X<XwX<X1X-XR.H.j.  ",
"j.h.E.yXyXrXtXyXyXyXrXrXrXrXyXyXrXaXaXaXaXaXaXaXrXaXrXaXaXaXaXaXaXaXaXaXaXaXaXaXrXaXrXaXaXaXaXaXaXaXjXjXrXyXyXyX;X;X;X&X}.j.j.  ",
"{.Y.R.+X+X+X^.|.|.|.!.^.^.^.+X+X^././././././././././././././././././././././././././././././././.!.!.!.+X+X|.|.+X+X/.|.{.b.j.  ",
"D.j.g.f.f.f.f.f.d.d.d.d.f.f.f.d.d.d.d.d.d.d.d.d.d.d.d.d.d.d.d.d.d.d.d.d.d.d.d.d.d.d.d.d.d.d.d.f.f.f.d.d.f.f.d.d.d.a.a.g.h.n.{.  ",
"D.{.Y.R.R.R.Y.j.V.V.Y.Y.Y.Y.Y.Y.Y.Y.Y.Y.Y.Y.Y.Y.Y.Y.Y.Y.Y.Y.Y.Y.Y.Y.Y.Y.Y.Y.Y.Y.Y.Y.Y.Y.Y.Y.Y.Y.R.R.Y.Y.{.{.{.Y.}.Y.T.U.L.D.j.  ",
"n.b.H.G.R.Y.Y.V.b.V.V.V.Y.Y.H.H.b.b.b.b.b.b.b.b.b.b.b.b.b.b.b.b.b.b.b.b.b.b.b.b.b.b.b.b.b.b.b.H.H.H.V.j.L.L.b.b.j.Y.U.U.j.b.D.  "
};
