/* XPM */
static char *_70bf4fe48f34314dcbb209217dde300BvvBmdwJMd0ejnUf[] = {
/* columns rows colors chars-per-pixel */
"64 64 248 2 ",
"   c #030302",
".  c #0B0301",
"X  c #0B0B03",
"o  c #03040A",
"O  c #0A060B",
"+  c #0C0C0C",
"@  c #060905",
"#  c #130200",
"$  c #130B00",
"%  c #1A0C01",
"&  c #130B08",
"*  c #0C1005",
"=  c #0E110C",
"-  c #13140C",
";  c #181406",
":  c #0D0D12",
">  c #070713",
",  c #110E14",
"<  c #100D18",
"1  c #0F1116",
"2  c #131413",
"3  c #161914",
"4  c #1A1B15",
"5  c #15151A",
"6  c #1B1B1B",
"7  c #191719",
"8  c #251B06",
"9  c #281B13",
"0  c #1E221B",
"q  c #272105",
"w  c #392B05",
"e  c #3B3508",
"r  c #22231C",
"t  c #262417",
"y  c #3B3712",
"u  c #1B1923",
"i  c #0E1122",
"p  c #211E23",
"a  c #1D2028",
"s  c #232323",
"d  c #262923",
"f  c #2B2A2A",
"g  c #272729",
"h  c #383838",
"j  c #2B272A",
"k  c #4B3501",
"l  c #443B01",
"z  c #4A3D03",
"x  c #463804",
"c  c #523B04",
"v  c #453611",
"b  c #4A4404",
"n  c #544B11",
"m  c #665505",
"M  c #6A5814",
"N  c #6E560F",
"B  c #6F6412",
"V  c #524D35",
"C  c #675726",
"Z  c #7D7729",
"A  c #7A7637",
"S  c #73692D",
"D  c #454545",
"F  c #514D49",
"G  c #58584A",
"H  c #575758",
"J  c #474A53",
"K  c #605A4F",
"L  c #656359",
"P  c #77704F",
"I  c #696868",
"U  c #797876",
"Y  c #74726D",
"T  c #866C00",
"R  c #887700",
"E  c #817619",
"W  c #846F16",
"Q  c #887B35",
"!  c #8D7C41",
"~  c #837E58",
"^  c #837D74",
"/  c #898301",
"(  c #8B8419",
")  c #9B8722",
"_  c #818127",
"`  c #A6972F",
"'  c #B4A33B",
"]  c #DDBB02",
"[  c #DAB909",
"{  c #D9BA13",
"}  c #E4BC04",
"|  c #EABD05",
" . c #E4BC0A",
".. c #EABE0B",
"X. c #E0B709",
"o. c #E7BD11",
"O. c #CCB329",
"+. c #CDB52B",
"@. c #DACE03",
"#. c #DCD303",
"$. c #DAD308",
"%. c #DDCE16",
"&. c #E5C303",
"*. c #EBC304",
"=. c #E4CC01",
"-. c #EBCB03",
";. c #E5C20A",
":. c #ECC30C",
">. c #ECCA0C",
",. c #E7CA0C",
"<. c #F1CB05",
"1. c #F2C50C",
"2. c #F3CB0D",
"3. c #F6C809",
"4. c #E3D404",
"5. c #EBD304",
"6. c #E5D905",
"7. c #EBDB06",
"8. c #E3D50B",
"9. c #ECD30C",
"0. c #E5DB0B",
"q. c #ECDC0B",
"w. c #F3D40C",
"e. c #F2DE0C",
"r. c #F3D205",
"t. c #ECC413",
"y. c #EDCA13",
"u. c #EDC419",
"i. c #E6C719",
"p. c #F2C513",
"a. c #F4CB13",
"s. c #FACD13",
"d. c #F1C518",
"f. c #F4CC1A",
"g. c #F9CE1C",
"h. c #ECDD13",
"j. c #E8D815",
"k. c #F2D312",
"l. c #F4DC13",
"z. c #F3D31A",
"x. c #FAD11C",
"c. c #F7D718",
"v. c #EDE10C",
"b. c #E5E10C",
"n. c #F3E30D",
"m. c #F6E50B",
"M. c #ECE213",
"N. c #EBE415",
"B. c #F3E313",
"V. c #FAE413",
"C. c #F5E914",
"Z. c #F9EA15",
"A. c #F4E41B",
"S. c #FAE51B",
"D. c #F4EA1B",
"F. c #FBEA1B",
"G. c #F6F01D",
"H. c #D7C533",
"J. c #D0C52E",
"K. c #E8CB26",
"L. c #F5CE23",
"P. c #F8C921",
"I. c #E9DA26",
"U. c #F6D325",
"Y. c #E5C93A",
"T. c #EBD839",
"R. c #F5D638",
"E. c #EBE326",
"W. c #F4E422",
"Q. c #FCE422",
"!. c #F5ED24",
"~. c #FAE828",
"^. c #F9ED33",
"/. c #F8F13C",
"(. c #EBE636",
"). c #94894A",
"_. c #B9A544",
"`. c #8D847B",
"'. c #D4BE58",
"]. c #E8CC44",
"[. c #EBD148",
"{. c #F3D64A",
"}. c #F3D852",
"|. c #EBCD51",
" X c #EDE449",
".X c #F4EA4C",
"XX c #F4E847",
"oX c #F7EC54",
"OX c #FBF150",
"+X c #DBD264",
"@X c #F2DC73",
"#X c #F7E876",
"$X c #F9F178",
"%X c #D6CB5F",
"&X c #888887",
"*X c #92958D",
"=X c #989689",
"-X c #989895",
";X c #90918D",
":X c #A7A7A8",
">X c #B8B8B8",
",X c #A5A8B1",
"<X c #A19C95",
"1X c #C0BFBB",
"2X c #C7C8BA",
"3X c #CFD1BB",
"4X c #BDBEC0",
"5X c #C6C6C7",
"6X c #D5D5D5",
"7X c #DCDCDC",
"8X c #D8D9D7",
"9X c #D1D4D2",
"0X c #DDE1DC",
"qX c #D6E2D7",
"wX c #E2E3DD",
"eX c #E7E9DF",
"rX c #DDDCE3",
"tX c #DDD7E1",
"yX c #CFD2E5",
"uX c #E2DEE5",
"iX c #E8DFEA",
"pX c #DFE2E1",
"aX c #E4E4E4",
"sX c #E6EAE5",
"dX c #EAEBE6",
"fX c #E5E4EA",
"gX c #EAE5EB",
"hX c #EBEBEC",
"jX c #E7E8E9",
"kX c #F1EDEB",
"lX c #EEF1ED",
"zX c #E7F2E7",
"xX c #F2F2EE",
"cX c #FBFBEE",
"vX c #EDEDF2",
"bX c #E8E9F6",
"nX c #F2EEF3",
"mX c #F5EFFA",
"MX c #EEF1F2",
"NX c #E7F1F0",
"BX c #F3F3F3",
"VX c #F5FAF5",
"CX c #FCFDF4",
"ZX c #F6F5FA",
"AX c #FAF6FC",
"SX c #F6FAFD",
"DX c #FDFDFD",
"FX c #F8F6F6",
/* pixels */
"a.>.k.S.v.C.v.C.q.S.q.B.v.C.b.M.M.B.B.m.m.n.B.v.Z.7.F.q.F.q.n.m.r.<.1.g.:.s.3.s.1.1.1.s.*.1.a.p.a.:.w.-.2.*.g.*.s.1.s...a.t.p.a.",
"y.>.k.l.7.n.q.C.8.A.q.B.q.B.0.M.D.4.B.6.B.q.v.6.n.7.v.q.B.q.q.e.-.*.1.p...p.*.2.} p.:.*.1.s.} t.t...2.&.-.&.f. .:.| a.} p.*.:.>.",
":.;.;.,.-.n.7.q.$.W.8.v.6.v.8.j.0.b.N.N.h.#.D.#.v.6.M.8.A.8.h.9.:.:. .d.X.d. .u. .y.] :. .;.:.t.d.o.t.;.:. .f. .p...a.} t.;.>.l.",
"x.a.y.k.w.F.n.F.j.!.M.D.n.F.c.Q.h.M.A.N.D.N.E.E.XX XoX XoX X.X.X[.{.Y.{.].[.[.{.K.U.i.z.t.x.u.d.g.p.f.p.f.t.L.t.x.:.s.*.k.9.l.F.",
"} } } *.&.-.=.B.#.h.#.0.4.e.5.k.c.y.B.4.6.@.(./ b b z n b b b b b z z x n k c w T Y.{ ] ] ;.X.p.:.} :. .t.X.u.[ t.] *.&.r.5.5.q.",
"s.2.p.a.*.w.w.F.q.F.M.C.B.F.l.V.U.z.~.^./..X$Xm .                   X     . $ . M #X].{.R.L.f.p.2.:.s.2.f.t.L.t.a.:.w.5.V.m.m.C.",
"2.*.| :.} >.-.9.=.n.6.q.6.q.5.e.7.8.T.R B B C ~ =X=X-X;X-X*X-X*X*X*X*X*X*X<XF $ v C M m T Y.[ &.-.&.*.} t. .p. .-.&.w.=.e.7.7.n.",
"a.1.f.g.:.a.>.>.9.S.n.Z.v.A.W.^.^.XX$Xq . . . U CXcXCXVXDXDXDXDXDXDXDXDXZXAXI   ; . % # k @X[.R.U.y.z.y.a.:.g.:.9.9.F.h.F.B.n.m.",
"*. . .u.X.t.X.:.} 2.=.7.$.I.J./ ( _ A P P Y L :XdX8X0X8XgX8XiXuXiXuX7XaX6XxX;XI F 2 j 8 e S Z E T O.i.] *.} t.] 9.@.q.$.j.8.8.e.",
"a.a.d.U.u.L.d.g.t.p.9.~.E.OX+XX X   @ 2XDXDXSXSXDXxXDXdXDXZXmXAXDXAXZXDXxXCXCXDX&Xo : @ @   . . # '.}.K.f.;.U.z.Q.B.G.N.!.W.S.Q.",
"*.&. .u.X.d. .:.} a.] I.J.) ).V G G F 2XsXrXbXyXvX7XdX8XhXaXfXaX0X0X0XjX9XzXqXlX-XJ J 5 r 3 r 8 8 ! ) O.i.] ,.=.h.#.b.#.0.8.9.k.",
"<.-.t.f.o.g.:.a.*.U.i.[.' . @ CXDXDXDXdXDXjXSXbXSXMXDXlXDXlXxXBXVXDXsXDXsXCXzXVXfXDX,X  2 @ 5 = ; $ # ' }.K.~.h.D.M.D.b.D.B.V.S.",
"-.-.;.y. .f.*.>.;.K.O.' ).y V 0XjXaXlXsXxXaXBXaXVXaXBX7XxXdXaXhXgXgXaXBXwXdXhXBXrXDX;Xo s @ u : - 8 % )._.+.(.#.N.6.N.0.M.6.7.v.",
"w.-.t.f...a.*.a.i.}.) $ w CXBXSXZXBXZXxXBXaXDXaXDXhXDXdXDXkXDXBXAXAXxXBXkXDXkXDXaXSX-X  + @ 5 O O X . % . ` OXI.D.b.D.h.D.q.n.m.",
">.;. .d.} :.} i.O.'.Q . V BXfXfXdXaXvXaXBXwXxXwXBXaXBXrXBXaX6XrX7X8XaXvXrXZXgXBX7XDX-X@ s 2 3 3 7 7 - 8 X ).+XH.E.6.v.4.B.0.6.v.",
"f.t.u.L.*.2.:.R.R # C CXuXAXfXBXlXdXZXBXhXdXCXwXFXfXDXaXDX5X  : +   5XDXfXAXgXZXwXCXaXVX4X  3 = : 7 + - $ q $ R ^.v.C.9.W.h.q.n.",
"f.u.o.L.*.a.:.R.W # V DXbXmXhXlXhXdXZXhXVXsXVXaXVXgXBXfXAX>XO 2 + @ >XDXgXBXhXVXaXVX7XDX5X  4 = + 2 + : @ t @ ( /.6.S.z.W.h.q.n.",
"1.:.t.i.] :.[ [.Q . L DXrXAXaXdXdXaXBXsXhX7XBX7XnXsXDX,X  s 2 2 7 2 s   ,XDXsXhX8XVX7XBX>X@ 6 2 4 7 2 6 2 r   Z .X8.c.j.j.8.7.V.",
"a.x.y.f.y.U.Y.@XS . F DXdXVXMXZXVXhXDXBXDXdXDXdXDXdXDX>X  7 O + O @ 2   >XDXdXDXhXDXsXDX5X@ 2 O O 2   =   3 X A $XT.~.7.D.N.n.m.",
"s.] ;.y.] R.T 8 P 9X1XvXdXxXaXhXhXsXBXsXhXaXVX7XVXaXVX>X@ 6 2 2 2 2 6 O >XDXaXVX7XBXaXFX4X  6 7 , 6 * 4 = 0   e w R ^.#.N.0.7.m.",
"2.a.:.z.;.R.N # P DXhXDXkXDXdXVXBXhXDXhXDXdXDXdXDXhXDX,X  O 2 + + 2 O   >XDXhXDXdXDXdXDX5X  2 O : 5   X @ 6   ; . m OX8.D.N.B.m.",
"*.&.X.t.[ [.M # Y SX8XbXuXhX7X0XaX7XhXaXdX7XhX7XhX7XBX5X:X&X2 s 7 2 &X-X5XBX7XdX7XhX7XsX>XO s 6 6 s 3 0 5 a 1 d % M  X%.0.0.7.5.",
"s.:.f.K.Y.#XC . I DXbXSXAXAXCXCXVXBXDXVXDXhXDXhXDXVXDXBXDX8X      @ 8XDXBXDXVXDXdXDXVXDX6XO   @ X X   @ > i o 2   S #X(.!.b.Z.F.",
"*.*.] K.R m P ^ :XSX6XfXuXfX7XwXwX7XdX7XdX7XhX8XdX7XdX7XsX5XU &X&XU 5XsX7XhX7XdX8XVX>XH L + s 6 4 t 3 0 i a 5 d ; e B R E.#.6.q.",
"2.:.y.{.k . =XDXhXDXNXSXBXDXBXVXVXBXDXBXDXhXDXdXDXBXDXhXDXVXDXDXDXDXhXDXsXDXhXDXdXDX-X  @   2 @ O ,   + o 5   2   $ . x .Xq.B.Z.",
"3.*. .Y.z . =XAX7XxXqXzXwXhXaXhXdXaXBXsXhX7XBX7XBXaXhX7XhXaXsXsXaXsXaXhXsXhXaXhX6XDX-X  s 2 7 7 7 u 2 6 = 0 + r + 4 $ z .X4.7.v.",
"s.1.y.}.x   -XAXdXDXzXVXxXDXnXAXFXBXDXBXDXhXDXdXDXBXDXhXDXBXVXVXVXDXhXDXhXDXBXDXBXDX:X  O   + O @ =   +   -   - @ -   l OXM.B.Z.",
":.:.[ Y.b . ;XAX6XdX8XzXwXhXuXfXsX7XhXrXdX7XhX8XhX7XdX7XdXaXsXsXaXsXaXhX7XdX7XvX>X>XU O s 2 s 2 4 r 2 6 2 d - d + 0 $ b XX#.4.q.",
"a.p.f.}.l   -XDXgXDXdXVXxXAXnXVXVXBXDXBXAXhXDXdXDXvXSXhXDXnXVXVXDXBXBXDXBXDXVXDX&X  2 @ +   - + @ =   +   2   2 o =   l .XB.V.S.",
":.:. .].b @ *XDXtXnX0XlXaXnXaXdXdXaXnXaXhX7XBX7XhXaXBXaXnXsXdXdXaXhXuXBX5X5X5X7XY   s : 5 2 7 7 7 6 2 6 2 s : s > 6 X b XX4.q.B.",
"-.*.:.{.x   *XDXuXAXaXBXhXFXhXMXhXdXVXdXVXsXDXaXVXdXFXgXVXdXhXhXFXhXdXDXh   +   2 O 2 + 6 @ 2 + : 3 O 2 + 6 O p O 3   b XXq.q.n.",
"5.&.*.{.z   -XDXuXAXsXBXgXFXhXMXhXdXVXdXVXsXDXaXVXdXVXaXdX7XaXsXaXdX7XVXD   7 + 6   6 O + + 2 + = 2 @ 2 O 7 O 6 O 3   b XX7.e.n.",
"m.e.9..Xb   *XDXuXAXgXBXhXVXhXBXBXdXDXhXVXsXDXaXVXdXDX,X  s 2 2 2 2 7 + 6 @ 2 @ 7 @ 7 O 2 O 2 + + 2 @ - @ 7 O u @ 3 @ x T.&.-.r.",
"n.q.q..Xl   *XDXuXAXgXBXdXVXhXBXBXdXDXaXDXdXVXdXDXdXSX>X  + 2 O + + 2 @ 7 @ 2 O 7 @ 7 O 2 O 2 + : 2 @ 2 @ 7 O u @ -   l [.*.*.<.",
"q.q.8..Xn X *XDX7XBXuXhXaXlXaXhXfXaXdXhXvX8XDXY 7 h f h + 6 2 6 2 2 6 2 s + 6 2 s + s 2 6 2 6 7 7 u - 6 2 s , s + 0 & z [. .*.2.",
"F.B.N.oXl   -XDXsXDXhXDXMXDXnXZXFXhXDXhXVXdXDXY   O   2 @ 2 O   O O 2 @ 2   2   2   2 @ +   2 O O 2 @ = @ 2   2   =   x [.y.p.f.",
"q.q.@. Xn . *XVX8XhX7XdXpXhXrXfXsX7XhX7XDXY f h 2 s 2 s 2 6 7 6 7 7 s 2 s 2 s 2 s 2 s 2 6 2 s 7 6 s - 0 2 d - t * r % c ]. .} 1.",
"Z.B.N.oXz   -XCXdXDXhXDXBXDXnXFXVXBXDXBXDXF   7   +   2   2 @ @ O O =   2   +   2   2   +   + O O ,   X   =   -   & . k [.y.p.f.",
"7.v.0. Xb . =XVX8XlX7XhXaXlXuXhXdXsXdX7XDXH @ s + 6 + s 2 s 2 6 7 2 6 2 s + 6 + s + s 2 7 2 6 7 u u 2 4 = 0 * s , p % c ]. .*.1.",
"m.m.v.XXz . =XCXdXDXhXDXBXDXnXFXZXhXDXDXDXH   2   2   2   +         +   2   +   2   2   +   + O > <   =   2   2   % # k Y.t.p.s.",
"q.6.#.E./ B P ^ :XSXyXbX0XsX7XwXaX8XBX;X&XD : s 2 6 2 f 2 f Y I I Y h 2 f 2 0 3 f 2 s 2 s 2 s 6 4 r 4 0 5 g 1 f ; v N R i.} } 1.",
"F.B.C.!.(.#XC . I DXbXSXVXCXVXVXVXFXVXf   O o +   2   2   2 DXDXDXDX7   2   2   2   2   O   + @ X X   @ o i o 3 . C #XY.z.>.a.x.",
"7.q.#.b.$. XB . Y DX9XjXwXeXaXrXdX7XDXD 2 s 2 f + s 2 f H I sX7XaXdXI H f + s 2 s 2 s 2 6 2 s 7 3 s 2 p < g : t % N |.{ ;.] 1.| ",
"m.B.M.N.0.OXB . P CXsXDXxXVXvXSXZXsXDXh   7 @ 2 O 2   h DXVXhXDXDXhXVXDXh   2 @ 2   2 @ + @ 2 O + 2   + > u @ 8 # m }.o.f.a.1.s.",
"C.@.M.M.#.^.R q P 3X2XhXdXVX7XvXhXsXDXh + 6 @ 6 O 7   D DXsXhXdXhXdXaXSXD   7 @ s O 6 + 7 + 7 2 = 7 + 6 5 p   w w T R.} y.:.| 3.",
"B.C.h.D.q.W.T.#XA X D DXhXVXBXZXBXBXDXh   2   7   7   D DXBXVXBXVXZXhXVXh   7 @ 2   2 @ +   2 @ X +   +   - $ S @XY.f.1.z.:.2.s.",
"B.q.0.h.8.h.j.XXZ   G DXuXnXsXsXhXaXVXh + s @ s + 7 @ h dX8XdXhXhXdX8XdXh O 7 + s + s 2 6 2 6 2 4 4 = 6 2 t . S [.[ d...&.;...s.",
"B.M.h.A.j.Q.6./.( . G DXgXFXsXlXlXaXDXh   6 @ 6 O 7 @ 6   f VXhXnXVXf @ 6   7 O 6 @ 6 O 5 O 2 + = 2 + 2 X 9 . E T.>.p.1.f.:.p.p.",
"M.h.h.W.9.V.q.^.R $ V cXwXDXjXMXdXeXDXh   s @ 7 o 7 + 6 @ f dXhXdXlXf X 4 @ 7 O 4 @ 7 : 5 o 7 5 : 2 O - $ 8 % T T.>.p...P.t.p.a.",
"v.0.j.A.8.n.7.W.J.+X).$ V xXsXaXdX0XBX6XdXF   s 2 6 , p + r 7 7 2 0 6 = r + p , r + s , 7 5 6 5 2 7 - q $ ! '.O.K.&.:.} d.....1.",
"C.v.q.D.q.C.q.A.I.OX) # w CXBXDXZXMXSXhXDXH   7   2   7 O = + @ O   5   7   : @ 3   - @ X @ + + = - . $ # ) }.i.z.:.f.:.f.:.<.r.",
"n.q.0.B.6.N.6.B.8.I.H.' ).w V wXgXfXvXwXDXH O s : 7 + 6 + 2 6 - 2 u 5 , s + 7 : 0 X 0 * 3 * 3 2 - q $ )._.O.K. .y.;.f. .p.*.*.<.",
"A.l.q.C.b.C.v.C.5.~.I.[.' # . CXDXZXDXBXDXJ o 1   =   3 @ - @ - O O 5   2   2 o u o 5   - @ 3 @ X X # ' }.i.x.*.f.t.g.t.a.:.<.r.",
"h.9.8.b.#.b.#.B.=.k.] i.+.) ! V K K F 2XdX:X:XH 1 d * r = s 6 2 6 7 g 5 d = g : g < g 6 r ; t t q ).` +.K. .:.} p. .u.[ u.} *.*.",
"S.A.W.!.N.G.v.F.k.p.p.L.K.}.'.# . X   3XDXAXSXY   @   -   : < o   O O   -   =   5   5 @ @     @ $ %XoX(.Q.>.x.t.g.d.x.t.L.d.p.s.",
"q.8.j.j.$.q.4.9.&...| *. .i.O.R E Z A P L Y I Y &XG X d 7 p p p 6 4 j 3 r - 0 2 d 2 d ; e A Q E R H.j.4.e.-.>. .:. .t.X.t. .| *.",
"B.B.h.F.B.Z.9.9.:.g.:.a.>.z.i.I.T.].@X8 # # . `.CX<X  7   : o O O O =   =   =   ;   $ . w $X X/.^.W.D.v.C.B.Q.9.9.>.y.:.g.p.2.2.",
"v.q.4.n.4.9.&.>.X.d. .:.&.*.} :.&.{ H.T m M C P <XL   s - 6 2 6 3 2 0 = r - 0 $ v S M m R T.@.q.q.4.b.6.q.6.B.=.9.=.>.} :.} | 3.",
"B.B.m.V.5.w.:.f.t.L.u.f.p.a.:.f.p.d.U.L.R.].#Xm # % . % . X     @   *   -   $ . B $X XOX^.~.c.l.C.v.D.N.D.v.G.q.F.w.w.-.s.2.s.s.",
"q.q.5.r.} *.} ..X.u.X.t. .:.} ..d...} } &.[ Y.R k c k k x z z x l l b l b l z x / T.$.4.4.4.8.z.9.4.h.6.0.#.b.#.h.=.=.] *.} | | ",
"F.l.k.z.*.a.p.g.t.L.t.f.u.f.p.f.d.t.f.z.y.,.K.K.{.].|.|.{.].Y.T.XX.X.XoXoXoXoXXXI.!.N.D.D.!.h.W.W.h.D.N.D.N.!.h.!.B.F.w.k.:.p.x.",
"l.9.;.y. .a.:.p...f. .t.*.t...t.d.;.t. .t.] z.] t. .u.o.t. .*.2.7.q.8.h.8.M.8.h.#.M.$.A.N.h.h.N.j.j.M.q.q.8.A.8.B.6.B.5.9.;. .p.",
"y.>.;.p.*.a.:.1...a.&.-.*.<.*.t.:.:.2.*.f.p.*.*.a.*.p.} p.1.*.&.e.n.q.A.6.C.q.C.6.C.h.M.q.C.0.h.M.0.B.q.B.q.S.9.C.7.n.4.l.k.:.p.",
"y.y.:.a.:.s.1.g.:.a.*.r.<.r.:.p.a.s.3.s.p...g.:.s.3.s.1.a.3.<.r.m.n.B.C.q.Z.n.Z.q.F.q.F.e.B.V.A.B.b.Z.n.V.l.Q.h.Z.v.Z.q.S.c.>.k."
};
