/* XPM */
static char *result[] = {
/* columns rows colors chars-per-pixel */
"64 64 242 2 ",
"   c #5B6238",
".  c #596813",
"X  c #545848",
"o  c #54555A",
"O  c #565456",
"+  c #4D4F4F",
"@  c #59614D",
"#  c #686E59",
"$  c #4B476A",
"%  c #524C65",
"&  c #585667",
"*  c #544A79",
"=  c #584E75",
"-  c #5B5579",
";  c #4B467E",
":  c #60566C",
">  c #696874",
",  c #6E6C6D",
"<  c #BADA39",
"1  c #C7E83F",
"2  c #B6CD5C",
"3  c #BBD35C",
"4  c #B7D359",
"5  c #B3CF56",
"6  c #AFC765",
"7  c #B2C966",
"8  c #B5CC6A",
"9  c #BACE6B",
"0  c #B1C763",
"q  c #BDD365",
"w  c #BDD36D",
"e  c #BED96A",
"r  c #BDD764",
"t  c #BCCD74",
"y  c #BDCE7A",
"u  c #BDD473",
"i  c #BFD874",
"p  c #BED37B",
"a  c #C1DA5C",
"s  c #C2DB56",
"d  c #C2D665",
"f  c #C1D864",
"g  c #C1D66D",
"h  c #C3D96B",
"j  c #C9DD67",
"k  c #C1D672",
"l  c #C4D974",
"z  c #C2D47B",
"x  c #C6DA7A",
"c  c #CADB7D",
"v  c #C9DC74",
"b  c #CBE26E",
"n  c #E7E771",
"m  c #493C88",
"M  c #4A3B90",
"N  c #4D428C",
"B  c #564987",
"V  c #5C5586",
"C  c #574797",
"Z  c #574C96",
"A  c #685C89",
"S  c #735E88",
"D  c #695B9D",
"F  c #675B95",
"G  c #6B5693",
"H  c #6D6489",
"J  c #72648C",
"K  c #756988",
"L  c #79728A",
"P  c #6D6294",
"I  c #6D629C",
"U  c #796C9C",
"Y  c #766797",
"T  c #7B739D",
"R  c #6F7085",
"E  c #5745A6",
"W  c #5E51A1",
"Q  c #6858A7",
"!  c #705EB2",
"~  c #6C61A9",
"^  c #7567A7",
"/  c #7B73A8",
"(  c #6E63B5",
")  c #7466B5",
"_  c #7F74B8",
"`  c #5743C0",
"'  c #7157CA",
"]  c #6E63C3",
"[  c #7667CF",
"{  c #867896",
"}  c #83758A",
"|  c #857AA7",
" . c #8679B5",
".. c #8265A5",
"X. c #8876C0",
"o. c #938898",
"O. c #9B9495",
"+. c #8B8893",
"@. c #A39A99",
"#. c #A48F9B",
"$. c #B4AC9A",
"%. c #8D83A7",
"&. c #938BA5",
"*. c #9786A9",
"=. c #9C95AA",
"-. c #8E84B6",
";. c #9489B7",
":. c #9D95B5",
">. c #9E94BB",
",. c #A39BA4",
"<. c #A79BAB",
"1. c #A59DB1",
"2. c #A596B6",
"3. c #AA90AE",
"4. c #AAA3A5",
"5. c #ABA2AB",
"6. c #AAA6A9",
"7. c #B6ABA6",
"8. c #BDB7AB",
"9. c #ABA3B3",
"0. c #A8A1B8",
"q. c #B6A8B9",
"w. c #BBB7BC",
"e. c #CDABB5",
"r. c #C3B9B7",
"t. c #DAB9B9",
"y. c #CDB4AC",
"u. c #E2BCAD",
"i. c #E3B9B4",
"p. c #BBC888",
"a. c #BED282",
"s. c #BCCA98",
"d. c #BDC5A5",
"f. c #BCC3B3",
"g. c #C2CD87",
"h. c #C2D383",
"j. c #C5DA82",
"k. c #CCDB83",
"l. c #C3D28A",
"z. c #CAD88B",
"x. c #C3CE95",
"c. c #C3CC9D",
"v. c #CDC795",
"b. c #C5D398",
"n. c #D6DB88",
"m. c #E3D091",
"M. c #CEE182",
"N. c #D4E48C",
"B. c #D4E689",
"V. c #DCEB93",
"C. c #EAE88B",
"Z. c #F1ED99",
"A. c #ECEA9B",
"S. c #C4CCA3",
"D. c #C4CCAC",
"F. c #C6CAAA",
"G. c #C3D1A3",
"H. c #DAD7A9",
"J. c #C7C7B8",
"K. c #D6CDB7",
"L. c #DDDCBC",
"P. c #D7D6B7",
"I. c #E8CAA9",
"U. c #E9C9B4",
"Y. c #E6D8B9",
"T. c #F3DAB9",
"R. c #F3ECAB",
"E. c #E4E5BD",
"W. c #EBE9B9",
"Q. c #F4E2B4",
"!. c #F3EEBC",
"~. c #F9E9B9",
"^. c #EDF3BC",
"/. c #EDF4B9",
"(. c #F4F3B6",
"). c #F3FBB6",
"_. c #F4F3BC",
"`. c #FAF4BD",
"'. c #F6FABB",
"]. c #FBFBBB",
"[. c #FAF6B5",
"{. c #F5F3AB",
"}. c #988AC6",
"|. c #988DC9",
" X c #A896C2",
".X c #B49AC2",
"XX c #A494DB",
"oX c #B2A2CB",
"OX c #BCB6C6",
"+X c #B7AAD3",
"@X c #B7B1D3",
"#X c #C3B8C5",
"$X c #C6BBD1",
"%X c #D1B1C7",
"&X c #C4B8E8",
"*X c #CAC6C6",
"=X c #D3CDC2",
"-X c #D9CCC8",
";X c #DEDCC3",
":X c #DEDBCC",
">X c #DAD4C7",
",X c #CDC5D4",
"<X c #CDC4DC",
"1X c #D7CBD4",
"2X c #DDDADB",
"3X c #DDD6D8",
"4X c #E3CBC8",
"5X c #E2DCC4",
"6X c #E3DCCB",
"7X c #E9D5C4",
"8X c #F0D9C6",
"9X c #E3D8D8",
"0X c #DFE0C1",
"qX c #E4E2C4",
"wX c #EBEBC4",
"eX c #E6E4CC",
"rX c #ECEBCC",
"tX c #E8E7C6",
"yX c #F6EEC6",
"uX c #FEECC4",
"iX c #F5EDCC",
"pX c #F9E5C6",
"aX c #EEF3C3",
"sX c #EFF8C3",
"dX c #F4F3C3",
"fX c #FAF4C3",
"gX c #F9FAC4",
"hX c #F4F3CA",
"jX c #FAF5CA",
"kX c #F7F9C8",
"lX c #ECE4D4",
"zX c #E8E6D6",
"xX c #F5EAD7",
"cX c #F5F1D3",
"vX c #F9F6D6",
"bX c #DCD6E3",
"nX c #DED9E2",
"mX c #DCD6EC",
"MX c #DDD9EB",
"NX c #CDC4E2",
"BX c #E2D9E6",
"VX c #F0E9E6",
/* pixels */
"i u u p i u u w u u k k g k k k a g k g d a g z h.k d d z z y e w p h.z k k z z i i p i e e k l.g g k k g k k k g k k k k g k k ",
"8 8 8 u u u 8 8 w w g k k k l k g g k g f f g z z g d d d z p i p k g g k k k k u p e e w k z z k k k k k k k k k k g k k k k k ",
"6 6 8 8 w 8 7 0 8 w k k g k k g z k g g k i k i k k g d d d k z z k f g g g h d p i h f g z k g k k k v k k k k k k k k k k k g ",
"6 6 8 8 w 8 0 0 8 w k k k k k k g.k g g k h.h.z v k k k k d k k k k k g j g g k k i z k g g g g k k k k k g k k k g k k g k k k ",
"u 8 8 8 6 8 7 8 g k g k k k k k l.z k k k z z z z z z z z k d v d k g.z k g g g d k h.g.g f f i k g g k g k g k k g k k k k k h ",
"u u 8 6 7 7 w w g k k k g k v k k k z k g f f g z z z k k g d d d k z z z k d d d j k k k h r e k k k k k k k k k k k k k k k k ",
"i u 8 8 7 8 w i k k k k k k v k d k k k f a a f k k k g d g k g g j k z g.z j d d d f d k p u e k k k k k g k k k k k g k g k k ",
"i i u 8 8 w u k k k k k k k k g e e g f g g z z z k d g g k z z k k g z z z g k z k k k k z p i k k k k k k k k g k k k k k k k ",
"k k u i k k k k k k k g k k k k i e a r a.d.D.D.s.a.p i k k z z g k k g i p s.d.G.c.G.G.b.p x i w u u i k k k k e l k k k k k k ",
"k k k k k k k k k k k g k k k g x 6 M.z.X & = % & X @ s.g.v z k z k d 2 M.s.o & & & : & X G.j.8 u u w u t k 9 9 w u k k g k k g ",
"k k k g k g k g k k k k k k k k e j.d., L > { ../ T R , s.z k k k f 3 v s.> / Y } K } Y / , p.k 8 7 7 9 k 9 7 7 8 w g k k g k k ",
"g k k k k k k k k k k g k g k k i s., *.w.r.8.q.@X@X X+.# d.z.a 3 a k G.& ;.2.w.7.7.e.q.oX*., p.7 6 7 8 u 9 0 0 7 9 k k k k l l ",
"k k k g k k l k k e k k k k k k s.X R 2.9X8XT.8XeXeX=X:.V & p.d s g d.$ F &.*XE.Q.Q.pXxX4X1.K = 6 8 6 8 8 7 7 7 7 g k k k k k k ",
"k k k k k g g k k k k k k g k k D.o H 3.4XuX~.~.`.].P.&.W N o g.g F.* C V =.L.[.[.[.uX8XU.@.S W u 9 8 8 6 6 8 k g k k k g k k g ",
"k g k k k k g k k k k g k g g k D.O > 3.t.U.I.I.Q.Q.H.1.D M * & : * C C V O.P.~.Q.I.T.U.t.#.S M i i 8 6 6 7 9 9 k k g k g k k k ",
"g l g k k k k k k k k k k k k u y.O Y X.%Xu.u.I.T.xX4X,.U ) Q ( ' ' D A L 5.>XxX7Xi.i.t.%X| S : p p p 8 6 8 k k k z k g v k k k ",
"z k g d g z z k h d g k z z g d x.X > { e.i.i.i.7X8XT.r.4.3.:.2.=.>.>.>.1.r.Y.pXU.i.i.t.e.3.G E 3 e e p p w e g g k z h.a.z k g ",
"k k k g k k k k w g h w k k p k F.O } | i.i.i.i.Y.pXiX9X,X,X<X<X,X<XNXNX,X6XpXuXU.U.u.u.e.| Y C i i p p k g k g k z z k k k g k ",
"h k k z k g g k k k k g k k z h.J.& S 3.i.I.u.I.T.~.xXzXnXMXBX9X2X2XmXmXBXlXyX~.T.I.U.U.u.#.J B l.h.z k k k k k z z u g f g g w ",
"d g k z k g d g k z k g h e k z J.& P 2.U.T.Q.T.Q.dXrXBXnXnX2X2X;X2XMXmX2XlXrX!.~.~.Q.~.U.#.H B a.z k g g k k k k k g d f f g k ",
"g g k k k g g g g u k k h h a 3 D.o J 1.4XuX`.`._.`.rXzXbXbX3X9X:X2XmXmXbXzXrXsX~.`.`.uXY.6.J N d f d f g g k k k g g g g g k k ",
"g k w g k k g g g g k k i h a s s.X K 1.9XjXfXfX(./.aXeXbXbXbXbX3X2XmXmX2XeXaXaX`.`.fXfX;X5.I Z s a a d g g g g g g u k k z k k ",
"k k g g k k k g g h g u k k h f F.+ H 1.6XjXfXfX_.)./.eX3XbXBXbX9X3XmXnX2XeXsXaX_.dXfXgX5X5.I C g h h g h g g h g g k z z z i g ",
"k k k g g k k k k g g h k h.s.d.*X& J 1.qXgX`.dX'.)./.tX9X9X9XbX9X9X9X2X:XtX^./._.dXjXkX;X5.I C F.c.l.z g g g h g g z z p z g g ",
"z z k i g g k z p p h f e l.f.& * B ^ <.0X'.'.kXkX_._.aXtXeXlXxXlXlXlXlXwXW./.'.dXvXvXsX;X6.Y B - % F.g.k g k k k k k k k g g r ",
"g k z z g g h k h.z q 3 f l.# * Z W ^ 1.L./.kXeXrXhX_.^.dXdXiXcXyXuXiXiX!._./.aXrXzXcXvX;X4.K B C - X v.k k x h.k w e e w g r f ",
"g k z z g f r g z z w b r z G.X B m ^ 1.E.W.K.r.=XtXdX_.(.`.dXyX[.yXfX_._._._.qX=XJ.K.zX:X4.R * - o F.z v k 9 z z g d h w e f f ",
"g k k p k f f g k z k k h w i z = V U <.qXH.O.o.5.>XjX_.(._.!.yX_.!.fXyX_.dXyX5X6.o.O.>X;X6.K * X S.z k k z z.z k g h g k l k f ",
"g g k p g d f d l p x 9 q j h f %X% J 9.L.P.O.} <.5XjX].(._.!.hX(.!.dXhXyXjXyX:X@.} O.=X6X5.Y B x.g.l d d t z z g f r l z z i g ",
"k g k k g d d g k k k v v 9 a.a.- * S 5.qXP.J.,.r.5XdX_._._.aXhX/.dXdXdXdX`.yX6X8.7.d.qX6X5.Y C X x.h.d g v k 9 e d e k p a.u e ",
"k p k k g f e k y y v 4 e l.@ & B C ..1.0X/.E.eX6XyX_._._.dXaXaX^.sXaXdX_._._.W.qX;XE.hX5X,.Y C B &   z d d k k g e e u p p k e ",
"k z z z g f g z l.h.h 3 f b.@XW E E ! <.E.).).dXjXjX`.fXdXdXaXsX^.sXdXdX].[.(.`.dXkXgX'.L.4.Y E ` Z r.z j d l k k k k k z l i r ",
"k k k k k k k i k k k k k k k k ; F Q  X4XuX~.uXjX_.'.).gXkX`.{.].'.'.'.).).'._.jXpXpXxX4X3.I C . t z z z z n.k.k.h.z k.n.k.k.z ",
"k k k k k k k k k k k k k k i k w.% S 3.%X4X8XT.5XqXW.aXrXlXrXwXW.tXwXeXwXtXwXtXU.T.lX4X%X<.> = y k.t z j.c V.V.n.k.h.z.N.V.M.x ",
"k k g k k g k k k u i g k k g k z b., o..X.X3.4.e.w.J.w.w.OX#X#Xw.r.#XOXOXOX#Xr.7.3.q..X1.o.# S.z z z z k k.n.C.N.N.z.N.V.V.B.x ",
"k u k u k k k g k k k k g k k k < j S.K ......Y { %.-.%.&.&.*.;.&.*.%.-.}.-.%.%.{ } S U U > v.l z k z k k n.N.m.N.N.N.N.B.B.k.l ",
"g k k k k k k k k k k k k k k k 1 f d.K I I { L U ^ ( ^ T { { { { %.| _ [ ) ^ T L L Y ^ ^ H G.k c z k k k z v c B.N.V.N.M.c k k ",
"k k k g k k k k g k g k e k k k 4 b., |  X0.5.5.;._ ( Q I { @.$.y.r.q.%.) Q ~ T &.1.q.oX|.{ , D.d k k k v 9 t v M.C.V.B.c k k k ",
"i k k k k e k g k g k k k k k k S.X P ;.<X:XeX:Xw.&./ ) ..,.v.n R.E.J.=./ / / &.8.;XVX1X$X1.A B z z g g d k z d x M.n.n.z k k z ",
"k g k k k k k k k i k k k k g k f.$ I XX<XrXsXsXP.7.=.>.3.7.n.n Z.R.H.s.4.:.=.6.H.sXvXVX*X=.Q E g d g k d k v t k x z v k k k k ",
"g k k w u k k k k k w k k k k k J.% ~ XX<XlXgX'.wXL.=X-X=XP.C.n n C.A.H.P.K.*X;XwXkXrXzX1X=.Q C g g g g g g g k k k z k k k k k ",
"e k k g g k k k k k k k k e g k b.X P X.&X-XP.E.tXxXrXdX!.{.Z.C.n C.A.W.dXjXdXrXzX>X0X:X#X}.H o g g g g h g g k k k t k k k k g ",
"k k k k k k k g k k k k k k u k d g.,  .|.:.,.7.J.lXcX`.{.{.{.R.Z.Z.{.(._.].].tX,Xq.=.=.;.-., x.g g g g e g g k k k k k k k w g ",
"k k k u i k k k k k k k k k k k j c c.> P F P L 5.>XjX`.[.[.!.yXyXW.(._.(._.yX>X5.T Q ~ F : c.c k g g g g g g k k k k z k k k g ",
"k k u u w u k k k u k k k l k k d v t c.o B N F =.=XcXcXiX6XP.F.K.J.P.E.W.cXxX-XO.F E E % x.z t u k g g g g k k k t k k k k g g ",
"l k k l l k p k i l k k k k z k z g h k s.% V Z *.#XxXxXBX,X,.+.%.%.9.*X6XVXVX$XO.V M $ S.v e z.k k k k g k k k k k z k k g g g ",
"i k v M.c c k k v c c x k k k z z k q e p S.+ D }.$X-X3X<X+X/ F ; V / oX1X3X1X#X-.- o x.x 4 w p k k k g k g k k k z k z k w g g ",
"u z c B.B.M.v z M.B.B.M.k p k k u k u e f p D.A  .2.<.5.0.}.( C m N ( |. X7.4.2.X.A b.a 4 b p u i k k k k k k k k k k k k k g g ",
"u k M.V.V.N.z.l.B.V.V.B.k k k k f h k z k h g z # P ] [ ( R S.k q j.d.R / ] ( U , x.k 3 a q x p k k k g k k k g k k g k k k g k ",
"k z k.N.V.N.N.n.N.V.N.k.k k k g 3 f k h.z i g z b.X % V & X l.r e j.p.@ o & & O d.b.k h v q g g k k k k g k k i g k k i k k i k ",
"k k z c n.N.V.V.N.n.j.z k k k g a f k a.h.h.z p p j.s.s.p.x h f z i M.p a.a.a.h.z.a.t k g q l h k k k k k k k k k l e k k g g k ",
"k z k k j.n.N.V.n.j.k k v k k g d g k z h.a.z k e r a j r d q f z w r e r r f j q u c z p k l g k k g u k k k e k k k k k k k k ",
"k z k z z k.m.n.m.z k k z k k g z k k g k k k k l l g 5 v h k x w l l h q h j 7 v e k k z z p z g k k k g k k k k k l k k g k k ",
"k k k k k k c c k z k k k k g g h.p k g r d g k p x p M.t u t z k w t x z t z x k e q w l k p z k k k k k k k k k k e k k i g k ",
"k k k k z z z k k k k g k v g k z z k g f f d g u p t z z z x z g l k h.h.l.h.z t l l h g h g g k k k g k k k k k k k k k e k k ",
"k k k k k k k g k k k k k g k g g k k k k g e d d h g w g k w h g g k k k z u z k g g h f 3 j 3 k g k i i g k g k e k k k k k k ",
"k k k k k k k k k k k g k k k g f e k z z k g g r d d g g d f f k g g d h d e g g g k k g d q f e k k k g k k g k k k k k k k l ",
"k g k k k k k k k k g k k g g g f d g k z k k g g g k k g g g f g g g g q h f g g g k k k p z k k k k g k k k i k k g i g k k e ",
"k k k k k g k g k g k k k k k k d g g g u k k k k z p h.z i g g g g g k k k k g g g k k k z h.h.k k k k k k k k k g k k k k k i ",
"k g g k k k u g g k g k k k k k g g g g g k k z z z z z z k k k g k k k k k z k k k p k k z p z k k k g i k k k k k k k k g k k ",
"k v k k k g k k g k k k k k k k k g g g k k k k z k g g g g g u k g k k k k k k k k k k g g h f k g k k k k k e k k k g k k k i ",
"k k k k k k g g g g k k k k k k g k k p z k k k g e d d d g g k k k k k g w k k i k k k e f f r k k e l g k k l i k k k k g k g ",
"k k k k k d k d g k k k v t k k k k p z i k g g g f g g g k k k k i i k k g k k k k k k g g g h g k k k k i k k g k k k k k k k ",
"k k k k k k k k d k d k k k k k z k k z k k g f f w k z z p z z k k k k k k k k k g g k k z k z k k i k g k k k g k g i k g k k "
};