/* XPM */
static char *result[] = {
/* columns rows colors chars-per-pixel */
"64 64 123 2 ",
"   c #6F435F",
".  c #70455F",
"X  c #764A5F",
"o  c #7A4E5F",
"O  c #7E515F",
"+  c #714561",
"@  c #764B60",
"#  c #7B4E62",
"$  c #7E4F68",
"%  c #7D5162",
"&  c #82555E",
"*  c #85595E",
"=  c #8B5D5D",
"-  c #8F605D",
";  c #92635D",
":  c #98675C",
">  c #97685D",
",  c #9C6C5B",
"<  c #9F705D",
"1  c #A06F5A",
"2  c #A57357",
"3  c #A97757",
"4  c #AB7956",
"5  c #A4735A",
"6  c #A87759",
"7  c #AC7B58",
"8  c #B27E5B",
"9  c #815561",
"0  c #845962",
"q  c #895D63",
"w  c #855569",
"e  c #8A5C69",
"r  c #826363",
"t  c #8D6363",
"y  c #866A64",
"u  c #8A6D66",
"i  c #8B6E68",
"p  c #926662",
"a  c #956A64",
"s  c #9A6D62",
"d  c #956C6A",
"f  c #9C6E68",
"g  c #8C7166",
"h  c #8E7168",
"j  c #907466",
"k  c #9D7163",
"l  c #917C66",
"z  c #927768",
"x  c #9B736A",
"c  c #967D6C",
"v  c #9D7670",
"b  c #A17563",
"n  c #A57A66",
"m  c #AA7E64",
"M  c #A1776B",
"N  c #A57B6A",
"B  c #A97F69",
"V  c #A57C70",
"C  c #B3815C",
"Z  c #9B846A",
"A  c #9C8869",
"S  c #9D9568",
"D  c #AC8165",
"F  c #AC826A",
"G  c #B18464",
"H  c #B68A67",
"J  c #B98864",
"K  c #B18669",
"L  c #B68B69",
"P  c #B98E69",
"I  c #A49569",
"U  c #A39D69",
"Y  c #BD936B",
"T  c #AE8673",
"R  c #AF8977",
"E  c #AF8979",
"W  c #B38B73",
"Q  c #B38D7A",
"!  c #BB9474",
"~  c #B69179",
"^  c #B9947C",
"/  c #BF9C7D",
"(  c #A5A46A",
")  c #AAAC6B",
"_  c #AEB16C",
"`  c #B1B76C",
"'  c #B3BD6D",
"]  c #C1966C",
"[  c #C59B6C",
"{  c #C89E6C",
"}  c #C29B74",
"|  c #C99F71",
" . c #C49E7A",
".. c #CAA06D",
"X. c #CCA374",
"o. c #C5A07B",
"O. c #CBA57C",
"+. c #D1A571",
"@. c #D4AE7F",
"#. c #D8AE7B",
"$. c #D5B07F",
"%. c #B5C26E",
"&. c #B9C66E",
"*. c #BCCC6F",
"=. c #BFD070",
"-. c #C1D570",
";. c #B99581",
":. c #C5A284",
">. c #C8A584",
",. c #C5A38A",
"<. c #CEAE8D",
"1. c #D3AE81",
"2. c #D6B182",
"3. c #DAB586",
"4. c #D1B18E",
"5. c #DAB788",
"6. c #D5B593",
"7. c #D7B994",
"8. c #DBBE99",
"9. c #E0B884",
"0. c #E3BE8B",
"q. c #E1C59F",
"w. c #E3C8A1",
/* pixels */
"Y L L P P L F k t t u ) =.=.-.-.=.-.-.-.-.-.=.=.-.-.-.-.=.=.-.-.-.-.=.-.-.-.-.-.=.-.-.-.-.-.=.=.-.-.-.-.*.S % t d n F P P P Y L ",
"| Y ] { [ ] P N t 0 w g &.=.-.-.=.=.-.-.=.-.=.=.-.-.-.-.=.=.=.-.-.-.=.=.=.-.-.-.=.=.=.-.=.-.=.=.-.-.-.-.' % % 0 p F P ] [ Y [ Y ",
"X.[ [ ....[ P N d % $ y *.-.-.-.=.=.%.' *.%.%.%.%.%.*.%.%.%.%.%.*.%.%.%.%.%.*.%.%.%.%.%.*.%.%.=.-.-.-.-.` @ # 0 a F Y { ........",
"+.[ { ....[ P n p % $ u *.-.-.-.=.S h i g g i i i i h h h h i h z g i i i i g g h h i i g i Z ) -.-.-.-.' @ % q j m ] { ........",
"+.[ { ....[ P N g % $ g &.=.-.-.U 0 % $ $ % $ % $ $ % $ $ % $ % $ $ $ # # # $ $ % $ # $ % $ $ h ' =.-.-.' X # 0 a F Y [ ....[ ..",
"+.[ [ { { [ Y N j % $ l =.=.-.-.l % % % # # % % # @ # # % # % % % % # # # # # # # % # # # % $ e ( -.-.-.&.# % 0 j F Y [ ..[ [ [ ",
"..[ { [ { [ P n t % % % ) =.-.&.g 9 q 9 9 0 % 0 % 0 0 0 9 0 9 9 9 q 9 0 0 0 % % 9 0 * q 0 % 0 t A *.=.=.S X % r f m Y [ ..[ [ [ ",
"+.{ { [ { [ P n a O @ % % _ ` A d p a a a d a a z j a a a a a a a a s a d a j z a a a a a d a a c I ` ( % . X r s B Y [ ..[ [ [ ",
"+.] ] ..{ Y P n a % X + + y j t k n F F F n F F m F F m n m n m F F F F D F F n F D F F N F n b f i l O @ + # 0 a F Y ] ..[ ] [ ",
"..[ [ ..[ Y P n u * X     % e p n K L P P P P P P P P P P L P L Y Y P P P P L L P P P L Y Y P F k t w %   . X 9 a F Y [ ..[ ] { ",
"+...X.X.X.[ ! N a 9 @ . X % e a n K Y Y Y Y Y Y Y Y Y Y Y Y Y Y ] ] Y Y Y Y Y Y Y Y Y ] Y Y Y K M p 9 % @ @ o 0 x F Y X.X.X...X.",
"$.+.+.O.X.X.} B d 9 % % 9 t t x D L L L P P Y P P H P P P P L H P P L K L H P L K H P P P P H D n s t t % o X e x W } X.X.X.X.X.",
"9.#.$.$.@.@. .T z 0 % 9 a k b n F D D D D D D D m m m F D F D m D 7 F m m 7 F m 7 D D D m m m m B N b s e O O t v Q  .@.@.$.@.@.",
"q.#.3.3.3.3.:.R d 0 % t x F L F N k k < , < < k k < k < k < 5 5 k < 5 k < k < 5 k < k k , 5 n N m F G n a q % r v ~ O.3.3.3.3.3.",
"q.5.3.3.5.5.:.E d w 9 p b L P F n k > ; ; ; ; > > ; ; ; ; a : : > > a > ; > > a > : ; p ; : > k m K P D x t 9 e v ~ @.5.5.3.3.5.",
"#.2.$.$.2.1. .E d 0 9 t k K H G 5 > ; - - - - ; ; - ; ; - ; - - - - ; t - ; - t - ; - - - - - , n K P D x t % q x W O.2.3.2.2.1.",
"+.X.| O.O.| ~ B p % O q k m n m < : ; = ; - - - ; - - - ; - - - - - - - - - - - - ; - - - - - ; 5 F F n a q O e j F ! X.O.X.X.o.",
"[ Y P ] ] J F n t 9 O q p k k k > ; - - - = - - - ; ; - - ; - ; - - ; - - ; - ; - - - - - - - > s 5 k s - O O 9 a n K Y Y Y Y Y ",
"J G G C G m 5 , t 9 # 9 * > > : ; ; - ; = ; ; ; ; ; ; - - - ; - ; ; ; - ; ; - - ; ; ; ; - - ; > ; : > p * O O * ; 5 n G C G C G ",
"G 7 4 4 4 7 1 : * O o # & - ; ; ; ; - ; ; : ; : ; ; ; ; ; ; ; ; ; ; ; ; ; ; ; - ; ; ; ; - > ; - ; - - = * O X O = : 5 7 7 7 7 7 ",
"C 4 4 4 4 4 1 : * & # & * = - ; ; - ; ; : , , : ; ; ; ; ; - ; - ; ; ; - - ; ; ; > : , : ; ; ; ; ; - = * O O o O * : 2 4 7 3 4 4 ",
"C 4 4 4 4 4 5 ; * & o o * = ; ; ; ; ; : : , , : a ; ; ; ; ; ; ; - ; ; ; ; ; ; : , < < , , ; ; ; ; - - - & O O O = , 2 4 7 3 4 7 ",
"C 4 7 7 7 7 1 : * o o & * = - ; ; ; ; : : 2 6 , > ; ; ; ; - - ; ; ; ; - - ; ; : , < 2 5 , ; ; ; - ; - = O O O O = , 6 3 4 7 4 7 ",
"C 4 7 7 7 4 1 : * o o o * - ; ; - - : : 2 5 3 2 , : ; - ; ; ; - ; ; ; ; ; ; ; , , 2 5 5 5 , ; - - p ; - O O % O q : 5 4 4 7 4 7 ",
"7 2 6 2 3 3 , ; * o o O * - ; ; ; - : , < m 6 2 < ; ; - ; ; ; ; ; - ; - ; ; ; : , 2 3 5 5 > ; - - ; - = O O O O * : 1 3 6 6 6 6 ",
"6 1 , 1 , , : = * O # 9 & - = ; ; ; ; , 5 6 6 5 , : ; - - ; ; ; ; ; ; ; = ; ; : < 3 3 5 5 > - ; ; ; - = & O O O * - : 1 , , 1 , ",
"s : : : : : ; * & # O O & - - ; ; - ; , 2 3 2 5 < ; ; - ; ; ; ; - ; ; - ; - ; , < 3 6 5 < , - ; ; ; - - & O O O 9 = ; : : > > : ",
"s : : ; : ; ; * & o # O * - - - ; - ; , < 3 3 2 < : ; ; - ; ; ; ; - ; - - - ; > < 2 7 6 < < ; ; - - - - & O X O & * ; ; : : ; ; ",
": : : : : ; ; * O # o O & - - ; ; ; > , < 2 6 5 , : ; - ; ; ; ; ; - ; ; - ; ; , , 2 3 5 < : ; ; ; - - - * O X O & = ; ; : ; ; : ",
"< : , , , , ; q O O O O * - - ; ; - ; , < 6 7 5 , : ; - ; ; - ; ; ; ; - ; - ; > < 2 3 3 < , : ; ; > - - * O O O O - ; : : , , , ",
"6 1 1 1 1 5 , = O O O O & - ; ; ; ; ; , 5 5 6 5 , : - - - ; ; ; ; ; ; ; - ; - a < 2 3 2 , : ; ; ; ; - - O O O % * ; , 2 2 < < 5 ",
"8 6 6 6 6 6 1 : * O O O * - - ; - - ; < 5 3 3 5 < , - - ; - ; ; ; ; ; - ; - ; > < 2 3 2 < : ; - - - - - O O % O * , < 6 6 6 6 6 ",
"C 2 C 2 4 C 2 ; * X O O - - - ; ; - - < < 6 5 5 , : ; ; ; ; - ; - ; ; - ; - ; , , 2 3 2 2 : ; ; - ; - = * O o O = , 2 3 7 7 4 7 ",
"C C 2 C 4 4 2 : - O % O * - - - ; ; ; > k 5 5 6 , : ; ; = - ; ; ; - ; - - ; p p , 2 2 2 , : - ; - ; - = & & o & = , 2 7 7 7 7 7 ",
"C 4 C 2 4 C 2 ; * % % o O - - - - ; a < 5 5 5 5 , : : = ; ; - ; ; - ; ; - - ; : , 2 5 6 , ; - - ; - - = & O O O = , 2 7 7 7 7 C ",
"C C 3 C 3 3 2 : * % o O * - - - - ; ; < 5 6 5 5 , : ; ; = ; ; ; ; ; ; ; ; - ; > , 5 2 5 1 : - - = - ; = & o o & = , 3 4 7 7 4 4 ",
"C C 2 C 3 4 < : * O O O * - - - ; ; ; , 5 5 3 6 , ; - - - ; ; ; - ; ; ; - ; : : 5 b 7 5 k , p p : - ; = & O o O = , 2 4 4 4 7 C ",
"C 2 C 2 C 4 < , - O O O O * - - ; ; > , < 5 6 5 < > ; ; - ; ; ; ; ; - - = ; > , b m L T F F M x s > - = & O o & = , 3 4 C 4 4 4 ",
"C 4 2 4 4 4 < > - @ O * * - ; ; ; - ; , 5 5 5 6 < , ; ; - ; - - ; ; ; ; - ; p x B Y o.,.>. .~ E V x p = O o o O = : 2 C 7 7 4 C ",
"C 4 C 4 C 4 2 > O O O O * - - ; ; ; ; , 5 5 6 5 5 : ; - - ; ; ; ; - - ; - ; a b ~ >.<.6.6.6.<.:.Q M ; q & o o O = : 2 C 7 4 7 4 ",
"C C C C 2 2 2 y O O O O * - ; - ; ; ; , 2 5 5 2 , : ; ; ; ; ; ; ; ; - - ; - ; V ;.<.8.q.q.q.8.<.} G a = O o O O - : 3 4 C 4 C 4 ",
"C 2 2 2 C 2 2 ; - O O O * - - ; ; ; - , 5 6 5 5 , ; - - ; ; ; ; ; ; ; ; - - ; M ;.<.8.q.w.q.8.<.^ N j - O o o O - , < 4 4 4 C < ",
"C 2 2 2 2 2 , = - % O O * - - - ; - ; , 5 5 5 5 < : ; - - ; ; ; ; - - - - ; a N Q ,.4.6.7.6.<.:.W M < - O O o O * ; , < 3 < 2 2 ",
", , , , , , ; = O o X O * - - - ; ; : , < 5 6 5 < : ; ; ; ; ; ; ; ; ; ; ; ; a k F ! o.>./ ^ ^ Q V k ; - O O o O O - > , , , 1 , ",
", , > , ; , - O O O X O O - ; ; ; ; ; > < 5 5 6 < : - ; - ; ; ; ; - ; - - ; ; s b F L P F F N M x , - = * O o o O - ; : , > : , ",
", ; ; ; ; ; - - O O O O * - ; ; ; ; ; < 5 5 5 5 < ; - - - - ; ; ; ; ; ; ; = ; , 5 7 7 7 b k > : ; ; - - * O o o O - ; ; ; , ; - ",
"< ; , , > ; ; - O O O O * - ; ; - - - > 5 6 5 5 < : - - - ; ; ; ; ; ; - ; ; ; : 5 2 2 2 1 : ; ; ; - - - - O o X O - ; : > , > ; ",
"k > , , , , ; - * O % % * - - ; ; ; > , 5 6 6 5 < : ; - - ; - ; ; - ; ; = ; ; : < 2 2 5 , : - - - - - = O O o X - - , , , , , , ",
"D < 2 2 < 2 , - - X o O - - - - ; ; ; , 2 5 6 5 < ; ; - - ; ; ; - ; ; - - ; - : , 2 2 5 , : - - ; ; - = O o o O = ; , 2 2 2 5 5 ",
"C 2 4 4 4 3 , : - X O O O - - - ; ; : , 5 5 6 5 < > ; - - ; ; ; ; ; - ; ; - ; : , 2 3 5 , , ; ; - ; - = & o # & = > 5 7 3 7 3 3 ",
"C 7 7 7 3 3 2 : O X o O O - > - ; - ; , < 5 6 2 < > ; - - ; ; ; ; - ; - - - ; : 2 2 4 2 < , ; - ; ; - - * o % O = : 2 3 7 7 7 7 ",
"C 7 7 7 C 4 2 , - X o O O - - > ; - ; , < 3 5 5 < > ; - ; ; - ; ; ; ; ; - ; ; : < 2 3 2 2 , ; - - ; - = & o X & = , 7 7 7 7 7 7 ",
"C 4 4 4 4 C 2 , O O O O - - ; ; ; ; : , < 6 6 5 < ; ; - ; ; - - ; ; ; - ; ; ; , < 2 4 2 < , ; - ; ; ; - * O o O - , 3 4 7 7 7 8 ",
"C 4 C 7 4 3 , , - O O O O - ; ; ; ; ; , < 6 6 5 , , ; - - ; ; ; ; ; ; ; = ; ; : < 2 3 2 , > ; ; ; ; - = * O % O = , 2 C 7 7 7 7 ",
"C 4 C 7 C 3 , > - o O O O - - ; ; - ; : 2 2 3 2 , ; ; ; ; ; ; ; ; p ; - ; ; ; , < 2 2 6 < : ; ; ; ; ; = O O O O - , 2 4 7 4 7 7 ",
"C 4 4 4 6 D < , O O O O O - ; ; ; - : : < < < , , ; ; ; ; ; ; ; ; ; ; ; ; ; ; : , , 2 < < > ; ; ; ; - = O O O O = , 3 C 7 4 4 C ",
"C C C 2 3 C < > - O o O O - - ; ; ; : > : , < : : : ; ; ; ; ; ; ; ; ; ; ; ; ; > : , , , , : ; ; - > - - O O % O = , 4 C 4 4 C 4 ",
"C C 2 C C C < > O O O O - - ; ; ; ; - ; : , : : : ; ; ; ; ; ; ; - ; ; - ; ; ; ; : : : : : ; ; ; - - - - * O X O - : 2 4 4 4 C 4 ",
"C 2 C 2 2 C < > - O O O O - - ; ; ; ; ; - - : ; ; - - - ; - - - - - - - - - - - ; ; ; ; t ; - - - > - * * O @ O = : < 3 2 C 2 4 ",
"2 2 2 , 2 , , - O O o O O O - - = = = = = = - = = = = - = = = = - - - = - - = - = = = * - = = - - - - * % O @ O = ; , 2 2 4 < , ",
"> , , > j > - - O # # o O - O - * * * * * & * & * * * * * 9 * * * * * * * * * * * * * * * * * 9 O * * * % X @ O O - ; ; , ; > ; ",
"- O = O - O O O O X X # O O O O & 9 O O & # & o o & & o & o o & % & O % O O O O O % % & O O % % O O O O % @ @ O O O * - * - - * ",
"O O O O % O o O o # # @ o o O o # o o # # o & $ # # # # o # # # % % % # % # O % # # % # % % # # % % % # @ # @ % O O O O O O o O ",
"O o o o X X @ # X # # @ o X X X @ o + X X # # # w # # w w # w 9 # % $ # % % % % w # % % % % % # % % % % % % % @ X O X X X X o X "
};
