/* XPM */
static char *result[] = {
/* columns rows colors chars-per-pixel */
"64 64 119 2 ",
"   c #BDD26F",
".  c #BCD26E",
"X  c #BFD370",
"o  c #C0D470",
"O  c #BED36F",
"+  c #BDD26E",
"@  c #BFD470",
"#  c #C1D570",
"$  c #B5CD6B",
"%  c #B3CC6A",
"&  c #B7CE6C",
"*  c #BAD06D",
"=  c #B4CD6B",
"-  c #B4CC6A",
";  c #B8CF6C",
":  c #C1D470",
">  c #AFC968",
",  c #ABC766",
"<  c #B1CB69",
"1  c #B6CD6B",
"2  c #ADC867",
"3  c #ACC767",
"4  c #B6CE6B",
"5  c #B3CB6A",
"6  c #B1CA69",
"7  c #B0CA69",
"8  c #B2CB69",
"9  c #B9D06D",
"0  c #BBD16E",
"q  c #AAC666",
"w  c #C1D571",
"e  c #BFD36F",
"r  c #B7CF6C",
"t  c #BCD16E",
"y  c #BED26F",
"u  c #B2CB6A",
"i  c #AEC868",
"p  c #AEC968",
"a  c #C0D46F",
"s  c #BFD46F",
"d  c #BFD36E",
"f  c #C1D471",
"g  c #C0D471",
"h  c #C1D572",
"j  c #C5D878",
"k  c #CADA7E",
"l  c #CADB7F",
"z  c #C6D878",
"x  c #C2D572",
"c  c #C6D879",
"v  c #C9DA7E",
"b  c #C5D777",
"n  c #C3D674",
"m  c #CDDC82",
"M  c #D6E290",
"N  c #D7E392",
"B  c #CEDD84",
"V  c #C3D675",
"C  c #C4D776",
"Z  c #CEDD85",
"A  c #D8E392",
"S  c #D6E28F",
"D  c #CCDC81",
"F  c #C2D673",
"G  c #C4D675",
"H  c #D0DE87",
"J  c #DDE799",
"K  c #DFE89C",
"L  c #D4E18C",
"P  c #C8D97B",
"I  c #C8D97C",
"U  c #D4E18E",
"Y  c #DFE89D",
"T  c #DCE698",
"R  c #CFDE86",
"E  c #CCDC82",
"W  c #DAE595",
"Q  c #D1DF88",
"!  c #D1DF89",
"~  c #CBDB81",
"^  c #CFDE85",
"/  c #DBE697",
"(  c #DBE597",
")  c #D5E28F",
"_  c #C9DA7D",
"`  c #D3E08B",
"'  c #DEE79B",
"]  c #DDE79B",
"[  c #D2E08A",
"{  c #C2D573",
"}  c #BED36E",
"|  c #C2D674",
" . c #D5E28E",
".. c #C7D87A",
"X. c #CBDB80",
"o. c #D3E08C",
"O. c #CDDD84",
"+. c #D9E595",
"@. c #D9E495",
"#. c #D2E08B",
"$. c #DDE79A",
"%. c #C5D778",
"&. c #D0DF88",
"*. c #D6E391",
"=. c #D5E18E",
"-. c #D4E18D",
";. c #D7E391",
":. c #D3E18C",
">. c #CDDC83",
",. c #DAE596",
"<. c #D2DF8A",
"1. c #C7D97B",
"2. c #D8E493",
"3. c #D8E393",
"4. c #DBE698",
"5. c #DEE89C",
"6. c #D9E494",
"7. c #DCE699",
"8. c white",
/* pixels */
"  .   X o O + . O @ o o o o o o o o o o o o o o o o o o o o o o o o o o o o o o o o o o o o o o o o o o o o o o o o o o o o # o ",
"$ % &   X * = - ; O o o o o o o o o o o o o o o o o o o o o o o o o o o o o o o o o o o o o o o o o o o o o o o o o o o o o : o ",
"> , < *   1 2 3 % . o : o o o o o o o o o o o o o o o o o o o o o o o o o o o o o o o o o o o o o o o o o o o o o o o o o o o o ",
"> , > 4 ; 5 3 3 - . o : o o o o o o o o o o o o o o o o o o o o o o o o o o o o o o o o o o o o o o o o o o o o o o o o o o o o ",
"& 5 6 7 7 7 8 $ 9 O o o o o o o o o o o o o o o o o o o o o o o o o o o o o o o o o o o o o o o o o o o o o o o o o o o o o o o ",
"O 0 - 3 q 7 ;   X o o o o o o o o o o o o o o o o o o o o o o o o o o o o o o o o o o o o o o o o o o o o o o o o o o o o o o o ",
"w e r > 2 % t : w o o o o o o o o o o o o o o o o o o o o o o o o o o o o o o o o o o o o o o o o o o o o o o o o o o o o o o o ",
"# o t & 1 9 O : # o o o o o o o o o o o o o o o o o o o o o o o o o o o o o o o o o o o o o o o : # : o o o : # : o o o o o o o ",
"o o X O O e o o o o o o o o o o o o o o o o o o o o o o o o o o o o o o o o o o o o o o o o o o @ X @ o o o @ X @ o o o o o o o ",
"o o o : : : o o o o o o o o o o o o o o o o o o o o o o o o o o o o o o o o o o o o o o o o o O * ; *   o y * ; * O o o o o o o ",
"o o o : : o o o o o o o o o o o o o o o o o o o o o o o o o o o o o o o o o o o o o o o o : o 0 - > 8 * e * u > % 0 o : o o o o ",
"o o o o o o o o o o o o o o o o o o o o o o o o o o o o o o o o o o o o o o o o o o o o o # o * 6 q 2 4 t & i q 7 * o # o o o o ",
"o o o o o o o o o o o o o o o o o o o o o o o o o o o o o o o o o o o o o o o o o o o o o : o t = > > u = u > > - 0 o : o o o o ",
"o o o o o o o o o o o o o o o o o o o o o o o o o o o o o o o o o o o o o o o o o o o o o o o O t ; - > 3 > % ; 0 O o o o o o o ",
"o o o o o o o o o o o o o o o o o o o o o o o o o o o o o o o o o o o o o o o o o o o o o o o o o e ; > q p ; O o o o o o o o o ",
"o o o o o o o o o o o o o o o o o o o o o o o o o o o o o o o o o o o o o o o o o o o o o o o o w o t = 6 - 0 o w : o o o o o o ",
"o o o o o o o o o o o o o o o o o o o o o o o o o o o o o o o o o o o o o o o o o o o o o o o o o o O t * 0 O o o o o o o o o o ",
"o o o o o o o o o o o o o o o o o o o o o o o o o o o o o o o o o o o o o o o o o o o o o o o o o o o o o o o o o o o o o o o o ",
"o o o o o o o o o o o o o o o o o o o o o o o o o o o o o o o o o o o o o o o o o o o o o o o o o o o : # : o o o o o o o o o o ",
"o o o o o o o o o o o o o o o o o o o o o o o o o o o o o o o o o o o o o o o o o o o o o o o o o o o o o o o o o o o o o o o o ",
"o o o o o o o o o o o o o o o o o o o o o o o o o o o o o o o o o o o o o o o o o o o o o o o o o o o o o o o o o o o o o o o o ",
"o o o o o o o o o o o o o o o o o o o o o o o o o o o o o o o o o o o o o o o o o o o o o o o o o o o o o o o o o o o o o o o o ",
"o o o o o o o o o o o o o o o o o o o o o o o o o o o o o o o o o o o o o o o o o o o o o o o o o o o o o o o o o o o o o o o o ",
"o o o o o o o o o o o o o o o o o o o o o o o a a o o o o a a o o o o o o o o o o o o o o o o o o o o o o o o o o o o o o o o o ",
"o o o o o o o o o o o o o o o o o o o o o o s d d s o o e d d s o o o o o o o o o o o o o o o o o o o o o o o o o o o o o o o o ",
"o o o o o o o o o o o o o o o o o o o o o o f w w f o o f w w g o o o o o o o o o o o o o o o o o o o o o o o o o o o o o o o o ",
"o o o o o o o o o o o o o o o o o o o o o h j k l z h x c l v b w a o o o o o o o o o o o o o o o o o o o o o o o o o o o o o o ",
"o o o o o o o o o o o o o o o o o o o s s n m M N B V C Z A S D F e s o o o o o o o o o o o o o o o o o o o o o o o o o o o o o ",
"o o o o o o o o o o o o o o o o o o o e e G H J K L P I U Y T R n d e o o o o o o o o o o o o o o o o o o o o o o o o o o o o o ",
"o o o o o o o o o o o o o o o o o o o s s n E M W M Q ! M W S ~ F e s o o o o o o o o o o o o o o o o o o o s e s o o a e e s o ",
"o o o o o o o o o o o o o o o o o o o o o h b v ^ S / ( ) Z _ C w a o o o o o o o o o o o o o o o o o o o a e d s o o s e e s o ",
"o o o o o o o o o o o o o o o o o o o o o o s g c ` ' ] [ z o a o o o o o o o o o o o o o o o o o o o o o h n n { w g x n n { f ",
"o o o o o o o o o o o o o o o o o o o o o o d } | E )  .D { } d o o o o o o o o o o o o o o o o o o o s w c m R l V h ..B Z _ n ",
"o o o o o o o o o o o o o o o o o o o o o o s s w b I I b f s s o o o o o o o o o o o o o o o o o o s d x X.N T o...V O.+.( Q b ",
"o o o o o o o o o o o o o o o o o o o o o o o o o o o o o o o o o o o o o o o o o o o o o o o o o o s d x E @.Y A E _ #.$.$.[ %.",
"o o o o o o o o o o o o o o o o o o o o o o o o o s d d s o o o o o o o o o o o o o o o o o o o o o a e h P &.M *.=.-.M ;.:.~ V ",
"o o o o o o o o o o o o o o o o o o o o o o o o o o o o o o o o o o o o o o o o o o o o o o o o o o o o g { b v ` T ' ;.>.c n w ",
"o o o o o o o o o o o o o o o o o o o o o o o o o o o o o o o o o o o o o o o o o o o o o o o o o o o o o e d | B ,.$.L ..o d o ",
"o o o o o o o o o o o o o o o o o o o o o o o o o o o o o o o o o o o o o o o o o o o o o o o o o o o o o e } g P H <.~ n d d o ",
"o o o o o o o o o o o o o o o o o o o o o o o o o o o o o o o o o o o o o o o o o o o o o o o o o o o o o o o o { C b V w o o o ",
"o o o o o o o o o o o o o o o o o o o o o o o o o o o o o o o o o o o o o o o o o o o o o o o o o o o o o o o o o s s a o o o o ",
"o o o o o o o o o o o o o o o o o o o o o o o o o o o o o o o o o o o o o o o o o o o o o o o o o o o o o o o o s e d s o o o o ",
"o o o o o o o o o o o o o o o o o o o o o o o o o o o o o o o o o o o o o o o o o o o o o o o o o o o o o o o o o o o o o o o o ",
"o o o s s a o o a s s o o o o o o o o o o o o o o o o o o o o o o o o o o o o o o o o o o o o o o o o o o o o o o o o o o o o o ",
"o o s d d e o o s d d s o o o o o o o o o o o o o o o o o o o o o o o o o o o o o o o o o o o o o o o o o o o o o o o o o o o o ",
"o o w h x h g o w x x w o o o o o o o o o o o o o o o o o o o o o o o o o o o o o o o o o o o o o o o o o o o o o o o o o o o o ",
"a h z X.D 1.{ h c D ~ ..x a a o o o o o o o o o o o o o o o o o o o o o o o o o o o o o o o o o o o o o o o o o o o o o o o o o ",
"e { D ;.@.H b G B 2.3.B V s e o o o o o o o o o o o o o o o o o o o o o o o o o o o o o o o o o o o o o o o o o o o o o o o o o ",
"d n Z 4.Y ) v I :.5.$.Q C e e o o o o o o o o o o o o o o o o o o o o o o o o o o o o o o o o o o o o o o o o o o o o o o o o o ",
"e { l -.6.*.` [ M 6. .D n s s o o o o o o o o o o o o o o o o o o o o o o o o o o o o o o o o o o o o o o o o o o o o o o o o o ",
"o w V 1.m =.4.7.M B I C h o o o o o o o o o o o o o o o o o o o o o o o o o o o o o o o o o o o o o o o o o o o o o o o o o o o ",
"o o s a C Q J ' ` c o e o o o o o o o o o o o o o o o o o o o o o o o o o o o o o o o o o o o o o o o o o o o o o o o o o o o o ",
"o o d } h l o.-.D n } d o o o o o o o o o o o o o o o o o o o o o o o o o o o o o o o o o o o o o o o o o o o o o o o o o o o o ",
"o o a s f G ....C w a a o o o o o o o o o o o o o o o o o o o o o o o o o o o o o o o o o o o o o o o o o o o o o o o o o o o o ",
"o o o o o o o o o o o o o o o o o o o o o o o o o o o o o o o o o o o o o o o o o o o o o o o o o o o o o o o o o o o o o o o o ",
"o o o o o s d d s o o o o o o o o o o o o o o o o o o o o o o o o o o o o o o o o o o o o o o o o o o o o o o o o o o o o o o o ",
"o o o o o o o o o o o o o o o o o o o o o o o o o o o o o o o o o o o o o o o o o o o o o o o o o o o o o o o o o o o o o o o o ",
"o o o o o o o o o o o o o o o o o o o o o o o o o o o o o o o o o o o o o o o o o o o o o o o o o o o o o o o o o o o o o o o o ",
"o o o o o o o o o o o o o o o o o o o o o o o o o o o o o o o o o o o o o o o o o o o o o o o o o o o o o o o o o o o o o o o o ",
"o o o o o o o o o o o o o o o o o o o o o o o o o o o o o o o o o o o o o o o o o o o o o o o o o o o o o o o o o o o o o o o o ",
"o o o o o o o o o o o o o o o o o o o o o o o o o o o o o o o o o o o o o o o o o o o o o o o o o o o o o o o o o o o o o o o o ",
"o o o o o o o o o o o o o o o o o o o o o o o o o o o o o o o o o o o o o o o o o o o o o o o o o o o o o o o o o o o o o o o o ",
"o o o o o o o o o o o o o o o o o o o o o o o o o o o o o o o o o o o o o o o o o o o o o o o o o o o o o o o o o o o o o o o o ",
"o o o o o o o o o o o o o o o o o o o o o o o o o o o o o o o o o o o o o o o o o o o o o o o o o o o o o o o o o o o o o o o o "
};
