/* XPM */
static char *result[] = {
/* columns rows colors chars-per-pixel */
"64 64 238 2 ",
"   c #54533F",
".  c #58652D",
"X  c #423C62",
"o  c #55584F",
"O  c #4C4A56",
"+  c #595959",
"@  c #4F515D",
"#  c #5B6449",
"$  c #65675A",
"%  c #6C7247",
"&  c #4D4D6C",
"*  c #514B66",
"=  c #4D506A",
"-  c #595666",
";  c #4F4E71",
":  c #4D4775",
">  c #52467B",
",  c #554B78",
"<  c #595377",
"1  c #625D65",
"2  c #6B5D7D",
"3  c #746E79",
"4  c #77767C",
"5  c #6B696E",
"6  c #BDE03B",
"7  c #C0E03F",
"8  c #959275",
"9  c #ADB174",
"0  c #BED74C",
"q  c #B9CF5E",
"w  c #BDDA52",
"e  c #BCD65A",
"r  c #B3CE4D",
"t  c #AFC765",
"y  c #B1C763",
"u  c #B2C966",
"i  c #B5CC6A",
"p  c #B9CF6C",
"a  c #BBCF63",
"s  c #BDD365",
"d  c #BDD36D",
"f  c #BED86C",
"g  c #B9D464",
"h  c #BCCE7A",
"j  c #B9CD77",
"k  c #BDD372",
"l  c #BED975",
"z  c #BED47B",
"x  c #C2DE48",
"c  c #C2D55C",
"v  c #C2DA5D",
"b  c #C5DD5A",
"n  c #C6E25B",
"m  c #C4E14B",
"M  c #C2D665",
"N  c #C2D964",
"B  c #C1D66D",
"V  c #C3D96C",
"C  c #C8D86B",
"Z  c #C6CE7B",
"A  c #C7CC7B",
"S  c #C1D672",
"D  c #C4D973",
"F  c #C2D47B",
"G  c #CAD47C",
"H  c #C5D97B",
"J  c #CADC7E",
"K  c #CBD972",
"L  c #CED776",
"P  c #C8E165",
"I  c #CBE079",
"U  c #564989",
"Y  c #595384",
"T  c #574692",
"R  c #5C4D94",
"E  c #5A4B9A",
"W  c #4C4080",
"Q  c #665A88",
"!  c #6B5C94",
"~  c #655A99",
"^  c #6A6484",
"/  c #756A8B",
"(  c #7B7588",
")  c #776896",
"_  c #7C7498",
"`  c #6E609B",
"'  c #574BA2",
"]  c #6659A6",
"[  c #6B58B7",
"{  c #6E63AB",
"}  c #7364AC",
"|  c #766AAA",
" . c #796CA6",
".. c #7D73A6",
"X. c #7268B4",
"o. c #7B72B1",
"O. c #6F67B4",
"+. c #5A46C3",
"@. c #7163D3",
"#. c #81788C",
"$. c #867B97",
"%. c #8579A9",
"&. c #8273B6",
"*. c #8D868D",
"=. c #8C829C",
"-. c #878095",
";. c #958A9B",
":. c #9D959E",
">. c #A59D9A",
",. c #AEA89A",
"<. c #B0AA8E",
"1. c #8D84A7",
"2. c #9388A7",
"3. c #9A94AC",
"4. c #9993A4",
"5. c #9484B5",
"6. c #998DB3",
"7. c #9387B9",
"8. c #9C91B5",
"9. c #9C97B7",
"0. c #A39AA6",
"q. c #A39AB5",
"w. c #ACA5A5",
"e. c #A9A5A7",
"r. c #AAA3B6",
"t. c #B8ABB8",
"y. c #BCB4B2",
"u. c #BAB5B9",
"i. c #B9B1A8",
"p. c #C4BCA6",
"a. c #DEB9A8",
"s. c #C2BCB3",
"d. c #C2B8B9",
"f. c #DAB8B9",
"g. c #C2AFB3",
"h. c #E1BAAE",
"j. c #E3BFB1",
"k. c #BECD8D",
"l. c #BCC985",
"z. c #BED485",
"x. c #BED191",
"c. c #BEC5A4",
"v. c #BFC0B8",
"b. c #C1CE8B",
"n. c #C3CE85",
"m. c #C3D383",
"M. c #C4DA82",
"N. c #CCDC83",
"B. c #C3D28A",
"V. c #C9D786",
"C. c #D5DE87",
"Z. c #C2CD93",
"A. c #C3CD9A",
"S. c #C6D293",
"D. c #C4D199",
"F. c #C8D497",
"G. c #DDDE92",
"H. c #CEE182",
"J. c #D2E386",
"K. c #D4E48C",
"L. c #D7E78A",
"P. c #DBEB93",
"I. c #EAF186",
"U. c #E0E587",
"Y. c #C4CDA3",
"T. c #C3C5AD",
"R. c #C7C9AB",
"E. c #DFC6A9",
"W. c #CAD2A8",
"Q. c #C3C3B5",
"!. c #C7C7B8",
"~. c #D2CBBC",
"^. c #DACEB9",
"/. c #D5D3B5",
"(. c #D9D5B3",
"). c #D5D2BD",
"_. c #DBD6B9",
"`. c #D5D6AE",
"'. c #E6CBB2",
"]. c #E8C9B8",
"[. c #EDD4BB",
"{. c #F4DDBD",
"}. c #F2D3BB",
"|. c #E8D2A9",
" X c #F5F7AB",
".X c #ECEBBC",
"XX c #E6E2B9",
"oX c #F4EDBD",
"OX c #FAECBE",
"+X c #F7E6B9",
"@X c #EFF4BB",
"#X c #EFF5B7",
"$X c #F3F4B5",
"%X c #F5FAB5",
"&X c #F4F4BC",
"*X c #F9F7BA",
"=X c #F7E9A5",
"-X c #9988C3",
";X c #9E97C3",
":X c #A69EC2",
">X c #B9A9C2",
",X c #BEB3C6",
"<X c #BCB6D0",
"1X c #ACA0E2",
"2X c #C4B8C7",
"3X c #E0BBCC",
"4X c #C6C6C2",
"5X c #CAC5C6",
"6X c #D3CDCA",
"7X c #D3CFC6",
"8X c #D5D2C1",
"9X c #DFD9C4",
"0X c #D8D4C9",
"qX c #DCD3D7",
"wX c #D1CED7",
"eX c #E5D9C6",
"rX c #F4DCC1",
"tX c #EADCD1",
"yX c #E6E2C5",
"uX c #EDEBC3",
"iX c #ECE7CB",
"pX c #F2EEC5",
"aX c #FBEAC4",
"sX c #F2EDCD",
"dX c #F9E7C6",
"fX c #F4F3C3",
"gX c #FAF5C5",
"hX c #FAFAC3",
"jX c #F5F2CB",
"kX c #FAF4CB",
"lX c #FAFAC9",
"zX c #EBE6D5",
"xX c #F8EBD8",
"cX c #FCFAD1",
"vX c #F7F3D3",
"bX c #EFF2C3",
"nX c #D6CDE6",
"mX c #F1EAE5",
/* pixels */
"l k j l l k k d S S S S B S S S z.k e N f D M B F Z F B M s V B c C Z F F B V B F n.b.n.G S f l B B S K S S S S S S D B S S B S ",
"i i i k l k u i p d B S S S K S z k f N s V S G F G B B B B V f M B S S B B f B S F F F B B k z S S B S S S S B S S S S S S S S ",
"t t i k k i u y i S S S S S S S f l z k N N S F K B B S S S f l G B M M B B B M C M C C B B F z K S S S B S S S S S S S S S S S ",
"i t t i p i u y i d S S S S S S M l B.F V g B D Z B S S B B S B.F B B S S S B B S M c c N S F B B S S S S S S B S B S S S f D S ",
"i i i t i i u i d S S S B S K Z M B z.m.S B M B S Z l S M s z z.S S G F F S S G S M N M B G B N S S S S S S S k D S k S S B S S ",
"l k i u y y p d k D S S B S S B M B S F F C M C m.n.F B N D D F c B z S B B F F F B M B B M M N S S S S k B S S f S B D S S S S ",
"l l i u i i d S S S S B S D S B B B B S S B B S m.m.k B k F l s v B F B c M S n.S B B B B N C S S S S S S S S S S S k B B k k B ",
"l l k i u d k D S S S B S S B Z G S M M B C S F m.F B B S F F B F l S S D S S B B z S B B B F F S S k S S S S S S S S S D S S D ",
"S S D k k S S S S B S S k S S k S S S M M B S F S S S S N V z.x.Q.x.x.D.T.W.A N B D k f l z z S k k k l F S S S d S S S S S S S ",
"S S k S S S S S S S B D D B B D B Z S S S S B M M S m.D e s S.1 = + o + * O W.G M N l l j j J d k p d k f d p p p S S S S S S S ",
"S S B S S S S S S S S k S D S S G S F S S S M c N C S S s V.T./ _ _ _ ( #.#.2 T.l w g z.M.l M p i u i p S p u u i B B B B S S S ",
"l S k D S B S B S S B S k B S k S S F F S M B C s N N N.A.$ #.e.w.,Xt.t.g.t.6.3 x.f P f k F a M u t t i k p y y u p S S S S S K ",
"B S B S S S S S S B S S B D k B l S S S B B S F D e N S.* U 1.T.uXyX+X{.pX9Xt.#.1 x.g w I M.F M i t t i i u u u i p S S S B S S ",
"S S S S S B S S S D k S S S S S F S B B B k F z.m.G n.Q.U E 1.R.OX X=XOX{.{.p.>.=.4 l.N p z.A c k p j u t y i k p S S S S S S S ",
"S S S S S K B k k B B S S S D f D f N N k F F F h F.O , U ! $.!.OX=X|.'.j.].E.^.u.1.5 c.z.D L C l l i u t u p S S S S B B B K S ",
"B S B K S S S S S D S S S S S S B N v g F z.F V F $ | [ ~ 3 :.nX=X{.3X3Xf.f.rXdX9X3.~ = D.N c A l l k i u i k k D D S S B Z B S ",
"S S S S S S S B S S k S S k S S S f D B f S B.R.5 _ 4.e.e.e.Q.XXdX}.a.a.h.h.}.aX8X8.] ; n.x v b.l k f p s k S S S S S B k B S k ",
"S S B S S S S S B D B D D B S S D p f V M J l.o ^ 6.5XyXtX9XyXfX+X}.E.h.h.j.}.+X].9.] ; Z.b N n.l k B k k f S S B S D k S D S S ",
"S S S S S B S S S k B S S D S S S F S K q F R.O ^ 6.0XlXlXhXfXfX+X{.'.'.].].{.OX).8.~ ; A.v N Z S S S D S D S S S S S B S B D B ",
"B S S S S S S S S S S S k B S f S F d C M S T.< ~ 8.8X%X X%X*XhXpXaX+X}.{.{.aXOX_.8.] = x.e N m.S S S S D S S B S S S S D S S k ",
"B D S S S S S B S S S S k S D k B H z s N G c.* ! 3.).%X X%XfXfX&XfXdXaXOXaXkX*X/.3.~ = z 7 v b.S B D f S S k S S B S S k S S D ",
"S k S B S S S S f D S S B S B S N S F f c K R.- Q 4.).&X%X#XfXbX@XkXfX*XOXgXgXOX`.3.~ = F 0 n z.S D S S S S D S S D k B B S S f ",
"k D S S S S S S S S D S S D B S V p Z D C F T.O Q :.8XjXhXhXfXkX@XfXfXfX&XfXlX@X`.3.~ ; A.c C n.D D S S k S S D k D k D S S S S ",
"S B S S S S f D S B k S B k D k s H F S F A.4X> Q 4.).jXcXfX.XfX@X&X&XfXfXfXhXlX).3.~ U 4XZ.Z S k S B S D B S S S B S B S S S S ",
"S B D S S D f S k S B S S S S S l F k F Z.$ : U 2 :.^.jXcXkXlX@X#X%X@XfXsXaXlXfX6X8.! U U 1 b.c S S S S S S B k S k S S S S S S ",
"k S B k S S S S S S S S S S B S l s J B.s.< T R Q >.(.fXvXsXuXfX@X#X&XfXsXjXfXjX6Xq.! T T * A.b B S S S S S S B S B S f S f d S ",
"S S S S S B S S D S D k S S S S S N q S.1 T ]  .:.i.XX.X_.s.~.yX&XfX@XfXpXfXlXjX0X4.! U < + n.C k B k B S D S S S k B S S S S S ",
"D B k D S S S S f S S B S f D S B w N D.X ' &.0.R.XX$X(.,.#.>.8XjXjXjX&X$X&XgXfXE.0.! > s.V.C G k S S S S f S S D S D S S D S S ",
"f S S k B D S S S S k S D B k B V w v A.Y ' %.p.uXhXgX(.>.#.:.~.jXvXjX*X X$XgX&X(.0.! , R.B s F D S S S S S S S S S S S S S S S ",
"S S S S k S f S S S S B S k D S F b e x.: E $.Y.fXlXfXXXp.,.d.9XjXjXpX&X$X$XgXfX^.;.` > o F.H l D f S S S f k B B B k S B S S f ",
"S S S S B S k S S B S D S D k S k.g n S.: R =.i.sXcXkX&XXXeXyXbXfXfX@XfXfX&XhXjX8X0.Q T R ; x.m S S S S S D S S k S S f S S k B ",
"S S B S D S B D S S k S S B S B c.P 0 B., T $.p.xXmXkX%X*XlXlX#XpX$X#XjXjXfXhXvXqX0.2 T +.' c.6 B k S B S B S S S S S D S S S S ",
"S S S S S S S S S S S S S S k S M.a C D.O Y =.i.bXlX@X*XlXcXcXbXdXdX{.dXdXkX*X%X).9.] , # z V f S K S S G H N.J.V.M.Z V.C.N.N.F ",
"S S S S S S S S S S k S F S S S G M C B.Q.< ( s.zXsXuXbXuXyXyX9XeXeXrXeXtXtXpXfX6X3.^ O x.z F F S S S S K N.K.P.K.V.M.N.K.P.J.M.",
"S S S k S S S k S S D S B S D B h C n B Y.$ ( 4.r.u.u.y.y.Q.v.,Xg.g.g.3X2Xy.y.t.:X$.$ b.V.M.Z h Z S S A F N.P.P.P.N.N.J.P.P.K.M.",
"S S B S S S D B S S k B S S k S M.f r V M.c.~.3 ( $.1.2.2.2.1.1.%.;.%.%.5.;.$._  .2 A.C q S V.F C B B p D H C.K.K.K.K.K.L.J.N.G ",
"S k B D S S S k B S S S S B k B z l N P B n.Y.5 3 ( ..|  . .| | | | ..&.%.-.-._ X.) A.M C k F F B S B B S G F J K.K.P.L.J.G G F ",
"S S S S B S S S S S B k S S D S z.l l q C B A 9 8 ;...{ { | { { O.O.{ o.q.t.t.:X-X%.1 Z.C M f k B B Z S S S S G H.P.I.J.H S k S ",
"S f k B S S S S S D D S S S S S z z l D C C K L C.<.1.| | ....o.o.X.o.2.Q.zXzXnX2X5.~ - m.x P M.K Z B K S S S S J H.J.J G S S G ",
"S S S D S S S f S B k S S S B S z.z l f C C C I.C.<.%...1.0.0.;X9.;X:Xy.(.vXmXzX2X5.[ W Z.x w x.S B B S Z B S Z F F F G B S S B ",
"S S S d k S S S S S f S S S k S j l S M B B L I.L <.$.#.2.a.9XwX).7X7X_..XsXxXzX5X-X[ X x.n g x.B B S S S S S S f S S B S k S S ",
"f S S B S S S B S S S S S B S S l D M M K A A U.G.<.2 ) w..XfXkX@X@X#XlXjXpXxX6X>X-X! + S.g f M.k D k S S S k S d S k S S S S S ",
"S S S S S S S S S S D S S S B S f V M M L A A L n.8 2 $.t.XXhXhX*X X XhXvXvX/.r.-X%.1 Z.z H k p D B S S S S S S S B S S S S S B ",
"S S S k S S S S S S S S S k S S B B B B F G A C A % 1 / t.tXcX$X$X%X*XfXuXyXy.2.` - Y.B g D z.D S S S S B S S S S S S S S S S B ",
"S S k k k d B S S k S f S S S S B S B S F F B M S Z.  ( q.2X8XuX&XsXzXyXXXT.0.^ @ R.h S C V a k k S S S S S S S S S D S S S B S ",
"S S F D S F S S k F F S F S F S S S S z F S B B S H S.T.#.6.r.~.zXmXmX6Xw.*.4 7XY.n.N.d e N B F F B S S S S S S S S f S B f S B ",
"k F H I J J F F H I I J S S S F G f k D f f D z l s s Z.- ! %.,XnXnXwX<X1.Q o x.Z K d D V M S F S S S S S k B S S S k B B k B S ",
"k D I L.L.I H D I L.L.I F k S S F d f f d f l z.z.N v S !.Y ..6.1X:Xe.7.O.Y c.f v s D f B B F S S z S S S S S S D S S D B B S B ",
"k F J.L.P.K.V.V.C.P.P.J.D S B B B f B S S S S S B B S h V.k.Z.% @.@.X.^ R.m.S S F S k F z.m.F f S S S S S S S S S B D f S S k S ",
"S F N.L.P.K.C.K.K.P.L.H G B S k B B S S S S S B p B K p M.S.l.. < < @ # j K B B B S S S F F B M S S S S S f S S k D S S S S B S ",
"S F D H C.K.P.P.K.C.V.G G S S B B S S S F S S B V f B D F j F.B.k.F.S.z D e e V S S S S F F B v S S S S S S S S S S D S S S S S ",
"S S S F m.C.P.P.K.V.F z S S B B B S S S z S S S B s V D S h k z.P f s N N N B S F S B B S k f N B S k S S S S B B S k B S B k D ",
"S F S p F N.C.K.N.S S Z S S B S B S S S S F S B V C N g s J H G e s B D s d S F l B B B B S B M S S B k S S S S D S S S D S S S ",
"S S Z S G G M.G G Z S S S S B S B S S z F k F S M f C V B s u B f k z F m.F M.F S B s M f S S S S S S S B D S S k B k B f S S S ",
"S S S S B G S S G B Z B S S B S B S f F S l S S d B B s B V V B F H V.z.F z k S B N v N B F F F S S S S k S D S B S k D D k S S ",
"F B S S S S k S S S S S B B S B B B S B S F F S S D V s B f D B s D d S S H s V N N g V B F z F D f S S S S f S S S S S B S S B ",
"S B S S S k F S S S S k B S B S B B B B S F F k S S S B S B B B N N s V V B B B B B B B B S F z f D S B S S D S D f S k D S k D ",
"S S S S S S B S S S S S S B S B B B f S S S S S F S F f S S S S B B M B f S S S S S z S S B B S S S S k S S f S S S S S B S S B ",
"S S S S S B D f B B S S S S S K B B B S S k F F k F S F F k S S F S S S S F S S S F F z S B M B S S S D S k k B S S S B k S S k ",
"S K B D S S B B d S B S S S B S B B f B B S S S S S F S F S k F m.z S S F z S S z F F F S B f B S S S S B S D S S S S S B S D B ",
"S B B S k B f k S S f S S S S S f B B B f S B S S F k S F S S S F S V B S f B M M S F S k B B F S S S k B D k S S S k S D B S D ",
"S Z S S D B D f f f S S S S S S D S B B B B B B S S S S k S S B S f M N B B M N N B l F B B S F S B B D S S S B k D B S S k f S ",
"K S S S S k B f S B B S S B S A S S S B B B B B B S S S B B B B S B s N S l k N M k S S V B B z S S S S S S S S B D S S S S S S ",
"Z S S S B f D B B k B S S B Z K k F S B B B B B f B B B B B B B S f B B F F F B B S F S f N V F k B D k S S S f S S S B S S S S "
};
