/* XPM */
static char *image__1_1683203268[] = {
/* columns rows colors chars-per-pixel */
"64 64 176 2 ",
"   c #631C47",
".  c #621748",
"X  c #641A48",
"o  c #6C1B48",
"O  c #741E48",
"+  c #662748",
"@  c #6B284D",
"#  c #742349",
"$  c #792149",
"%  c #7B2E4A",
"&  c #6D334C",
"*  c #6E3D4A",
"=  c #7D3449",
"-  c #734C4D",
";  c #785A4D",
":  c #774352",
">  c #774C52",
",  c #795F62",
"<  c #6F776E",
"1  c #77766A",
"2  c #852549",
"3  c #892749",
"4  c #832B4A",
"5  c #8D2949",
"6  c #942C4B",
"7  c #9A2E4B",
"8  c #8F354D",
"9  c #8E3A49",
"0  c #95334C",
"q  c #9D304B",
"w  c #953C4C",
"e  c #8C3B52",
"r  c #A3324C",
"t  c #AC364C",
"y  c #B0374C",
"u  c #B4394D",
"i  c #BB3C4E",
"p  c #C13F4E",
"a  c #8F494B",
"s  c #91474D",
"d  c #99454F",
"f  c #934B4D",
"g  c #81534F",
"h  c #94544E",
"j  c #9D534D",
"k  c #925A4E",
"l  c #834C59",
"z  c #9A4350",
"x  c #9C4C51",
"c  c #81555D",
"v  c #955352",
"b  c #9C5352",
"n  c #925857",
"m  c #BD424E",
"M  c #BA474E",
"N  c #B35D4F",
"B  c #A24A50",
"V  c #8A624D",
"C  c #966350",
"Z  c #936850",
"A  c #9C6E54",
"S  c #867653",
"D  c #887A54",
"F  c #9C7756",
"G  c #917D5B",
"H  c #A36556",
"J  c #B56552",
"K  c #BA6453",
"L  c #B46C54",
"P  c #B76D58",
"I  c #A67559",
"U  c #C7424F",
"Y  c #C6484F",
"T  c #C64750",
"R  c #C45853",
"E  c #C4745A",
"W  c #6D8E6E",
"Q  c #728E63",
"!  c #72826C",
"~  c #6F936F",
"^  c #7B9965",
"/  c #658B76",
"(  c #658D78",
")  c #6C9777",
"_  c #679178",
"`  c #6B9678",
"'  c #7EA767",
"]  c #76A575",
"[  c #74A378",
"{  c #7AAF78",
"}  c #7DB378",
"|  c #958657",
" . c #998055",
".. c #93845B",
"X. c #979459",
"o. c #959859",
"O. c #9D9D5A",
"+. c #A18458",
"@. c #A18D59",
"#. c #AC8A5A",
"$. c #A5935D",
"%. c #A9915D",
"&. c #A39E5B",
"*. c #9DA35D",
"=. c #A4A35C",
"-. c #A8A75D",
";. c #A5AB5F",
":. c #AE9362",
">. c #AB9A60",
",. c #A79568",
"<. c #A79A6F",
"1. c #AA9B75",
"2. c #B59772",
"3. c #89AD66",
"4. c #89B46F",
"5. c #97B264",
"6. c #9BB465",
"7. c #98B26A",
"8. c #9EBA6D",
"9. c #81B675",
"0. c #81B877",
"q. c #8BBC76",
"w. c #80B878",
"e. c #89BC79",
"r. c #ACA261",
"t. c #ACAD65",
"y. c #AAA76D",
"u. c #B6A563",
"i. c #A1B563",
"p. c #ABB663",
"a. c #A4BA66",
"s. c #A8BD67",
"d. c #A4BD6A",
"f. c #B3B366",
"g. c #B7B967",
"h. c #B7B468",
"j. c #B6BF69",
"k. c #AFA07A",
"l. c #B6B478",
"z. c #C29C62",
"x. c #9BC06F",
"c. c #90C17A",
"v. c #ADC766",
"b. c #AEC867",
"n. c #ABC56B",
"m. c #AFCA6B",
"M. c #B1C967",
"N. c #B5C469",
"B. c #B9C369",
"V. c #B4CB6A",
"C. c #BACD6C",
"Z. c #B7D06F",
"A. c #BED36E",
"S. c #A5C272",
"D. c #AECB73",
"F. c #A6CE7E",
"G. c #B2CD72",
"H. c #AFD17D",
"J. c #BED470",
"K. c #B1D37E",
"L. c #C1D56E",
"P. c #C0D570",
"I. c #C6D874",
"U. c #C5D77A",
"Y. c #C8D77A",
"T. c #C9D97E",
"R. c #B1D480",
"E. c #CDDB83",
"W. c #CFDD88",
"Q. c #D1DF87",
"!. c #D1DE89",
"~. c #D4E18D",
"^. c #D6E292",
"/. c #D9E493",
"(. c #DCE898",
"). c #DCE99A",
/* pixels */
"J.J.Z.L.A.A.A.J.Z.J.P.P.P.P.P.P.J.I.J.L.L.L.P.P.P.P.P.P.P.P.P.P.P.P.P.P.P.P.P.P.P.P.P.J.P.P.P.P.P.P.P.P.L.P.P.P.P.P.P.P.P.P.P.P.",
"V.M.C.A.A.A.V.M.A.A.J.L.P.P.P.P.P.P.J.J.P.P.P.P.P.P.P.P.P.P.P.P.P.P.P.P.P.P.P.P.P.P.P.L.P.P.J.L.P.P.P.P.A.L.P.P.P.P.P.P.P.P.J.L.",
"b.v.M.C.Z.Z.b.v.V.C.A.L.P.P.P.J.P.L.P.P.P.P.P.P.P.P.P.P.P.P.P.P.P.P.P.P.P.P.P.P.P.P.P.L.P.P.P.P.J.V.R.H.S.i.P.P.P.P.P.P.P.P.P.P.",
"b.b.V.V.Z.V.v.v.V.A.A.L.P.P.P.L.P.P.P.P.P.P.P.L.P.P.L.P.P.P.P.P.P.P.P.P.P.P.P.P.P.P.P.A.P.P.P.P.C.V.R.H.S.i.P.P.P.P.L.J.P.P.P.P.",
"Z.m.V.m.m.m.V.V.A.J.J.L.J.J.P.P.P.P.J.P.P.P.P.P.P.P.P.P.P.P.P.P.P.P.P.P.P.P.P.P.P.P.A.C.Z.V.V.Z.V.m.R.H.S.i.C.C.A.P.P.P.P.P.L.J.",
"A.Z.V.M.b.M.Z.J.J.L.L.J.L.L.P.P.L.P.P.P.L.P.P.P.P.P.P.P.P.P.P.P.P.P.P.P.P.P.P.P.L.Z.n.5.5.6.a.d.a.d.R.H.S.6.a.a.V.P.P.P.P.P.P.P.",
"P.J.Z.M.m.M.A.J.J.L.J.J.J.P.P.P.P.P.P.P.P.P.P.P.P.P.P.L.P.P.P.P.P.P.P.P.L.P.P.J.P.Z.x.9.9.q.c.F.H.H.R.R.K.H.H.K.G.A.L.J.P.P.P.P.",
"I.P.Z.V.V.A.A.L.P.P.J.J.I.I.P.P.P.P.P.P.P.J.P.J.P.P.P.P.P.P.P.P.L.P.P.P.P.P.P.P.L.Z.x.9.0.q.R.R.R.R.R.R.R.R.R.K.G.A.P.P.P.P.P.P.",
"L.J.J.L.J.J.J.P.P.P.P.P.P.P.P.P.P.P.P.P.L.P.L.P.P.P.P.P.P.P.P.P.J.P.P.P.P.P.V.i.7.7.4.} } c.R.R.R.R.R.R.R.R.R.R.V.A.P.P.L.P.P.P.",
"L.L.J.J.L.L.J.P.P.P.P.P.P.P.P.P.P.P.P.P.P.J.P.P.P.P.P.P.P.P.P.P.P.P.P.P.P.P.s.^ W ~ ] 9.} e.R.R.R.R.R.R.R.R.R.K.D.C.P.P.L.P.P.J.",
"L.J.P.J.J.L.P.P.P.P.P.P.P.P.P.P.P.P.L.P.P.P.P.P.P.P.P.P.P.P.P.P.P.J.P.P.P.P.a.Q / _ ] 9.} e.R.R.R.R.R.R.R.R.R.R.n.V.J.P.L.P.P.P.",
"P.P.L.J.L.L.P.L.P.P.P.P.P.P.P.P.P.J.P.P.P.P.P.P.P.P.P.P.P.P.P.P.P.L.P.P.P.P.a.Q ( _ [ } } } R.R.R.R.R.R.R.R.R.K.n.M.A.P.L.P.P.P.",
"P.P.P.P.P.P.P.J.P.P.P.P.P.P.P.P.P.P.P.P.J.u.I H H H H H P E E E #.E E E E E J v l c 1 ) ) [ e.c.c.c.V.G.G.G.D.m.D.G.K.H.L.L.L.L.",
"L.P.P.P.P.P.P.P.P.P.P.P.P.P.P.P.J.J.P.P.C.%.x 0 0 0 0 0 u U Y Y U Y Y Y U Y M r 6 e , / / ` } w.0.4.V.b.v.v.V.Z.D.H.H.R.L.I.L.L.",
"L.P.P.P.P.P.P.L.L.J.J.L.A.A.P.P.J.A.J.J.C.%.d 6 6 6 6 7 u p U U U U U U U U i r 6 8 , / / ` { } 0.4.Z.b.v.M.G.J.D.H.R.R.L.P.L.P.",
"J.P.J.P.P.P.P.J.P.P.L.L.L.A.s.i.;.;.;.r.;.F w 6 7 7 7 r p U U U U U U U m i u r 6 w , < < ! ^ 3.' 3.A.M.N.V.A.C.d.d.8.d.L.P.P.L.",
"I.J.P.P.P.P.P.P.P.P.P.P.P.J.A f x x d f d w 0 6 q y p p p p U U U U p u q 7 7 6 6 6 8 e e n t.N.M.V.A.Z.A.A.A.P.C.V.V.G.P.P.P.P.",
"J.J.P.P.P.P.P.P.P.P.P.P.P.P.k 0 6 6 6 6 6 6 6 6 q i p p U U U U U U p u 7 6 6 6 6 6 6 6 6 x f.L.P.P.A.L.P.P.L.P.P.P.P.P.P.P.P.P.",
"L.P.P.P.P.P.P.L.J.P.V.j.g.f.v 0 6 6 6 6 6 6 7 7 t i U U U U U U U U p i r 7 7 7 6 6 7 7 7 B u.g.g.B.P.P.P.P.P.P.P.P.P.P.P.P.P.P.",
"L.L.L.P.P.P.P.P.J.J.p. .Z C w 0 6 6 6 6 6 r y u p U U U U U U U U U p p u u y q 6 6 r u u M J L L #.P.P.P.P.P.P.P.P.P.P.P.P.P.P.",
"P.P.P.A.P.P.P.P.P.P.r.V w 0 6 6 6 6 6 6 6 t i p U U U U U U U U U U U U p p p r 6 7 t p U U Y Y Y J L.L.L.P.P.P.P.P.P.P.L.P.P.P.",
"P.P.P.P.P.P.P.P.P.P.r.k 6 6 6 6 6 6 6 6 6 t i U U U U U U Y U U U U U U U U i r 6 7 y T U U U U Y K L.L.L.P.P.P.P.P.P.P.P.P.P.P.",
"P.P.P.P.P.P.J.V.>.:.F s 6 6 6 6 6 6 r t t u U U U U U U U U U U U U U U U U p y t t u p U U U U U N z.z.u.B.L.P.J.P.P.P.P.P.P.P.",
"P.P.P.P.P.P.A.r.x z w w 6 6 6 6 6 7 u i i p U U U U U U U U U U U U U U U U p p p p p U U U U U U Y R R K -.P.A.P.L.P.L.P.P.P.P.",
"P.P.P.P.P.P.L.>.w 6 6 6 6 6 6 6 6 7 i U U U U U U U U U U U U U U U U U U U U U U U U U U U Y U U U U Y N &.P.P.P.P.P.P.P.P.P.I.",
"P.P.P.P.P.P.A.>.0 6 6 6 6 6 6 6 6 7 u i p U U U U U U U U U U U U U U U U U U U U U U U U U U U U U p m N =.P.P.P.P.P.P.P.P.P.P.",
"P.A.P.P.P.P.P.>.w 6 6 6 6 6 6 6 6 6 r r r u p U U U U U U U U U U U U U U U U U U U U U U U U U U i r r j &.P.P.P.P.P.P.P.P.P.P.",
"P.P.P.P.P.P.P.&.w 6 6 6 6 6 6 6 6 6 6 6 6 t i U U U U U U U U U U U U U U U U U U U U U U U U U U i 6 6 f O.P.P.P.P.P.P.J.P.P.P.",
"P.P.P.P.A.C.B.$.w 7 6 6 6 6 6 6 6 6 6 6 7 t p U U U U U U U U U U U U U U U U U U U U U U U U U U i 6 6 a X.C.C.A.P.P.P.P.P.P.P.",
"P.P.P.P.+.+.+.C 6 6 6 6 6 6 6 6 6 7 r t t u i U U U U U U U U U U U U U U U U U U U U U U U U U U i 6 6 w Z +.+.f.A.A.J.A.P.L.A.",
"P.P.P.P.9 9 9 0 6 6 6 6 6 7 6 6 6 7 u p U U U U U U U U U U U U U U U U U U U U U U U U U U U U U i 6 6 6 9 9 w $.A.P.P.P.P.P.P.",
"P.P.P.P.6 6 6 6 6 6 6 6 6 6 6 6 6 7 i U U U U U U U U U U U U U U U U U U U U U U U U U U U U U U u 6 6 6 6 6 w $.A.I.P.P.P.P.P.",
"P.P.A.P.6 6 6 6 6 6 6 6 6 6 6 6 6 6 y i i p p p U U U U U U U U U U T U U U U U U U U U U U U U U p r q 6 6 6 e 2.E.P.Y.W.W.E.L.",
"P.P.P.P.6 6 6 6 6 6 6 6 6 6 6 6 6 6 7 t r i p p U U U U U U U U U U T U U U U U U U U U U U U U U p 7 7 6 6 6 7 2.J.U.E.^.^.W.Y.",
"P.P.P.J.6 6 6 6 6 6 6 6 6 6 6 6 6 6 6 6 6 t p p U U U U U U U U U U U U U U U U U U U U U U U U p i 6 6 6 6 6 q 2.E.E.W././.!.E.",
"P.P.U.U.6 6 6 6 6 6 6 6 6 6 6 6 6 6 6 6 6 t p p U U U U U U U U U U U U U U U U U U U U U U U U p i 6 6 6 6 6 e 2.W.W.^./.!.E.U.",
"P.P.P.P.6 6 6 6 6 6 6 6 6 6 6 6 6 7 r t t t y t p p p p U U U U U U U U U U U U U U U U U U p p p p 6 6 6 6 6 7 2.^.(.^.!.Y.P.P.",
"P.P.P.P.6 6 6 6 6 6 6 6 6 6 6 6 6 r u p p u 7 7 t p p p U U U U U U U U U U U U U U U U U U U p p i 6 6 6 6 6 0 2.^.(.^.Y.L.C.L.",
"J.P.P.P.6 6 6 6 6 6 6 6 6 6 6 6 6 6 i p p u 7 6 r i p U U U U U U U U U U U U U U U U U U U p p p i 6 6 6 6 6 0 %.E.~.E.P.A.L.L.",
"P.P.P.P.2 2 2 3 6 6 6 6 6 6 6 6 6 7 y i u t r r t u p p p U U U U U U U U U U U U U U U U p i i i u 6 6 6 6 6 7 %.J.Y.Y.P.P.P.J.",
"U.P.P.J.o . o O 5 6 6 6 6 6 6 6 6 6 7 7 7 t u p u r 7 q u p p p U U U U p p p U U U U U p p r 7 7 7 6 6 6 6 6 0 %.A.P.P.J.P.P.P.",
"P.P.P.J.. . . O 6 6 6 6 6 6 6 6 6 6 6 6 7 t p p i r 6 6 u p p p U U U U p p U U U U U U p p r 6 6 6 6 6 6 6 6 0 %.A.P.P.P.P.P.P.",
"C.L.P.P.. . . O 5 6 6 6 6 6 6 6 6 6 6 6 6 t i p u r 7 q u p p p U U U U p p p p p p p p p i 7 6 6 6 6 6 6 6 6 0 %.A.P.P.P.P.P.P.",
"P.P.P.A.. . . O 5 6 6 6 6 6 6 6 6 6 6 6 6 7 t t t y y u t t t u p U U U y y y p p p p p t r 7 6 6 6 6 6 6 6 6 0 %.C.P.P.P.P.P.P.",
"P.P.P.L.. . . O 6 6 6 6 6 6 6 6 6 6 6 6 6 6 6 6 r u p p t 6 6 r p p p u 7 6 q i p p t 6 6 6 6 6 6 6 6 6 6 6 6 0 %.J.P.P.P.J.P.P.",
"I.P.P.P.. . X # 5 6 6 6 6 6 6 6 6 6 6 6 6 6 6 6 r u p p t 6 6 7 p U p y 7 6 q u U p t 6 6 6 6 6 6 6 6 6 6 0 8 0 %.C.J.P.P.P.P.P.",
"P.P.Y.E.> - > * 2 2 3 5 6 6 6 6 6 6 6 6 6 6 6 6 q y u u q 6 6 7 p i u t 6 6 q t p u r 6 6 6 6 6 6 6 6 6 0 a h k r.A.P.P.P.P.P.P.",
"J.I.E.^.l.l.y.G # o O 2 6 6 6 6 6 6 6 6 6 6 6 6 6 7 r q 6 6 6 7 q r q 7 6 6 6 q t r 7 6 6 6 6 6 6 6 6 6 a  .f.t.B.P.P.P.P.P.P.P.",
"J.U.E./.(.^.E.,.@ . o 2 6 6 6 6 6 6 6 6 6 6 6 6 6 6 6 7 6 6 6 6 6 6 6 6 6 6 6 6 6 6 6 6 6 6 6 6 6 6 6 0 h O.A.P.P.P.P.P.P.P.P.P.",
"P.P.E.!./.~.!.<.@ . o 2 5 6 6 6 6 6 6 6 6 6 6 6 6 6 6 6 6 6 6 6 6 6 6 6 6 6 6 6 6 6 6 6 6 6 6 6 6 6 6 6 a O.A.L.L.P.P.P.P.P.P.P.",
"P.P.U.Y.~.~./.k.@ . o 2 6 6 6 6 6 6 6 6 6 6 6 6 6 6 6 6 6 6 6 6 6 6 6 6 6 6 6 6 6 6 6 6 6 6 6 6 6 6 6 6 a *.P.P.P.J.P.P.P.P.P.P.",
"P.P.P.P.Y.!./.1.@ . o 2 6 6 6 6 6 6 6 6 6 6 6 6 6 6 6 6 6 6 6 6 6 6 6 6 6 6 6 6 6 6 6 6 6 6 6 6 6 6 6 0 f O.P.J.P.P.P.P.P.P.A.P.",
"P.P.L.A.L.T.!.1.@ X # 2 6 6 6 6 6 6 6 6 6 6 6 6 6 6 6 6 6 6 6 6 6 6 6 6 6 6 6 6 6 6 6 6 6 6 6 6 6 6 0 0 h O.P.P.P.P.P.P.P.P.P.P.",
"P.P.L.L.P.I.Y.y.g : * 4 3 2 5 6 6 6 6 6 6 6 6 6 6 6 6 6 6 6 6 6 6 6 6 6 6 6 6 6 6 6 6 6 6 6 6 6 6 0 b b A -.P.P.P.P.P.P.P.P.P.P.",
"U.P.P.L.L.P.P.L.P.P.*.- X . 2 6 6 6 6 6 6 6 6 6 6 6 6 6 6 6 6 6 6 6 6 6 6 6 6 6 6 6 6 6 6 6 6 6 0 h L.L.P.P.L.P.P.P.P.A.P.P.P.P.",
"P.P.P.P.P.A.A.A.J.P.=.-   . 2 5 5 6 6 5 6 6 6 6 6 6 6 6 6 6 6 6 6 6 6 6 6 6 6 6 6 6 6 6 6 6 6 0 6 h L.L.P.P.P.P.P.P.P.P.P.P.P.P.",
"P.P.P.P.P.P.J.P.P.P.r.; & + % 2 5 5 5 6 5 5 6 6 6 6 6 6 6 6 6 6 6 6 6 6 6 6 6 6 6 6 6 6 6 6 w 9 9 Z P.P.J.P.P.P.P.P.P.P.P.P.P.P.",
"P.P.P.J.P.P.P.P.P.P.s.O...| : # O O O O O 2 6 6 6 6 6 6 6 6 6 6 6 6 6 6 6 6 6 6 6 6 6 6 6 z I @.$.-.P.P.P.P.P.P.P.P.P.P.P.P.P.P.",
"P.P.P.P.P.P.P.P.P.P.L.P.P.L.-   . . . . . O 5 6 6 6 6 6 6 6 6 6 6 6 6 6 6 6 6 6 6 6 6 6 6 x h.P.A.A.P.P.P.L.P.P.P.P.P.A.P.P.P.P.",
"P.P.P.P.P.L.L.P.P.P.P.P.P.L.g +   +   o   $ 5 6 5 6 6 5 6 6 6 6 6 6 6 6 6 5 6 6 0 0 0 0 0 f h.L.J.L.P.P.P.P.P.L.P.P.P.P.P.P.P.P.",
"P.P.P.P.P.P.P.P.J.P.P.P.P.P.X.D D D D S S g % $ # O $ $ $ $ $ $ $ $ $ $ $ $ = V  . . . . .$.B.P.P.P.P.P.P.P.J.P.P.P.P.P.P.A.L.P.",
"P.P.P.P.P.J.P.P.P.P.P.P.P.L.C.C.B.C.V.V.N.G & . o . . o . X . X . X . . . . * X.C.V.V.B.V.C.A.P.P.P.P.P.P.P.P.P.P.P.P.L.P.P.L.P.",
"P.P.A.P.P.P.P.P.P.P.P.P.P.P.J.P.P.P.P.P.A.| & . . . . . . . . . . . . . . . * o.P.P.P.P.A.L.P.P.P.P.P.P.P.P.L.P.P.P.P.P.P.P.P.P.",
"P.P.P.P.P.P.L.P.P.P.P.P.P.P.P.P.P.P.P.P.C...& . . . . . . . . . . . . . . . * o.P.P.P.P.P.J.A.P.P.P.P.P.P.P.P.P.P.J.P.J.P.P.P.P."
};
