/* XPM */
static char *result[] = {
/* columns rows colors chars-per-pixel */
"64 64 234 2 ",
"   c #59613C",
".  c #483E73",
"X  c #54584B",
"o  c #4F4E55",
"O  c #565656",
"+  c #4D524F",
"@  c #625C4C",
"#  c #5D6148",
"$  c #666858",
"%  c #524D64",
"&  c #554E6F",
"*  c #575565",
"=  c #4D4676",
"-  c #544C7B",
";  c #564A75",
":  c #5A527C",
">  c #5D5874",
",  c #4C4765",
"<  c #60507D",
"1  c #676566",
"2  c #726D6A",
"3  c #6E7266",
"4  c #747469",
"5  c #6D6B7A",
"6  c #75737D",
"7  c #706D74",
"8  c #807F6D",
"9  c #BDD64A",
"0  c #BDD55B",
"q  c #BDD556",
"w  c #BACC52",
"e  c #AFC765",
"r  c #B1C763",
"t  c #B2C966",
"y  c #B5CC6A",
"u  c #BACE6C",
"i  c #BACE65",
"p  c #BED464",
"a  c #BDD26D",
"s  c #BBD668",
"d  c #BCCD75",
"f  c #BCCD7B",
"g  c #BED472",
"h  c #BED17C",
"j  c #BED877",
"k  c #C3DC54",
"l  c #C2D55B",
"z  c #C3DA5D",
"x  c #C2D651",
"c  c #C5DD4B",
"v  c #C9E05E",
"b  c #C6CF6F",
"n  c #C2D664",
"m  c #C2D965",
"M  c #C1D66D",
"N  c #C3DA6B",
"B  c #CADD69",
"V  c #C8D868",
"C  c #C3CF7C",
"Z  c #C2CE75",
"A  c #C1D672",
"S  c #C4D974",
"D  c #C2D47B",
"F  c #C6D97A",
"G  c #CADB7D",
"H  c #CAD875",
"J  c #CCE175",
"K  c #CAE16F",
"L  c #503F8E",
"P  c #5B4E8C",
"I  c #554789",
"U  c #5C5488",
"Y  c #5D4C9F",
"T  c #584797",
"R  c #5E5097",
"E  c #665786",
"W  c #634C96",
"Q  c #6A5C95",
"!  c #604E88",
"~  c #6D6685",
"^  c #746B8A",
"/  c #797586",
"(  c #6F6297",
")  c #776B97",
"_  c #7C7594",
"`  c #5A4BA5",
"'  c #6654B3",
"]  c #6C5EAB",
"[  c #796BA3",
"{  c #796BAC",
"}  c #7466A8",
"|  c #7E73A7",
" . c #6F61B0",
".. c #7A6BB3",
"X. c #7568B3",
"o. c #7E71B8",
"O. c #6F60A1",
"+. c #7E6DC3",
"@. c #84799C",
"#. c #867A98",
"$. c #8174AC",
"%. c #867AA7",
"&. c #8879B6",
"*. c #927DB1",
"=. c #8C849A",
"-. c #91889A",
";. c #989597",
":. c #908C8B",
">. c #A19C96",
",. c #B6BA82",
"<. c #8D84A5",
"1. c #8E85A6",
"2. c #9487AA",
"3. c #9B96A5",
"4. c #9687B7",
"5. c #9B95B7",
"6. c #8E80B5",
"7. c #A39BAA",
"8. c #A29AA6",
"9. c #A49ABD",
"0. c #ABA3A7",
"q. c #B6AEA9",
"w. c #BAB5A9",
"e. c #ACA2BA",
"r. c #AAA4B2",
"t. c #B2AAB5",
"y. c #BCB4BC",
"u. c #BCB7B7",
"i. c #D8BB99",
"p. c #C3BCAA",
"a. c #C4BCBD",
"s. c #C3BAB5",
"d. c #DCB8B8",
"f. c #D2B4AE",
"g. c #BDCC83",
"h. c #BECA8D",
"j. c #BBC086",
"k. c #BFD284",
"l. c #BDC797",
"z. c #BFC6A2",
"x. c #C1CC84",
"c. c #C1CD8C",
"v. c #C3D382",
"b. c #CAD486",
"n. c #C5D883",
"m. c #CCDC83",
"M. c #C4D48A",
"N. c #CBD58C",
"B. c #C9DC8A",
"V. c #C3CD93",
"C. c #C4CC9B",
"Z. c #C3C896",
"A. c #C4D191",
"S. c #CAD39C",
"D. c #CAD694",
"F. c #D1DF88",
"G. c #E2CC99",
"H. c #CEE182",
"J. c #D2E386",
"K. c #D4E48C",
"L. c #D8E88B",
"P. c #DBEB93",
"I. c #C6C8A9",
"U. c #C9D2A4",
"Y. c #C9D1AC",
"T. c #C8C7B6",
"R. c #D4D3B3",
"E. c #D9D4BA",
"W. c #DCD7AF",
"Q. c #E6CBA9",
"!. c #E8C9B7",
"~. c #E6D8B7",
"^. c #F0D9AD",
"/. c #EAEEA9",
"(. c #F3E3AC",
"). c #F6F9AB",
"_. c #F4F8AA",
"`. c #EDEBBB",
"'. c #E7E7B6",
"]. c #FBE4BB",
"[. c #FDEDBA",
"{. c #F5E5B8",
"}. c #F3F5B5",
"|. c #F9FBB4",
" X c #F5F4BC",
".X c #F5F8BB",
"XX c #F8F8B9",
"oX c #EEF3B0",
"OX c #E5F090",
"+X c #9A8EC2",
"@X c #A69CC3",
"#X c #A899DA",
"$X c #AEA5C2",
"%X c #B4AAC4",
"&X c #BBB4C4",
"*X c #BCB2D5",
"=X c #C5BAC7",
"-X c #D2BDC2",
";X c #C3B6E2",
":X c #C9C6C9",
">X c #D3CEC2",
",X c #D2CCCB",
"<X c #DFDCCB",
"1X c #DBD5C5",
"2X c #C8C3D3",
"3X c #DAD8D8",
"4X c #D5CFD3",
"5X c #E4DDC7",
"6X c #E3DDD2",
"7X c #F2D5C2",
"8X c #E5E3C5",
"9X c #EDEBC3",
"0X c #EDEBCD",
"qX c #E9E4CA",
"wX c #F4E5C1",
"eX c #F3EEC2",
"rX c #F5E7CA",
"tX c #F3EECB",
"yX c #FAE9C5",
"uX c #F5F3C3",
"iX c #F9F4C4",
"pX c #FBFBC3",
"aX c #F5F3CB",
"sX c #F9F3CA",
"dX c #FBF9C9",
"fX c #ECE6D2",
"gX c #EAE6D5",
"hX c #F3EED2",
"jX c #F3EDDA",
"kX c #F7F4D6",
"lX c #EFF3C0",
"zX c #D3CAE2",
"xX c #E2DCE5",
"cX c #EFEBE2",
/* pixels */
"j g g j j g g a g g M A A S A M v.D A M a M g D v.x.D F A A b A v.A m z s M A A S h D A V n n D M A b A A A M A A A A A A A A A ",
"y y y g g g y y a a A A A A H A h S A M M M M M A D D A A M M V A A j A N N a M A D D A A M M M A M b A S M A A A A M A A A A M ",
"e e y y g y t r y a A A A b A M A A A g M M m m n V b D D M N m n A h h A m m M M A M D A H M V A A A H A A A M A A A A M A A A ",
"e e y y a y r r y a A A A A A A M M M A M M N M M A D D D S M M s S v.D S M N M M M V A x.C A V A A A M A A g A M A A A A A A A ",
"d y t t t y t y a A A A A A A H M M M A A M D D D D S S g A N M g S A A g A A g m m m M D C A M A A A A A A A A M A A A A A A A ",
"j g y t e y a a A A A A M A A A n M M M g D A j A A g N N a s N v.A m p M D D A m p m a H A A D A M A A M A A A A A A A A A A M ",
"j g y y t y a A A A A A A A A M M M M A S A M N M M N g g M g g v.a m z M h D D M N M n n M D h A A A g A A A A A A M M A A A S ",
"j g a y y s g S A A M A A H A A M M A g A A M N n s g A S h F h M n n M A D A M A A M M n n D k.A A A S g A A A A A j A A M M j ",
"M j A g A A A A A A A A A A A A A A A A S A u D S A g a S S j v.c 0 g n.S M M A F D A N m M S S A j A A A A a a g M A A A A A A ",
"A A A A A M A A A M A A A M A A g.v.S a p A n.n.v.g B k k m m a 9 K g.k.d p B a D h A M A a M M g y a j g g a a s g A A M A A A ",
"A A A A A A A A A A A M M S A A M.g.g M M a S a F a V z w z V n V A d M.m.A i F D S g S D A M p y e y y A a y t y a M A A A A A ",
"A A A A A A M S A A A g A A M g g D F j a l m B p D M.A.S.h.D.c.Z.M.G M u f v.g a M g S D A M p r e e y g y r r t a A A A M A H ",
"A A A A M A A A A A A M j A A M p B K g j B q m A S.O * = : & % O l.h N F B.M.D M n M D S g a a y e e y y t r t y a A A A A A A ",
"M A A A A A A A A A A A M A A A z 0 s g S N a F C.1 ) &.+.+...$./ 4 k.k.d f g a M N A h S g A a g g y t e e y g a A A A M A b A ",
"A A A A A A A A A A A A A M A A g M p N a g D.z.O =.$X%X*Xr.t.t.r.;.3 z.N.S n N N A A S j g g j j j g e e y a g A A A A A b A M ",
"b M H M A M S M M j A M j A A A g.B.p V M B.z.* ^ 3.:X8X/.oX/.}.3X8.5 + h.m k k M A D g D S S g j j g y r y g g A A A M A A H A ",
"A A A A A M A A A N A A j M M j A D n.s S k.3 <.4.f.Q.^.].7X].[.6X0.( T . z.A 0 p F g M N g D M g a a a a a j A M A A A A A A A ",
"M A A A A A A A A M A A A A A A D M s F h.X =.r.-X7X!.!.!.!.].].8X8.Q I I O S.j N M D g A N N M j g a j M g M A A A A A g N A A ",
"A A A M A A A A S g M g A A A A C B k f + U _ u.wX7X!.d.d.!.!.].'.q._ ( ~ ~ 1 z.C i D G D p 0 N A S A A M S A A A A A A N A S g ",
"A A A A A M A A A A A A A M A A b.w k A.& ` o.T.wX].Q.f.d.d.!.].'.I.u.r.3.e.5./ I.m.u A M M N a M M A A S A A A A A M A j A A M ",
"A A M g A A M A A A A A A A M j C V n U.= ' &.&XrX].G.i.d.d.!.].uX`.~.8XgX3X5._ O h.F s s s S D A A A A A A M A A A j A M A A A ",
"j M A S A A M j M j A A A A A M b.n V l.= ` | a.rXyX^.G.Q.!.7XwX`.dXpXpXlX0X&X^ * Y.D 0 m j n.g S A A A M A A S A M M A A A j A ",
"M A A A A A A A A N g S M A A A x.V z U.- Y %.w.wXrX{.(./.(.wXyXpXuXuXpX.X9Xq.6 O C.h N N a j F A S A M A M A A A A A A A A M M ",
"M A A A A M A A A A M A A A A A A l m V., P =.p.eXsXrX[.[. XsXtX XuX9X}..XlX0./ # x.F M a S N s A A j M S j A A A A A M A A A A ",
"A A A S A j M A M A A S A A M A b n n x.:X- #.w.aXdXsXuXuXuXaXtXaXuX X}.pXgXt./ X c.M N A A N p A A A A A A M j M A A A A A A A ",
"A A M g A M A A A A M g A A A A M N N c.+ : @.a.0XaXuXuX.X.XaXjXjXuX).).dXgX%X) % I.b.n M D S m A A A M A A M A M j M g g M j M ",
"A M A A M A A A A M A A j M A N g g f Y.% U %.=X0XaXuX X_.oXaXjXjX X_.).sXgX%X[ R & I.F M Z g y g M j M A A A A M A A A A M M A ",
"A j N A g S A A M g S A A A A A F h U.O - P %.s.0XaXuX}._._. XhXsX X).|.pX5Xe.[ Y L * z.D M F M.g A A A A M A A A A A S A S A A ",
"A A A A A A A A A A j M A A M A 0 B.X ; R P #.a.hXdXXX}.}.}..X.X}.9X0XuXXX'.q.@.! T T > V.k a M.M A A A A A A M A A A M A M A A ",
"A A M A A A M A g S N A A A g S q h I.E L P #.s.0XpX}.}.uXaX X)./.E.=Xd.'.`.T.0.#.( ' P C.k m h.A A M S M j g M j M A g A g M A ",
"A j M A A M A A M A S A A g M A M N b.T.; W #.s.9XdX.X.XaXhXaXXX'.t.2.>.I.9XfX5Xq.=.Y I A.c 9 D.A M A A A M A A M M A A A M j M ",
"M A A A M j A A A A g M A A A A k.m x A.; W #.i.9XaXaXuXuXeXaXaX6Xt.#.-.T.hXjXrXR.;.Q % b.c v g.g j M A A A A A A A A A A A A A ",
"A A A A j A A M A S A A g S A A N h.:X> ; P &.=XeX).|.sXsXuX XuX/.I.0.p.W.}.|.sX4X5.~ X x.l m v.A A A A A b.m.F.b.n.D b.m.F.m.D ",
"A g A A A A A g g A A A A A A A p D.+ U L Y &.a.9X XsXyXeX[. XrXeX5X6X5X{.oX|.XX1X4.W % N.l m k.A A A A H m.L.P.K.b.n.n.P.L.J.b.",
"A A A A M A A S A A A a A A A M m S X & ` ` %.w.uXiXdX X X XeXjXhXsXkXdXiX|.).|.E.+X' ; V.l n h A M M Z F F.L.P.L.F.n.K.P.P.K.F ",
"A A A A A A A A A A A A A A M j m g A.Y.o : %.2XaX|.). X X`.wXfXjXaX XXXiXpXXXXX5X+X' ; h.z B v.A A b A A G J.K.L.K.K.L.L.J.m.F ",
"A A A A A A g A A A M A A M A A p F n.d C @ #.%XgX/./.'.5X5XE.5X6X8X`.'.9X0XfXgX,X4.Q o g.z M f M b M A b D G b.L.L.P.L.m.F A A ",
"M A A A A A N A A A A A A A A A A D a H M h.4 0.t.w.w.y.=X=Xy.y.u.u.u.p.p.a.&X%X9.#.1 U.G p A B.V A M H H A A D m.L.P.L.G D Z H ",
"A A j M A A A A A A A A A A M A D D S H Z C S.3 _ %.&.4.*.&.&.1.<.<.1.<.2.1.%.| ^ 4 V.A p K u d A M A D A A A A G H.J.m.D Z Z A ",
"A A A M A A M A A M g A A A A A f D M M H v.Z.2 ) $.&.&.&...} { [ } X...) ) ) ^ 2 Z.H V n M S S H A A b A Z Z H A D H H A H A A ",
"A A A a g A A A A A a A A A g A M a N V N C.6 4.$Xr.t.$X4...O.)  .]  . . .$.=.>.,.C H V M M A p A M A A A A A A A A A g A A A A ",
"a A A A M A A M A A A A A M A A a K m a c.1 o.#XzX<XqX,Xr.<.) $.o.$.%.} X.[ >.,.b b C Z D M N M A A M A A A A A A A g A M A A A ",
"M A A A A A A A A A A A A g M A S q q v.% R ..*XxXkXkXqXz.8.;.3.@X3.8.5.{ %.>.b.L.H Z D S M s N A A A A A A M A M A A A A A A A ",
"A A A g A A A A A A A A A A A A v.0 k S.- ` o.e.xXcXcX9X8XE.1XE.>XR.R.t.@.^ :.C OXb C D M N m s A g A M j A A A A A M A A A M M ",
"A g g g g g a A g g A g A A A M f K k h T.- | r.4X<X9X X}.uXuX X.XoX.XT.1.E :.i.L.b H M n M a j A g A A g A A g A M A A A M A M ",
"S S A S S S g S S h S S A D S D D a a m j I.7 <.7.f.`.XX X X X XdXoXlX>X2.E 2 ,.G b V V p M j j S A A A S A A A A A g A a A M A ",
"g D F H.G F S D F J m.G D g j A j F M p B H l.1 ^ 7.1X XdXaXtXiXlXpXlX:X4.! @ b.b b b V n M j h A A D M A A A A A A A A M A M A ",
"g S J J.L.H.F S J L.L.J D a g S j g D D a 0 H I.Q &.y.E.'.fXjXhXgX'.R.e.6.! R.b l V b V M M F h g A D A A A M A S A A M A M A M ",
"d D m.P.P.K.b.b.K.P.P.J.H Z M M D D k.v.j M N A V.3 <.4.;XxXhX}.3X&X5.$./ Z.b k l M S g M j j F A A A A N j M A A A A A A A g N ",
"A S m.L.P.K.K.K.K.K.K.m.D A A M M A D D D M p N n.l.1 _ @XzX4X3X2X5.~ O I.x.G n n A g S A A a j A A A A A A A A A A A A A A A A ",
"M D D G F.K.P.P.K.K.b.F A D A M p m g S A M n m p M.C.1 =.9.@X@X+X_ $ U.F S u A S D S A M A M M A A A A A A A M M A A M M j A A ",
"A A A D D F.P.P.K.b.b Z A A M A z m M M A M p m n n x.S.3 ^ [ X.) 3 h.b 0 M G Z D A A A A g g m g A A M A A A M j M A A M A A A ",
"A D A Z D m.K.K.b.H Z Z H A M M a N M M M M M p m V M x.C.X * - * T.B.0 z n d b.D M M M g h M m A M A A j M A j S A A M A A A M ",
"A A A A D H G m.G A A A A A M A S A M M M A A S g p N A n.C.I.T.U.g.D p V a G M n n m M S D A g A A A A A M A A g A M g A A A A ",
"A A A Z A A A b D A A H A M A M v.D A s M A D D D S F M p u B.g.M A a G D F a N m m a A S h A j A A A A A A A A M A A S S A S g ",
"A A A A A Z Z A Z A A b A A M A D D A M M A h v.k.D s p B m p A l p G f C S n m p N A A M j A A A A M A A A M A A A A M g A A M ",
"M A A A A A A A A A A A A M M A A A M M A S D D D S N N m s s M z V D D D M n n A D h S g M g M A A A A A A A A S g A A A A A A ",
"A A A A M M j A M A A A M A A M N m M M A g A D A M s s N A S h M A g D M n z M h M.v.D M M M M A M A A A M A A A M M j M A A A ",
"A H A A A A M M A M A A S A A b m a M M A A A A M M M M g M j S D S D A N N a M D v.v.h A a N M A j A A A A A A A S j A A A A M ",
"A M A A A M N j M A M A A b A A N a M M A A A A D S A A A M N g D A A A a M M A j D D D D M M m A M A M M j M M M A M M A M j A ",
"A D M A A g N g M M M A A A A A j A j M M M A D D D D A M M n m S A A A S A S g M M A D D A M m M A A A A A A j N g A A A A A A ",
"A b A A M N g N j g A A A A H A h F M N M M A b Z D D A M M n p g g M j j D g M p M N A S j A N A A A A A M A A A A A A M A A A ",
"A A A A A j N s N g M A A A A A D h a M V V A H D A A b V M A A S g A N M a S g N n n M a M A A M M M A N j M g A A A A A A A M ",
"A H A A A M A g N M M A D A b A h D M M n M M b A M V V M D D v.D j M s m N g A j a N n m M A h A j S A A A A S A A M A A A M j "
};
