/* XPM */
static char *up1682269989[] = {
/* columns rows colors chars-per-pixel */
"64 64 211 2 ",
"   c #ABC766",
".  c #ACC866",
"X  c #ADC867",
"o  c #AEC967",
"O  c #AFC968",
"+  c #AFCA68",
"@  c #B0CA68",
"#  c #B1CB69",
"$  c #B2CB69",
"%  c #B2CC69",
"&  c #B3CC69",
"*  c #B3CC6A",
"=  c #B4CC6A",
"-  c #B4CD6A",
";  c #B5CD6A",
":  c #B5CE6B",
">  c #B6CE6B",
",  c #B7CE6B",
"<  c #B7CF6B",
"1  c #B8CF6C",
"2  c #B8D06C",
"3  c #B9D06C",
"4  c #BAD16D",
"5  c #BBD16D",
"6  c #BCD26E",
"7  c #BDD26E",
"8  c #BDD36E",
"9  c #BED36E",
"0  c #BFD46E",
"q  c #BED370",
"w  c #BFD370",
"e  c #BFD470",
"r  c #C0D46E",
"t  c #C0D470",
"y  c #C0D570",
"u  c #C1D570",
"i  c #C2D570",
"p  c #C2D670",
"a  c #C1D572",
"s  c #C2D572",
"d  c #C2D672",
"f  c #C2D673",
"g  c #C3D673",
"h  c #C3D674",
"j  c #C3D775",
"k  c #C4D775",
"l  c #C4D776",
"z  c #C5D776",
"x  c #C5D877",
"c  c #C6D878",
"v  c #C6D879",
"b  c #C7D979",
"n  c #C7D97A",
"m  c #C8D97B",
"M  c #C8DA7C",
"N  c #C9DA7C",
"B  c #C9DA7D",
"V  c #CADB7E",
"C  c #CADB7F",
"Z  c #46368A",
"A  c #52428F",
"S  c #544491",
"D  c #564791",
"F  c #574990",
"G  c #5A4B92",
"H  c #5C4E9A",
"J  c #5E509B",
"K  c #635596",
"L  c #665896",
"P  c #685B97",
"I  c #65579B",
"U  c #6B5E9C",
"Y  c #6F6298",
"T  c #6D609D",
"R  c #70649A",
"E  c #776A9C",
"W  c #7B6E9C",
"Q  c #6E64A5",
"!  c #6E65AA",
"~  c #7366A3",
"^  c #7669A3",
"/  c #7066AC",
"(  c #756BAA",
")  c #7B72AA",
"_  c #7D74A8",
"`  c #7970AC",
"'  c #80759F",
"]  c #897F9F",
"[  c #847AA1",
"{  c #8378A6",
"}  c #867AAD",
"|  c #897DAF",
" . c #8D84A2",
".. c #8F87AF",
"X. c #968CA4",
"o. c #958CAD",
"O. c #9990A5",
"+. c #9991A5",
"@. c #9488B5",
"#. c #988DB7",
"$. c #998EB8",
"%. c #9B8FBA",
"&. c #9F95B5",
"*. c #9E93BA",
"=. c #A29AA8",
"-. c #A79FAC",
";. c #A69CBC",
":. c #A8A1AB",
">. c #AAA3AC",
",. c #B0A9AE",
"<. c #B4AEAE",
"1. c #AEA6B3",
"2. c #B2AEB5",
"3. c #B7B2B1",
"4. c #BBB6B5",
"5. c #BFBBB7",
"6. c #C1BDB6",
"7. c #C1BCBB",
"8. c #CBDC80",
"9. c #CCDC81",
"0. c #CCDC82",
"q. c #CDDD82",
"w. c #CDDD83",
"e. c #CEDD83",
"r. c #CEDD84",
"t. c #CEDE85",
"y. c #CFDE85",
"u. c #CFDE86",
"i. c #D0DF87",
"p. c #D1DF88",
"a. c #D1E089",
"s. c #D2E089",
"d. c #D3E08B",
"f. c #D3E18B",
"g. c #D3E18C",
"h. c #D4E18C",
"j. c #D4E18D",
"k. c #D4E28D",
"l. c #D5E28D",
"z. c #D5E28E",
"x. c #D6E28F",
"c. c #D6E38F",
"v. c #D6E390",
"b. c #D7E391",
"n. c #D7E492",
"m. c #D8E492",
"M. c #D8E493",
"N. c #D9E493",
"B. c #D9E494",
"V. c #D9E594",
"C. c #DAE595",
"Z. c #DAE596",
"A. c #DAE696",
"S. c #DBE697",
"D. c #DCE698",
"F. c #DCE799",
"G. c #DDE799",
"H. c #DDE79A",
"J. c #DEE89A",
"K. c #DEE89B",
"L. c #DFE89C",
"P. c #DFE99D",
"I. c #E0E99E",
"U. c #C8C4B2",
"Y. c #CCC7B4",
"T. c #CFCBB5",
"R. c #D3CFB6",
"E. c #D4CFBF",
"W. c #D8D4B8",
"Q. c #D9D6B9",
"!. c #D8D5BA",
"~. c #DDDABC",
"^. c #E1DFBB",
"/. c #E5E3BD",
"(. c #E9E8BE",
"). c #ECEABF",
"_. c #A89DC1",
"`. c #AA9FC2",
"'. c #B1A7C3",
"]. c #C0B7CC",
"[. c #C2B8CE",
"{. c #C6BDD0",
"}. c #CDC7C6",
"|. c #CEC7CA",
" X c #DDD8C5",
".X c #DED9CD",
"XX c #CEC5D6",
"oX c #D5CED0",
"OX c #D2CAD7",
"+X c #DED7D4",
"@X c #D8D0DA",
"#X c #DDD5DD",
"$X c #E7E4C3",
"%X c #EDEAC5",
"&X c #E7E3C9",
"*X c #EFECCD",
"=X c #F0EFC0",
"-X c #F1EFC7",
";X c #F1EFCA",
":X c #F3F3C0",
">X c #F4F3C1",
",X c #F8F7C2",
"<X c #FBFBC4",
"1X c #F5F2CE",
"2X c #F8F6CD",
"3X c #E8E3D7",
"4X c #EAE5D6",
"5X c #E7E1D9",
"6X c #EEE9DB",
"7X c #F2EEDD",
"8X c #FAF8D1",
/* pixels */
"q 6 6 u u q 6 6 r u u u u u u u u u u u u u u u u u u u u u u u u u u u u u u u u u u u u u u u u u u u u u u u u u u u u u p u ",
"> > 1 q t 5 > > 5 e u u u u u u u u u u u u u u u u u u u u u u u u u u u u u u u u u u u u u u u u u u u u u u u u u u u u s u ",
"@ . % 5 q 1 O X % 8 u u u u u u u u u u u u u u u u u u u u u u u u u u u u u u u u u u u u u u u u u u u u u u u u u u u u r p ",
"@ . @ < 5 @ X X > 6 u u u u u u u u u u u u u u u u u u u u u u u u u u u u u u u u u u u u u u u u u u u u u u u u u u u u u u ",
"1 > @ @ @ % % < 5 u u u u u u u u u u u u u u u u u u u u u u u u u u u u u u u u u u u u u u u u u u u u u u u u u u u u u u u ",
"q 5 > O O @ 1 q e u u u u u u u u u u u u u u u u u u u u u u u u u u u u u u u u u u u u u u u u u u u u u u p u u u u u u u u ",
"u u 5 @ O % q u u u u u u u u u u u u u u u u u u u u u u u u u u u u u u u u u u u u u u u u u u u u u u u u r u u u u u u u u ",
"u u 6 < < 5 q u u u u u u u u u u u u u u u u u u u u u u u u u u u u u u u u u u u u u u u u u u p s r u u s p s u u u u u u u ",
"u u t u u u u u u u u u u u u u u u u u u u u u u u u u u u u u u u u u u u u u u u u u r p u u u 8 e u u u e e r p u u u u u u ",
"u u u s u u u u u u u u u u u u u u u u u u u u u u u u u u u u u u u u u u u u u u u u s p u u 5 5 5 q u e 5 5 6 u u u u u u u ",
"u u u u u u u u u u u u u u u u u u u u u u u u u u u u u u u u u u u u u u u u u u u u s r r 6 > O % 5 u 5 % @ > 5 u u u u u u ",
"u u u u u u u u u u u u u u u u u u u u u u u u u u u u u u u u u u u u u u u r u u u u r s u 6 @   O < q < O   % 5 u u u u u u ",
"u u u u u u u u u u u u u u u u u u u G G G G G G G u u u u u u u u u u u G G G G G F G r r u 8 < O @ % < % O O > 6 u u u u u u ",
"u u u u u u u u u u u u u u u u u r E W W W W ' W W R u u u u u u u u u R W W ' W W W W E s u u 6 5 > @ O @ % 5 5 u u u u u u u ",
"u u u u u u u u u u u u u u u u r Y X.,.<.<.<.<.2.:. .P u u u u u u u L  .-.<.<.<.<.3.,.X.Y r r u u 5 .   O 5 u u u u u u u u u ",
"u u u u u u u u u u u u u u u u F R =.~.).).(.).).T.+.P D u u u u u D P O.R.(.).(.%X).W.=.R G s u u 6 < @ > 5 u u u u u u u u u ",
"u u u u u u u u u u u u u u u u G R :./.<X<X<X<X<X!.+.L S A u u 8 Z S L +.~.<X<X<X<X<X/.>.Y G u u u e q 6 6 t u u u u u u u u u ",
"u u u u u u u u u u u u u u u u D R :.^.<X<X).<X,X!.+.K A A F F G D A L +.~.).<X<X:X<X/.:.Y S u u u u u u u u u u u u u u u u u ",
"u u u u u u u u u u u u u u u u D R -./.<X<X).<X>X!.:.^ I U T T T U K ^ >.Q.<X<X:X,X:X/.:.Y S e u u u u u u u u u u u u u u u u ",
"u u u u u u u u u u u u u u u u D R -.~.).).<X).>X$X7.&.$.$.*.%.$.*.*.;.6./.).).:X,X:X X>.Y G u u u u u u u u u u u u u u u u u ",
"u u u u u u u u u u u u u u u u F Y :./.<X).<X).>X%X.XOXXXXXXXXXXXXXXXOX.X%X:X,X:X:X,X~.:.T G u u u u u u u u u u u u u u u u u ",
"u u u u u u u u u u u u u u u u F Y :.~.).<X).).,X>X*X5X5X3X3X3X5X5X5X3X*X;X-X).:X,X,X/.:.Y F e u u u u u u u u u u u u u u u u ",
"u u u u u u u u u u u u u u u u F Y >./.<X<X).<X%X).*X*X*X*X1X;X*X*X;X*X-X:X;X:X:X,X,X~.-.Y F u u u u u u u u u u u u u u u u u ",
"u u u u u u u u u u u u u u u u F Y >./.).).<X).>X>X>X>X>X>X,X<X-X>X;X>X=X:X:X:X:X,X,X^.:.Y F e u u u u u u u u u u u u u u u u ",
"u u u u u u u u u u u u u u u u F R >.~.).<X).).<X<X).).).).<X).).,X).).<X<X).).;X>X>X~.>.Y F e u u u u u u u u u u u u u u u u ",
"u u u u u u u u u u u u u u u u A Y :./.<X).).<X).).).).).<X).).).).).).).).<X<X>X,X<X~.>.Y F e u u u u u u u u u u u u u u u u ",
"u u u u u u u u u u u u u u u u F R :.~.).<X<X).).<X<X).).).).).<X).<X<X<X).).).>X,X,X^.:.Y G e u u u u u u u u u u u u u u u u ",
"u u u u u u u u u u u u u u G G F R :./.<X<X).).).).).<X<X).<X).).).<X).).).).<X>X,X,X^.:.Y G F G u u u u u u u u u u u u u u u ",
"u u u u u u u u u u u u u G G G F Y :./.,X,X,X,X<X).<X).).<X).<X).<X).).).).).<X>X,X>X^.:.Y G D G G u u u u u u u u u u u u u u ",
"u u u u u u u u u u u u u u G D G Y :.^.,X,X).<X).<X).<X).).).<X<X<X).).<X<X).).>X>X,X~.:.Y D G G u u u u u e u e u u u t t u u ",
"u u u u u u u u u u u u u u u D F R :.^.,X<X).).).).<X).<X<X).).).).<X<X).<X<X<X>X,X,X^.:.R G D u u u u u u u r u u u u t t u u ",
"u u u u u u u u u u u u u u u u D Y :.^.).<X).<X<X).).).).).<X).).).).<X).).).).>X,X,X^.:.R G u u u u u u h h l h u h u l l h u ",
"u u u u u u u u u u u u u u u D F Y :.^.).<X).<X).<X<X).).<X).<X<X).).).<X<X).).).<X<X/.>.Y F F u u u u u m r.i.C x h v r.r.C x ",
"u u u u u u u u u u u u u G G G G Y >.^.<X<X).).).).).).<X).).).).<X<X).).<X).).).<X)./.>.Y G F G G u 8 h 0.M.J.h.m x r.S.J.a.x ",
"u u u u u u u u u u u u u u G G A R >./.).<X).<X<X).).<X).).).<X).).).).<X).<X).).<X<X/.>.R F G G u u r u r.Z.I.M.r.C h.J.P.a.v ",
"u u u u u u u u u u u u u u u F G R >.(.<X<X<X).).<X<X).<X<X,X,X<X<X<X<X<X).<X<X<X<X<X/.:.Y G F u u u u u C a.b.n.h.h.M.M.h.0.x ",
"u u u u u u u u u u u u u u u u D R :.Q.(.).).).).$X(.%X%X%X).).).).).%X).).).(.(.(.).Q.=.Y D u u u u u u h v C h.J.I.M.r.v x u ",
"u u u u u u u u u u u u u u u u r Y X.:.,.2.,.3.T.U.5.5.7.5.5.5.5.6.5.5.U.5.4.3.<.2.<.:.X.Y u u u u u u u e u l r.D.J.h.m u r u ",
"u u u u u u u u u u u u u u u u u u R E E W W _ ........o....................._ E E E E R u u u u u u u u u 6 u m a.a.0.x r r u ",
"u u u u u u u u u u u u u u u u u u Q R Y E E E ( ( ( ) / Q Q Q Q / ( ( ( ( ( E E E E ~ R u u u u u u u u u u u s x v x u u u u ",
"u u u u u u u u u u u u u u u u u T | *.1.1.:.o._ ! / / Q I H H J I ! ! ! ! ) o.>.1.1.*.| U 8 u u u u u u u u u u u u u u u u u ",
"u u u u u u u u u u u u u u u u G T *.[.#X&X~.4...` ( ( Q U K L L U Q / ( ) ..4. X&X+X{.*.T G u u u u u u u u u u u r u u u u u ",
"u u u u u u u u u u u u u u u u F T *.OX6X8X>XQ.3.o._ Y ^ [  . . . .E Q _ o.2.~.1X8X6X@X*.T F u u u u u u u u u u u u u u u u u ",
"u u u e e u u u u u u u u u u u F U *.OX6X8X,X%X~.4.| U [ >.Y.R.U.,._ T  .4.~.).,X1X6XOX*.T F u u u u u u u u u u u u u u u u u ",
"u u p r r u u u u u r u u u u u D Q *.'.OX X/.%X).Q.=.' +.Y.>X<X).R.+.W =.Q.).)./. XoX'.*.~ G r u u u u u u u u u u u u u u u u ",
"u u p p h u h u u s l u u u u u u Y | $.&.-.,.Y.).).U.3.6.(.<X<X<X/.6.<.U.(.).T.,.&.&.#.| T u u u u u u u u u u u u u u u u u u ",
"u l b 0.0.v h h v 0.8.C h u u u u u T T T T W :.~.).).^./.).>X>X).)./.~.(.).~.:.W P T T T u u u u u u u u u u u u u u u u u u u ",
"e h 0.M.Z.a.v l r.Z.N.r.l u u u u u r S A S K +.E.-X2X1X$XQ.Y.Y.R.Q.$X2X<X2XW.o.K S S F 8 r u u u u u u u u u u u u u u u u u u ",
"8 x r.J.P.c.C C h.P.J.a.x u u u u u u u S A L o.|.3X7X4X}.-. .[  .:.}.5X7X6X|...K S S u u u u u u u u u u u u u u u u u u u u u ",
"u h 8.h.Z.Z.h.a.n.Z.c.0.x r u u u u u u 6 A I @.].@X#XOX'.{ L G I { '.OX#X@X[.@.I F 8 u u u u u u u u u u u u u u u u u u u u u ",
"u u x M 0.h.J.J.n.i.m v u u u u u u u u u u I } *.`.`.;.@.~ D Z D ~ @.;.;.`.*.} L u u u u u u u u u u u u u u u u u u u u u u u ",
"u u e u v a.J.P.h.v r u u u u u u u u u u u u R ~ ^ ^ ^ ^ u u u u t E ^ ^ ^ ~ R u u u u u u u u u u u u u u u u u u u u u u u u ",
"u u u 8 l C h.h.0.x 8 u u u u u u u u u u u u u G G G G G u u u u u G G G G G u u u u u u u u u u u u u u u u u u u u u u u u u ",
"u u u u u x m m v u u u u u u u u u u u u u u u u t u u u u u u u u u u u u u u u u u u u u u u u u u u u u u u u u u u u u u u ",
"u u u u u u u u r u u u u u u u u u u u u u u u u u u u u u u u u u u u u u u u u u u u u u u u u u u u u u u u u u u u u u u u ",
"u u u u u u r r u u u u u u u u u u u u u u u u u u u u u u u u u u u u u u u u u u u u u u u u u u u u u u u u u u u u u u u u ",
"u u u u u u u u u u u u u u u u u u u u u u u u u u u u u u u u u u u u u u u u u u u u u u u u u u u u u u u u u u u u u u u u ",
"u u u u u u u u u u u u u u u u u u u u u u u u u u u u u u u u u u u u u u u u u u u u u u u u u u u u u u u u u u u u u u u u ",
"u u u u u u u u u u u u u u u u u u u u u u u u u u u u u u u u u u u u u u u u u u u u u u u u u u u u u u u u u u u u u u u u ",
"u u u u u u u u u u u u u u u u u u u u u u u u u u u u u u u u u u u u u u u u u u u u u u u u u u u u u u u u u u u u u u u u ",
"u u u u u u u u u u u u u u u u u u u u u u u u u u u u u u u u u u u u u u u u u u u u u u u u u u u u u u u u u u u u u u u u ",
"u u u u u u u u u u u u u u u u u u u u u u u u u u u u u u u u u u u u u u u u u u u u u u u u u u u u u u u u u u u u u u u u ",
"u u u u u u u u u u u u u u u u u u u u u u u u u u u u u u u u u u u u u u u u u u u u u u u u u u u u u u u u u u u u u u u u ",
"u u u u u u u u u u u u u u u u u u u u u u u u u u u u u u u u u u u u u u u u u u u u u u u u u u u u u u u u u u u u u u u u "
};
