/* XPM */
static char *Screenshot_2023_05_04_at_15_32_13_f2e61f42c8295c0c4456c3a13818c4bb_png__PNG_Image_900____900_pixels______Scaled__94_1683210781[] = {
/* columns rows colors chars-per-pixel */
"64 64 161 2 ",
"   c #549579",
".  c #5AA284",
"X  c #5BA284",
"o  c #5CA385",
"O  c #5BA385",
"+  c #58A183",
"@  c #569F81",
"#  c #57A082",
"$  c #5AA183",
"%  c #59A183",
"&  c #4A987A",
"*  c #30896B",
"=  c #3F9173",
"-  c #58A082",
";  c #3B8F71",
":  c #328A6C",
">  c #4E9B7D",
",  c #5DA385",
"<  c #459678",
"1  c #238163",
"2  c #378D6F",
"3  c #268264",
"4  c #4B997B",
"5  c #449476",
"6  c #31896B",
"7  c #479779",
"8  c #5EA486",
"9  c #469678",
"0  c #258264",
"q  c #388E70",
"w  c #529D7F",
"e  c #358C6E",
"r  c #3A8F71",
"t  c #539E80",
"y  c #378C6E",
"u  c #388D6F",
"i  c #338B6D",
"p  c #288365",
"a  c #4C997B",
"s  c #5DA486",
"d  c #439476",
"f  c #419375",
"g  c #5FA486",
"h  c #288466",
"j  c #2F886A",
"k  c #559E80",
"l  c #519C7E",
"z  c #2A8567",
"x  c #2B8668",
"c  c #549E80",
"v  c #228062",
"b  c #3D9072",
"n  c #429375",
"m  c #5FA587",
"M  c #4F9B7D",
"N  c #298567",
"B  c #2D8769",
"V  c #338A6C",
"C  c #278365",
"Z  c #3B9072",
"A  c #248264",
"S  c #3C9072",
"D  c #248163",
"F  c #30886A",
"G  c #2B8567",
"H  c #549F81",
"J  c #489779",
"K  c #3A8E70",
"L  c #409375",
"P  c #49987A",
"I  c #449577",
"U  c #3E9173",
"Y  c #479678",
"T  c #56A082",
"R  c #60A587",
"E  c #218062",
"W  c #62A688",
"Q  c #2D8668",
"!  c #368C6E",
"~  c #238062",
"^  c #489678",
"/  c #348B6D",
"(  c #2E886A",
")  c #509C7E",
"_  c #268365",
"`  c #368D6F",
"'  c #4D9A7C",
"]  c #3F9274",
"[  c #429476",
"{  c #559F81",
"}  c #409274",
"|  c #59A284",
" . c #59A283",
".. c #5DA387",
"X. c #5CA386",
"o. c #5AA184",
"O. c #5FA488",
"+. c #6CAA94",
"@. c #69A991",
"#. c #5BA285",
"$. c #5DA386",
"%. c #5FA589",
"&. c #6FAB96",
"*. c #6AA993",
"=. c #62A58B",
"-. c #6DAA95",
";. c #65A68E",
":. c #6EAB96",
">. c #6AA992",
",. c #5AA185",
"<. c #5BA286",
"1. c #6BA992",
"2. c #63A68C",
"3. c #70AC98",
"4. c #67A890",
"5. c #5CA286",
"6. c #6DAB95",
"7. c #5EA487",
"8. c #70AC97",
"9. c #57A182",
"0. c #5EA488",
"q. c #59A184",
"w. c #5DA487",
"e. c #61A68B",
"r. c #6EAB95",
"t. c #66A78F",
"y. c #5FA489",
"u. c #6BA993",
"i. c #6BAA93",
"p. c #67A78F",
"a. c #5EA387",
"s. c #60A489",
"d. c #68A890",
"f. c #58A182",
"g. c #61A58A",
"h. c #70AB97",
"j. c #69A891",
"k. c #6FAC97",
"l. c #69A892",
"z. c #68A891",
"x. c #519D7F",
"c. c #4A997B",
"v. c #4B9A7C",
"b. c #5CA486",
"n. c #4C9A7C",
"m. c #3D9173",
"M. c #529C7E",
"N. c #2E8769",
"B. c #258365",
"V. c #4B987A",
"C. c #348A6C",
"Z. c #61A688",
"A. c #2A8466",
"S. c #2C8668",
"D. c #318A6C",
"F. c #2C8769",
"G. c #539D7F",
"H. c #398E70",
"J. c #298466",
"K. c #499779",
"L. c white",
/* pixels */
". . . . . . . . . . . . . . . . . . . . . . . . . . . . . . . . . . . . . . . . . . . . . . . . . . . . . . . . . . . . . . . . ",
". . . . . . . . . . . . . . . . . . . . . . . . . . . . . . . . . . . . . . . . . . . . . . . . . . . . . . . . . . . . . . . . ",
". . . . . . . X o O . . . . . . . . . . . . . . . . . . . . . . . . . . . . . . . . . . . . . . . . . . . . . . . . O o . . . . ",
". . . . . . . + @ # $ . . . . . . . . . . . . . . . . . . . . . . . . . . . . . . . . . . . . . . . . . . . . . . $ # @ % . . . ",
". . . X O X o & * = $ X O O . . . . . . . . . . . . . . . . . . . . . . . . . . . . . . . . . . . . . . . . O O X - ; : > o X O ",
". . $ % + % , < 1 2 . . + + % . . . . . . . . . . . . . . . . . . . . . . . . . . . . . . . . . . . . . . % + % X - : 3 4 , % + ",
". X X 5 6 7 8 9 0 q O w e r @ X . . . . . . . . . . . . . . . . . . . . . . . . . . . . . . . . . . . . o t y u @ % i p a s d 6 ",
". X X ; 1 f g 9 0 q o > h j k o . . . . . . . . . . . . . . . . . . . . . . . . . . . . . . . . . . . . o l z x c $ i p a s r v ",
". X X b 0 n m 9 0 q o M N * k o . . . . . . . . . . . . . . . . . . . . . . . . . . . . . . . . . . . . o l x B k . V C a 8 Z A ",
". X X S D f m 9 A u , M N F k o . . . . . . . . . . . . . . . . . . . . . . . . . . . . . . . . . . . . o l G B H . : C a 8 Z 1 ",
". . . M J f K L P I ; U Y 4 - . . . . . . . . . . . . . . . . . . . . . . . . . . . . . . . . . . . . . X T & 9 b ; < J = K d J ",
". . $ o R f E S W a D : X 8 . . . . . . . . . . . . . . . . . . . . . . . . . . . . . . . . . . . . . . . . m # Q C w m ! ~ ^ R ",
". . . . s f A b 8 4 C / - o . . . . . . . . . . . . . . . . . . . . . . . . . . . . . . . . . . . . . . . . o H ( N ) o 2 3 Y , ",
". . . . o L 1 S 8 & _ V - O . . . . . . . . . . . . . . . . . . . . . . . . . . . . . . . . . . . . . . . . o H ( N ) X ` 0 Y , ",
". . . . X ' ] 4 O w f Y % X . . . . . . . . . . . . . . . . . . . . . . . . . . . . . . . . . . . . . . . . X # I [ { . J } l O ",
". . . . % . O X % . O X | . . . . . . . . . . . . . . . . . . . . . . . . . . . . . . . . . . . . . . . . . . $ O O . | X o . | ",
". . . . . . . . . . . . . . . . . . . . . . . . . . . . . . . . . . . . . . . . . . . . . . . . . . . . . . . . . . . . . . . . ",
". . . . . . . . . . . . . . . . . . . . . . . . . . . . . . . . . . . . . . . . . . . . . . . . . . . . . . . . . . . . . . . . ",
". . . . . . . . . . . . . . . . . . . . . . . . . . . . . . . . . . . . . . . . . . . . . . . . . . . . . . . . . . . . . . . . ",
". . . . . . . . . . . . . . . . . . . . . . . . . . . . . . . . . . . . . . . . . . . . . . . . . . . . . . . . . . . . . . . . ",
". . . . . . . . . . . . . . . . . . . . . . . . . . . . . . . . . . . . . . . . . . . . . . . . . . . . . . . . . . . . . . . . ",
". . . . . . . . . . . . . . . . . . . . . . . . . . . . . . . . . . . . . . . . . . . . . . . . . . . . . . . . . . . . . . . . ",
". . . . . . . . . . . . . . . . . . . . . . . . . . . . . . . . . . . . . . . . . . . . . . . . . . . . . . . . . . . . . . . . ",
". . . . . . . . . . . . . . . . . . . . . . . . . . . . . . . . . . . . . . . . . . . . . . . . . . . . . . . . . . . . . . . . ",
". . . . . . . . . . . . . . . . . . . . . . . . . . . . . . . . . . . . . . . . . . . . . . . . . . . . . . . . . . . . . . . . ",
". . . . . . . . . . . . . . . . . . . . . . . . . . . . . . . % % . . . . . . . . . . . . . . . . . . . . . . . . . . . . . . . ",
". . . . . . . . . . . . . . . . . . . . . . . . . . . . .  .. ..X.o.. . . . . . . . . . . . . . . . . . . . . . . . . . . . . . ",
". . . . . . . . . . . . . . . . . . . . . . . . . . .  . . .O.+.@.#.%  . .. . . . . . . . . . . . . . . . . . . . . . . . . . . ",
". . . . . . . . . . . . . . . . . . . . . . . . . . #.$.#. .%.&.*.#.o.X.X.. . . . . . . . . . . . . . . . . . . . . . . . . . . ",
". . . . . . . . . . . . . . . . . . . . . . . . . % =.-.;.% O.:.>.,.<.>.1... .. . . . . . . . . . . . . . . . . . . . . . . . . ",
". . . . . . . . . . . . . . . . . . . . . . . . . % 2.3.4.+ O.:.>.o.5.-.6.7. .. . . . . . . . . . . . . . . . . . . . . . . . . ",
". . . . . . . . . . . . . . . . . . . . . . . . . % 2.8.4.9.0.:.>.q.#.-.6.w. .. . . . . . . . . . . . . . . . . . . . . . . . . ",
". . . . . . . . . . . . . . . . . . . . . . . . . % e.r.t.. y.+.@.5...u.i.$. .. . . . . . . . . . . . . . . . . . . . . . . . . ",
". . . . . . . . . . . . . . . . . . . . . . . . . . O ..=.>.p.a.s.@.d.y.$.X . . . . . . . . . . . . . . . . . . . . . . . . . . ",
". . . . . . . . . . . . . . . . . . . . . . . . . .  .f.g.h.j.+ ..r.+.O f. .. . . . . . . . . . . . . . . . . . . . . . . . . . ",
". . . . . . . . . . . . . . . . . . . . . . . . . . . % g.k.l.q...r.+.X. .. . . . . . . . . . . . . . . . . . . . . . . . . . . ",
". . . . . . . . . . . . . . . . . . . . . . . . . . . % g.&.z.q...-.i.X. .. . . . . . . . . . . . . . . . . . . . . . . . . . . ",
". . . . . . . . . . . . . . . . . . . . . . . . . . . . 5.s.0.| #.s.O..  .. . . . . . . . . . . . . . . . . . . . . . . . . . . ",
". . . . . . . . . . . . . . . . . . . . . . . . . . . .  .% % . . % % . . . . . . . . . . . . . . . . . . . . . . . . . . . . . ",
". . . . . . . . . . . . . . . . . . . . . . . . . . . . . . . . . . . . . . . . . . . . . . . . . . . . . . . . . . . . . . . . ",
". . . . . . . . . . . . . . . . . . . . . . . . . . . . . . . . . . . . . . . . . . . . . . . . . . . . . . . . . . . . . . . . ",
". . . . . . . . . . . . . . . . . . . . . . . . . . . . . . . . . . . . . . . . . . . . . . . . . . . . . . . . . . . . . . . . ",
". . . . . . . . . . . . . . . . . . . . . . . . . . . . . . . . . . . . . . . . . . . . . . . . . . . . . . . . . . . . . . . . ",
". . . . . . . . . . . . . . . . . . . . . . . . . . . . . . . . . . . . . . . . . . . . . . . . . . . . . . . . . . . . . . . . ",
". . . . . . . . . . . . . . . . . . . . . . . . . . . . . . . . . . . . . . . . . . . . . . . . . . . . . . . . . . . . . . . . ",
". . . . . . . . . . . . . . . . . . . . . . . . . . . . . . . . . . . . . . . . . . . . . . . . . . . . . . . . . . . . . . . . ",
". . . . . . . . . . . . . . . . . . . . . . . . . . . . . . . . . . . . . . . . . . . . . . . . . . . . . . . . . . . . . . . . ",
". . . . . . . . . . . . . . . . . . . . . . . . . . . . . . . . . . . . . . . . . . . . . . . . . . . . . . . . . . . . . . . . ",
". . . . . . . . . . . . . . . . . . . . . . . . . . . . . . . . . . . . . . . . . . . . . . . . . . . . . . . . . . . . . . . . ",
". . . . . . . . . . . . . . . . . . . . . . . . . . . . . . . . . . . . . . . . . . . . . . . . . . . . . . . . . . . . . . . . ",
". . . . % X o O $ . . . . . . . . . . . . . . . . . . . . . . . . . . . . . . . . . . . . . . . . . . . . . . . . . o o . % . . ",
". . . . . w P x.. . . . . . . . . . . . . . . . . . . . . . . . . . . . . . . . . . . . . . . . . . . . . . . . . % > c.{ X . . ",
"| O o O o [ _ U X X o o . . . . . . . . . . . . . . . . . . . . . . . . . . . . . . . . . . . . . . . . % . o o O - / N v.b.O , ",
"% x.' { s f D b o @ ' ) % . . . . . . . . . . . . . . . . . . . . . . . . . . . . . . . . . . . . . . . . - > > % + : C 4 s w n.",
"+ r N 7 8 f 0 m.8 a z ! - O . . . . . . . . . . . . . . . . . . . . . . . . . . . . . . . . . . . . . . o M.N.j k % i p a s m.C ",
"- u B.9 8 f 0 m.8 V.C C.- O . . . . . . . . . . . . . . . . . . . . . . . . . . . . . . . . . . . . . . o l G B c % i h a s Z D ",
"- 2 A 7 Z.f v b Z.a 0 V - O . . . . . . . . . . . . . . . . . . . . . . . . . . . . . . . . . . . . . . o l A.S.@ o D.0 ' R Z v ",
"% m.N.< T f F.U T J ( K - O . . . . . . . . . . . . . . . . . . . . . . . . . . . . . . . . . . . . . . o G.V i M t 2 j P @ m.F.",
"% # { U x n % < x r { # % . . . . . . . . . . . . . . . . . . . . . . . . . . . . . . . . . . . . . . . . % # ) V ( ' T H.S.9 # ",
". o , S 1 n Z.9 1 2 o o . . . . . . . . . . . . . . . . . . . . . . . . . . . . . . . . . . . . . . . . . . 8 @ B h x.8 ` D ^ m ",
". X X S D f 8 9 D u . X . . . . . . . . . . . . . . . . . . . . . . . . . . . . . . . . . . . . . . . . . . o H N.J.) X ` 0 Y , ",
". X X = J.d 8 J N ; $ X . . . . . . . . . . . . . . . . . . . . . . . . . . . . . . . . . . . . . . . . . . o k : B l X K z K., ",
". . $ c M { X @ M G.$ . . . . . . . . . . . . . . . . . . . . . . . . . . . . . . . . . . . . . . . . . . . . + l ) - $ w M @ . ",
". . $ o s O % X s o $ . . . . . . . . . . . . . . . . . . . . . . . . . . . . . . . . . . . . . . . . . . . . . o , . $ o s X % "
};
